<?xml version="1.0" encoding="UTF-8"?>
<svg width="18px" height="18px" viewBox="0 0 18 18" version="1.1" xmlns="http://www.w3.org/2000/svg" xmlns:xlink="http://www.w3.org/1999/xlink">
    <!-- Generator: Sketch 51.1 (57501) - http://www.bohemiancoding.com/sketch -->
    <title>Shape</title>
    <desc>Created with Sketch.</desc>
    <defs></defs>
    <g id="Page-1" stroke="none" stroke-width="1" fill="none" fill-rule="evenodd">
        <path d="M17.4948155,17.3626171 L17.4948155,0.186699425 L17.4948155,0 L17.3086959,0 L0.186119613,0 L0,0 L0,0.186699425 L0,17.3626171 L0,17.5493165 L0.186119613,17.5493165 L17.3086959,17.5493165 L17.4948155,17.5493165 L17.4948155,17.3626171 Z M4.03655198,2.86578786 L12.8292974,2.86578786 L13.0057169,2.86580164 L13.0146883,3.04373575 L13.1410301,5.54977448 L13.1508809,5.74522522 L12.9556381,5.74522522 L12.625412,5.74522522 L12.4724441,5.74522522 L12.4429332,5.59426151 C12.3855461,5.30076802 12.3254667,5.05406373 12.2624331,4.85387211 C12.2022297,4.66265234 12.1410233,4.51827661 12.0785666,4.42055124 C12.0171679,4.32446587 11.9419071,4.23965336 11.8522194,4.16652852 C11.7609525,4.09210779 11.6534056,4.02860193 11.5290133,3.97641142 L11.5290958,3.97623226 C11.4322646,3.94115803 11.2936952,3.91384295 11.1136895,3.89461759 C10.9253714,3.87449645 10.6921415,3.86425671 10.4143021,3.86425671 L7.47041705,3.86425671 L7.47041705,8.01326765 L9.79117754,8.01326765 C10.1050686,8.01326765 10.3628634,7.99047292 10.5649202,7.94492465 C10.7509166,7.9029734 10.8862989,7.84385032 10.9712732,7.7675833 L10.9720013,7.76685287 C11.0939741,7.65888776 11.1900222,7.50577425 11.260654,7.30729089 C11.3359839,7.09566071 11.3814321,6.83611183 11.3976439,6.52842253 L11.4069726,6.35120487 L11.583035,6.35120487 L11.8931607,6.35120487 L12.0792803,6.35120487 L12.0792803,6.53790429 L12.0792803,10.5216554 L12.0792803,10.7083548 L11.8931607,10.7083548 L11.583035,10.7083548 L11.4215768,10.7083548 L11.3991001,10.5471789 C11.3610986,10.2747165 11.3230421,10.0533152 11.2855626,9.88279524 L11.2848344,9.88279524 C11.2483579,9.71676759 11.2141619,9.60101684 11.1827825,9.53529212 L11.1825352,9.53541616 C11.1421706,9.45676446 11.088232,9.38591333 11.0210909,9.32322123 C10.9521495,9.2588749 10.868137,9.20238421 10.7693541,9.15407928 C10.6695966,9.10529232 10.540727,9.06806819 10.3828399,9.04275144 C10.2187028,9.01641477 10.0214954,9.00308791 9.79117812,9.00308791 L7.47041762,9.00308791 L7.47041762,12.5898676 C7.47041762,12.8413128 7.47591314,13.0407051 7.48656077,13.1881414 C7.49626037,13.3225675 7.50861155,13.4084681 7.5233671,13.4459541 L7.52283128,13.4461608 C7.53720203,13.4792504 7.55668373,13.5095148 7.58144109,13.5370643 C7.60784708,13.5664605 7.64073778,13.5927834 7.68031932,13.6161845 L7.68007202,13.616598 C7.71544945,13.6355201 7.77463622,13.6511209 7.85704176,13.6633452 C7.95423006,13.6777607 8.07752168,13.684996 8.22617635,13.684996 L10.1616091,13.684996 C10.4818338,13.684996 10.7546865,13.6746598 10.9787108,13.6533258 C11.1983532,13.6324054 11.3757626,13.6009557 11.5098259,13.5583568 L11.5120103,13.5583568 C11.6420896,13.5187209 11.7699703,13.4592256 11.8962295,13.3796642 C12.0246186,13.2987524 12.1510023,13.1971538 12.2759296,13.0746353 L12.2755862,13.0742908 C12.4429524,12.9064032 12.6115958,12.6967018 12.781435,12.4456149 C12.9532249,12.191647 13.129563,11.8902026 13.3103656,11.5417205 L13.362573,11.4410734 L13.4753962,11.4410734 L13.8113651,11.4410734 L14.0719214,11.4410734 L13.987304,11.6883016 L13.0052404,14.5572866 L12.9620456,14.6834573 L12.8293014,14.6834573 L4.03655607,14.6834573 L3.85043617,14.6834573 L3.85043645,14.4967578 L3.85043645,14.185666 L3.85043645,13.9989666 L4.03655607,13.9989666 L4.44145265,13.9989666 C4.55924946,13.9989666 4.67429759,13.9844546 4.78625504,13.9557337 C4.90097409,13.9263238 5.01169493,13.8828566 5.11804684,13.8257043 L5.12313019,13.8227826 C5.19223642,13.7886869 5.24926612,13.7463773 5.29474214,13.6961989 C5.33906356,13.6472879 5.37345179,13.5889642 5.39836025,13.5215996 L5.39882737,13.5217788 C5.42431291,13.4466276 5.44423419,13.3255287 5.45853619,13.1585781 C5.47382751,12.9798996 5.48149371,12.7538262 5.48149371,12.4803989 L5.48149371,5.04579361 C5.48149371,4.69080637 5.46449885,4.40763593 5.4302067,4.19607459 C5.39955543,4.00704615 5.359232,3.8835079 5.309168,3.82517045 C5.23077429,3.73848411 5.12387311,3.67247048 4.9884768,3.62719816 C4.8408667,3.57785999 4.65851127,3.55316331 4.44145237,3.55316331 L4.03655578,3.55316331 L3.85043617,3.55316331 L3.85043617,3.36646388 L3.85043617,3.05249114 L3.85043617,2.86578786 L4.03655578,2.86579172 L4.03655198,2.86578786 Z" id="Shape" fill="#FF7F82"></path>
    </g>
</svg>