<?xml version="1.0" encoding="UTF-8"?>
<svg width="18px" height="18px" viewBox="0 0 18 18" version="1.1" xmlns="http://www.w3.org/2000/svg" xmlns:xlink="http://www.w3.org/1999/xlink">
    <!-- Generator: Sketch 44.1 (41455) - http://www.bohemiancoding.com/sketch -->
    <title>linkedin</title>
    <desc>Created with Sketch.</desc>
    <defs></defs>
    <g id="Welcome" stroke="none" stroke-width="1" fill="none" fill-rule="evenodd">
        <g id="Desktop-HD" transform="translate(-680.000000, -644.000000)">
            <g id="linkedin" transform="translate(666.000000, 632.000000)">
                <rect id="Rectangle" x="0" y="0" width="44" height="44"></rect>
                <path d="M14.4540216,17.7718018 L17.9623706,17.7718018 L17.9623706,29.9988475 L14.4540216,29.9988475 L14.4540216,17.7718018 Z M16.1187676,16.2424126 L16.0933678,16.2424126 C14.8233772,16.2424126 14,15.3077219 14,14.1240876 C14,12.9162505 14.8477187,12 16.1431091,12 C17.4374412,12 18.233302,12.9139454 18.2587018,14.12063 C18.2587018,15.3042643 17.4374412,16.2424126 16.1187676,16.2424126 L16.1187676,16.2424126 Z M32,30 L28.0217545,30 L28.0217545,23.6715328 C28.0217545,22.0153669 27.3994591,20.8859009 26.0310442,20.8859009 C24.9843603,20.8859009 24.4022813,21.6477142 24.13135,22.3841721 C24.0297507,22.6469458 24.0456256,23.0145985 24.0456256,23.3834038 L24.0456256,30 L20.1044214,30 C20.1044214,30 20.1552211,18.7906262 20.1044214,17.7718018 L24.0456256,17.7718018 L24.0456256,19.6907415 C24.2784572,18.8517096 25.5378645,17.6542451 27.5476246,17.6542451 C30.0410395,17.6542451 32,19.4141375 32,23.2001537 L32,30 L32,30 Z" id="Shape" fill="#FF7F82"></path>
            </g>
        </g>
    </g>
</svg>