<?xml version="1.0" encoding="UTF-8"?>
<svg width="20px" height="16px" viewBox="0 0 20 16" version="1.1" xmlns="http://www.w3.org/2000/svg" xmlns:xlink="http://www.w3.org/1999/xlink">
    <!-- Generator: Sketch 51.1 (57501) - http://www.bohemiancoding.com/sketch -->
    <title>Group 2</title>
    <desc>Created with Sketch.</desc>
    <defs></defs>
    <g id="Page-1" stroke="none" stroke-width="1" fill="none" fill-rule="evenodd">
        <g id="Group-2" fill="#FF7F82" fill-rule="nonzero">
            <path d="M2.37161532,3.23904662 C2.39646378,2.99353544 2.3028397,2.75087496 2.11951447,2.58563663 L0.252100845,0.336039414 L0.252100845,0 L6.05042017,0 L10.5322128,9.82915298 L14.4724558,0 L20,0 L20,0.336039414 L18.4033613,1.86688566 C18.2657136,1.97180881 18.1974333,2.14425744 18.2259571,2.31493822 L18.2259571,13.5629244 C18.1974333,13.7336051 18.2657136,13.9060537 18.4033613,14.0109769 L19.9626517,15.5418232 L19.9626517,15.8778626 L12.1195145,15.8778626 L12.1195145,15.5418232 L13.7348273,13.9736392 C13.8935574,13.8149539 13.8935574,13.7682818 13.8935574,13.5255867 L13.8935574,4.43385346 L9.40242763,15.8405249 L8.79551816,15.8405249 L3.56676003,4.43385346 L3.56676003,12.0787502 C3.52316455,12.4001632 3.62991144,12.7237558 3.85620915,12.9561866 L5.95704948,15.5044855 L5.95704948,15.8405249 L0,15.8405249 L0,15.5044855 L2.10084034,12.9561866 C2.3254904,12.7233704 2.42601279,12.3976313 2.37161532,12.0787502 L2.37161532,3.23904662 Z" id="Shape-Copy"></path>
        </g>
    </g>
</svg>