<?xml version="1.0" encoding="UTF-8"?>
<svg width="12px" height="18px" viewBox="0 0 12 18" version="1.1" xmlns="http://www.w3.org/2000/svg" xmlns:xlink="http://www.w3.org/1999/xlink">
    <!-- Generator: Sketch 44.1 (41455) - http://www.bohemiancoding.com/sketch -->
    <title>tumblr</title>
    <desc>Created with Sketch.</desc>
    <defs></defs>
    <g id="Welcome" stroke="none" stroke-width="1" fill="none" fill-rule="evenodd">
        <g id="Desktop-HD" transform="translate(-810.000000, -645.000000)">
            <g id="tumblr" transform="translate(794.000000, 632.000000)">
                <rect id="Rectangle" x="0" y="0" width="44" height="44"></rect>
                <path d="M22.4144265,13 L22.4144265,17.503349 L26.8169118,17.503349 L26.8169118,20.3009158 L22.4144265,20.3009158 L22.4144265,24.8702748 C22.4144265,25.9044315 22.4711624,26.5676749 22.5846341,26.8589571 C22.6981058,27.1544305 22.9097743,27.3880849 23.2218216,27.5630638 C23.6309745,27.7998616 24.1001365,27.9172127 24.6293076,27.9172127 C25.5687226,27.9172127 26.5026823,27.6227871 27.4322777,27.0370793 L27.4322777,29.849315 C26.6390666,30.2055594 25.9222307,30.4580739 25.2795879,30.6026672 C24.635854,30.7483084 23.9408396,30.8195572 23.1945447,30.8195572 C22.3445977,30.8195572 21.5950296,30.716875 20.9436582,30.5115106 C20.2922868,30.3040506 19.7358388,30.0127683 19.2764965,29.6313772 C18.8160631,29.2510339 18.4952872,28.8444961 18.3185331,28.4159549 C18.140688,27.9874138 18.052311,27.3660816 18.052311,26.5509104 L18.052311,20.3009158 L16,20.3009158 L16,17.7789146 C16.7310199,17.5515468 17.3540233,17.2246401 17.8744658,16.8013379 C18.3927262,16.3769879 18.8116988,15.8667201 19.1248371,15.2705345 C19.4390666,14.6764445 19.6561904,13.9189011 19.7751175,13 L22.4144265,13" id="Shape" fill="#FF7F82"></path>
            </g>
        </g>
    </g>
</svg>