<?xml version="1.0" standalone="no"?>
<!DOCTYPE svg PUBLIC "-//W3C//DTD SVG 1.1//EN" "http://www.w3.org/Graphics/SVG/1.1/DTD/svg11.dtd" >
<svg xmlns="http://www.w3.org/2000/svg" xmlns:xlink="http://www.w3.org/1999/xlink" version="1.1">
<metadata>
Created by FontForge 20161013 at Tue Nov 29 18:07:00 2016
 By ,,,
Copyright (c) 2015 by Seniors Studio. All rights reserved.
</metadata>
<defs>
<font id="Nickainley-Normal" horiz-adv-x="0" >
  <font-face 
    font-family="Nickainley Normal"
    font-weight="400"
    font-stretch="normal"
    units-per-em="1000"
    panose-1="0 0 5 0 0 0 0 0 0 0"
    ascent="800"
    descent="-200"
    x-height="473"
    cap-height="778"
    bbox="-372.333 -283 1256 1001"
    underline-thickness="50"
    underline-position="-200"
    unicode-range="U+0020-2212"
  />
<missing-glyph horiz-adv-x="500" 
d="M410 800v-1000h-317v1000h317zM333 733h-165v-33h65v-37h-66v-33h166v33h-66v37h66v33zM267 604h-100v-104h166v34h-66v70zM233 570v-36h-33v36h33zM333 473h-166v-33h66v-37h-66v-33h100v70h66v33zM333 413h-33v-66h-133v-34h166v100zM333 291h-100v-56h34v23h33v-47
h-100v80h-33v-113h166v113zM333 118h-166v-113h166v113zM300 85v-47h-100v47h100zM333 -18h-166v-33h70l-70 -47v-33h166v33h-102l70 47h32v33z" />
    <glyph glyph-name=".notdef" horiz-adv-x="500" 
d="M410 800v-1000h-317v1000h317zM333 733h-165v-33h65v-37h-66v-33h166v33h-66v37h66v33zM267 604h-100v-104h166v34h-66v70zM233 570v-36h-33v36h33zM333 473h-166v-33h66v-37h-66v-33h100v70h66v33zM333 413h-33v-66h-133v-34h166v100zM333 291h-100v-56h34v23h33v-47
h-100v80h-33v-113h166v113zM333 118h-166v-113h166v113zM300 85v-47h-100v47h100zM333 -18h-166v-33h70l-70 -47v-33h166v33h-102l70 47h32v33z" />
    <glyph glyph-name=".null" 
 />
    <glyph glyph-name="nonmarkingreturn" horiz-adv-x="333" 
 />
    <glyph glyph-name="space" unicode=" " horiz-adv-x="300" 
 />
    <glyph glyph-name="exclam" unicode="!" horiz-adv-x="279" 
d="M337 733q20 -7 13 -27l-194 -550q-7 -20 -27 -13q-19 7 -12 27l194 550q6 20 26 13zM90 61q14 0 24.5 -10.5t10.5 -24.5t-10.5 -24t-24.5 -10t-24 10t-10 24t10 24.5t24 10.5z" />
    <glyph glyph-name="quotedbl" unicode="&#x22;" horiz-adv-x="278" 
d="M189 623l55 155q3 8 11.5 11.5t16.5 0.5q21 -11 13 -30l-59 -155q-8 -18 -27 -11q-16 12 -10 29zM279 623l55 155q3 8 11.5 11.5t16.5 0.5q21 -11 13 -30l-59 -155q-8 -18 -27 -11q-16 12 -10 29z" />
    <glyph glyph-name="numbersign" unicode="#" horiz-adv-x="536" 
d="M456 491q20 0 22 -21q0 -9 -6 -15t-15 -6h-74l-42 -118h61q20 0 22 -21q0 -9 -6 -15t-15 -6h-77l-69 -196q-2 -8 -10.5 -12t-16.5 -1q-19 7 -12 27l64 182l-105 1l-69 -197q-7 -20 -27 -13t-13 27l64 183h-63q-9 0 -15 6t-6 15q2 21 22 21h77l42 117h-65q-9 0 -15 6
t-6 15q2 21 22 21h78l59 166q7 20 27 13q19 -7 13 -27l-54 -152h105l59 166q2 8 10.5 12t16.5 1q19 -7 12 -27l-54 -152h59zM297 331l42 118h-105l-42 -117z" />
    <glyph glyph-name="dollar" unicode="$" horiz-adv-x="455" 
d="M397 624q20 -35 17 -91q-1 -2 -1.5 -7t-0.5 -7q-1 -8 -8 -13.5t-16 -4.5q-20 4 -18 24q1 3 1 11q3 41 -11 68q-11 22 -39 29l-84 -233q49 -43 74 -95q25 -53 16 -99q-9 -48 -42 -80t-79 -44q-38 -8 -71 -4q-8 2 -12 2l-20 -53q-2 -8 -10 -12t-16 -1q-20 7 -13 27l19 53
q-5 2 -15 8q-78 50 -67 158q2 9 8.5 14.5t15.5 4.5q8 -1 13.5 -8t4.5 -15q-9 -84 48 -118l6 -4l92 255q-27 27 -42 59q-21 46 -16 89q6 64 58 106q46 36 104 36l18 50q7 19 27 12q8 -2 11.5 -10.5t0.5 -16.5l-14 -41q41 -11 61 -49zM205 434l72 202q-32 -4 -62 -26
q-38 -31 -42 -77q-3 -34 12 -66q7 -15 20 -33zM273 287q-18 37 -51 69l-85 -235l1 -1h3q29 -3 55 4q34 8 59 31.5t31 58.5q6 32 -13 73z" />
    <glyph glyph-name="percent" unicode="%" horiz-adv-x="413" 
d="M315 670q20 -7 13 -27l-194 -550q-7 -20 -27 -13t-13 27l194 550q7 20 27 13zM84 386q-25 0 -37.5 18t-12.5 45q0 58 33 117.5t77 59.5q26 0 41 -17t15 -45q0 -59 -35.5 -118.5t-80.5 -59.5zM84 428q25 0 49.5 48t24.5 86q0 21 -12 21q-25 0 -47.5 -47t-22.5 -86
q0 -22 8 -22zM273 124q-25 0 -37.5 18t-12.5 45q0 58 33 117.5t77 59.5q26 0 41 -17t15 -45q0 -59 -35.5 -118.5t-80.5 -59.5zM273 166q25 0 49.5 48t24.5 86q0 21 -12 21q-25 0 -47.5 -47t-22.5 -86q0 -22 8 -22z" />
    <glyph glyph-name="ampersand" unicode="&#x26;" horiz-adv-x="578" 
d="M541 334q18 -11 7 -29q-75 -122 -130 -173q-16 -14 -34 -28l17 -53l8 -23q5 -20 -14 -27q-20 -5 -27 14l-7 23l-14 43q-62 -31 -132 -30q-65 0 -103 37.5t-38 101.5q1 65 42 119.5t137 123.5q-12 69 -12 109q0 67 36 111t92 44q41 0 69.5 -24.5t28.5 -63.5
q0 -47 -36.5 -88t-131.5 -108q20 -100 71 -266q4 3 10.5 8.5t9.5 7.5q53 51 122 164q11 18 29 7zM284 540q0 -37 7 -85q134 94 134 154q0 21 -16 33.5t-40 12.5q-40 0 -62.5 -32.5t-22.5 -82.5zM334 122q-47 150 -72 265q-79 -58 -112 -102.5t-34 -94.5q0 -47 27 -72t72 -25
q64 0 119 29z" />
    <glyph glyph-name="quotesingle" unicode="'" horiz-adv-x="210" 
d="M209 623l55 155q3 8 11.5 11.5t16.5 0.5q21 -11 13 -30l-59 -155q-8 -18 -27 -11q-16 12 -10 29z" />
    <glyph glyph-name="parenleft" unicode="(" horiz-adv-x="292" 
d="M463 824q0 -18 -17 -21q-60 -11 -101 -46q-31 -27 -61 -84.5t-45 -99.5t-47 -143q-2 -6 -3 -8.5t-2.5 -7t-2.5 -8.5q-92 -295 -92 -369t45 -83q19 -4 19 -21q0 -10 -7 -16.5t-18 -4.5q-81 17 -81 126q0 84 94 381q63 194 90 251q37 79 83 119q25 21 63 38t62 17
q21 0 21 -20z" />
    <glyph glyph-name="parenright" unicode=")" horiz-adv-x="432" 
d="M-20 -68q0 18 17 21q60 11 101 46q31 27 61 84.5t45 99.5t47 143q5 16 8 24q92 295 92 369t-45 83q-19 4 -19 21q0 10 7 16.5t18 4.5q81 -17 81 -126q0 -84 -94 -381q-63 -194 -90 -251q-37 -79 -83 -119q-25 -21 -63 -38t-62 -17q-21 0 -21 20z" />
    <glyph glyph-name="asterisk" unicode="*" horiz-adv-x="292" 
d="M334 646q8 -1 14 -7.5t5 -14.5q0 -9 -6.5 -15t-15.5 -5l-32 2l21 -24q14 -16 -2 -30q-6 -6 -15 -5.5t-14 7.5l-22 24l-2 -32q0 -9 -6.5 -15t-15.5 -5q-9 0 -15 6.5t-5 15.5l2 32l-24 -21q-16 -14 -30 2t2 30l24 21l-32 2q-9 1 -15 7.5t-5 14.5q1 9 7.5 15t14.5 5l33 -2
l-22 24q-6 7 -5.5 16t7.5 14q16 14 30 -2l21 -24l2 33q1 8 7.5 14t14.5 5q9 0 15 -6.5t5 -15.5l-2 -32l25 21q6 6 15 5.5t14 -7.5q6 -6 5.5 -15t-7.5 -14l-24 -22z" />
    <glyph glyph-name="plus" unicode="+" horiz-adv-x="353" 
d="M291 356q8 0 13 -6t5 -15q0 -8 -5.5 -14.5t-12.5 -6.5h-100l-43 -114q-6 -17 -26 -10t-13 25l37 99h-85q-7 0 -12.5 6.5t-5.5 14.5q0 9 5 15t13 6h100l40 107q2 7 10 10t16 0t12 -10t2 -14l-35 -93h85z" />
    <glyph glyph-name="comma" unicode="," horiz-adv-x="243" 
d="M84 23q-2 -10 -5 -14l-36 -57q-7 -13 -20 -7q-14 5 -5 20l17 31q-22 9 -20 34q2 14 12.5 23t24.5 8q14 -2 23.5 -13t8.5 -25z" />
    <glyph glyph-name="hyphen" unicode="-" horiz-adv-x="370" 
d="M277 324q8 0 13 -6t5 -15q0 -8 -5.5 -14.5t-12.5 -6.5h-230q-7 0 -12.5 6.5t-5.5 14.5q0 9 5 15t13 6h230z" />
    <glyph glyph-name="period" unicode="." horiz-adv-x="243" 
d="M49 61q14 0 24.5 -10.5t10.5 -24.5t-10.5 -24t-24.5 -10t-24 10t-10 24t10 24.5t24 10.5z" />
    <glyph glyph-name="slash" unicode="/" horiz-adv-x="208" 
d="M305 733q20 -7 13 -27l-286 -814q-7 -20 -27 -13q-19 7 -12 27l286 814q6 20 26 13z" />
    <glyph glyph-name="zero" unicode="0" horiz-adv-x="498" 
d="M456 571q0 -119 -48 -249.5t-132 -222.5t-174 -92q-58 0 -88.5 47.5t-32.5 121.5q-2 109 41.5 237t123.5 224.5t168 99.5q67 4 104.5 -42.5t37.5 -123.5zM414 570q0 58 -25 91.5t-73 33.5q-73 0 -144 -91t-111.5 -212t-37.5 -215q3 -128 79 -128q79 1 153 88.5
t116.5 207.5t42.5 225z" />
    <glyph glyph-name="one" unicode="1" horiz-adv-x="340" 
d="M358 706q0 -8 -10 -35l-246 -649q-5 -14 -21 -14q-10 0 -16.5 9.5t-2.5 19.5l207 546q-60 -76 -110.5 -120.5t-95.5 -45.5q-30 0 -46.5 14.5t-16.5 37.5q0 20 7 38q6 14 21 14q3 0 9 -2q11 -5 11 -19q0 -5 -1 -8q-5 -13 -5 -21q0 -12 20 -12q21 1 49 21t48 41t57 63
q34 38 62.5 76t39.5 50.5t20 12.5q20 0 20 -17z" />
    <glyph glyph-name="two" unicode="2" horiz-adv-x="455" 
d="M433 598q0 -53 -30.5 -115.5t-81.5 -124t-105 -113.5t-114 -101q-26 -22 -79 -63q53 9 97 9q92 0 212 -35q16 -5 16 -20q0 -11 -8 -17t-19 -4q-128 34 -201 34q-31 0 -58 -3t-45.5 -7t-71.5 -16q-4 -1 -12 -1q-23 0 -23 17q0 14 17 26q62 41 148 113q56 45 107.5 94
t100.5 106.5t78.5 115.5t29.5 106q0 41 -30 64t-77 23q-49 0 -84.5 -34.5t-52.5 -89.5q-2 -8 -10 -12t-16 -2q-20 7 -15 27q21 68 68 110.5t109 42.5q67 0 108.5 -35.5t41.5 -94.5z" />
    <glyph glyph-name="three" unicode="3" horiz-adv-x="446" 
d="M409 588q0 -98 -103 -162q-30 -18 -74 -34q58 -13 93.5 -52t36.5 -96q0 -100 -72 -167.5t-171 -67.5q-76 1 -118 40.5t-42 107.5q0 48 37 88q6 6 14 6q9 0 15 -6t6 -15q0 -10 -7 -16q-23 -20 -23 -58q0 -102 118 -105q82 0 141 57.5t59 134.5q0 60 -46 87.5t-121 27.5
q-13 0 -21.5 7.5t-8.5 15.5q0 22 25 29q87 23 138 53q82 49 82 125q0 45 -32.5 71.5t-77.5 26.5q-42 0 -76 -26q-41 -32 -62 -98q-5 -19 -26 -14q-19 7 -14 27q24 78 77 118q43 35 100 35q68 0 110.5 -39.5t42.5 -100.5z" />
    <glyph glyph-name="four" unicode="4" horiz-adv-x="468" 
d="M455 725q20 -7 13 -27l-137 -396q18 3 27 9q8 5 16 3.5t13 -9.5q11 -17 -6 -29q-19 -13 -66 -18l-81 -234q-7 -20 -27 -13q-19 7 -12 27l74 216q-54 -2 -165.5 2t-127.5 4q-10 0 -15 5q-6 5 -6 14t6 15q99 106 161 198t117 216q10 19 28 10q20 -9 11 -28
q-54 -119 -110.5 -205.5t-143.5 -183.5q4 0 116.5 -4.5t143.5 0.5l144 415q7 20 27 13z" />
    <glyph glyph-name="five" unicode="5" horiz-adv-x="465" 
d="M496 715q9 -20 -9 -29q-77 -39 -156 -39q-53 0 -120 16q-7 1 -10 -4l-69 -195q84 48 159 48q56 0 83.5 -35.5t27.5 -94.5q-2 -120 -82 -235q-90 -131 -221 -137q-66 0 -104 34.5t-38 98.5q0 55 32 121q10 20 29 11q8 -4 11 -12.5t-1 -15.5q-29 -60 -29 -105t27.5 -67.5
t72.5 -22.5q108 6 187 119q73 107 73 211q0 88 -69 88q-35 1 -82 -17t-80 -42q-3 -2 -15 -11q-17 -14 -30 -7q-13 6 -13.5 15t6.5 25l4 11l81 229q11 33 20.5 38.5t29.5 -3.5q57 -19 120 -19q69 0 137 35q19 9 28 -9z" />
    <glyph glyph-name="six" unicode="6" horiz-adv-x="480" 
d="M480 641q5 -21 -15 -26q-8 -2 -16 2.5t-10 12.5q-10 37 -31 51t-59 14q-48 0 -97.5 -43t-85 -101.5t-62.5 -125.5q71 47 169 47q59 0 91.5 -45t32.5 -115q0 -111 -74.5 -206t-177.5 -100q-67 -2 -102.5 43.5t-35.5 121.5q0 63 10 108q-22 -31 -32 -49q-11 -18 -29 -7
t-7 29q39 68 91 121q29 92 74 172.5t108 136t126 55.5q49 0 84.5 -24.5t47.5 -71.5zM77 350q-27 -93 -27 -178q0 -124 95 -124q82 3 146 87t64 177q0 51 -21.5 84.5t-60.5 33.5q-116 0 -196 -80z" />
    <glyph glyph-name="seven" unicode="7" horiz-adv-x="443" 
d="M498 711q17 -13 3 -33q-15 -23 -137 -151q-69 -74 -117 -134h40q9 0 15 -6t6 -15t-6 -15t-15 -6h-72q-96 -123 -176 -327q-9 -19 -28 -12q-19 8 -12 28q30 78 78.5 170.5t85.5 140.5h-46q-8 0 -14.5 6t-6.5 15t6.5 15t14.5 6h77q54 72 140 163q13 14 44.5 47.5t48.5 51.5
q-23 -4 -51 -4q-24 0 -115.5 20t-101.5 20q-17 0 -71 -107q-4 -8 -12.5 -11t-15.5 1q-8 4 -11 12.5t1 15.5q5 9 15 28.5t15 28t14 23.5t15 22t14.5 15.5t17 11.5t18.5 3q35 0 107.5 -19.5t109.5 -20.5q56 -2 81 13q26 15 41 4z" />
    <glyph glyph-name="eight" unicode="8" horiz-adv-x="485" 
d="M458 612q0 -66 -56 -131.5t-113 -65.5q-9 0 -15 6t-6 15q0 18 17 21q51 9 90.5 54.5t39.5 100.5q0 83 -117 83q-71 0 -122 -43.5t-51 -109.5q0 -34 17.5 -60.5t34.5 -38.5t53 -32q71 -41 106.5 -82.5t35.5 -104.5q-1 -92 -82.5 -154t-187.5 -62q-70 0 -111 38t-41 102
q0 172 203 260q-70 51 -70 131q0 86 63 142t152 56q72 0 116 -32.5t44 -92.5zM198 381q-206 -80 -206 -233q0 -47 29.5 -72.5t80.5 -25.5q90 0 158.5 50.5t69.5 124.5q0 52 -31 83.5t-101 72.5z" />
    <glyph glyph-name="nine" unicode="9" horiz-adv-x="491" 
d="M479 502q0 -6 -3 -11q-41 -68 -91 -120q-131 -364 -325 -364q-50 0 -83 29.5t-33 72.5q0 9 6.5 14.5t15.5 5.5q18 0 20 -20q1 -30 22.5 -45t51.5 -15q81 3 147.5 79t113.5 190q-71 -47 -146 -47q-71 0 -109 41.5t-38 115.5q0 115 77 212t175 97q130 0 137 -165
q2 -51 -9 -108q12 17 32 49q6 10 18 10q8 0 14.5 -6t6.5 -15zM347 393q30 99 28 178q-2 60 -24 92t-71 32q-81 0 -145.5 -86t-64.5 -182q0 -114 105 -114q78 0 172 80z" />
    <glyph glyph-name="colon" unicode=":" horiz-adv-x="256" 
d="M102 215q14 0 24.5 -10.5t10.5 -24.5t-10.5 -24t-24.5 -10t-24 10t-10 24t10 24.5t24 10.5zM64 69q14 0 24.5 -10.5t10.5 -24.5t-10.5 -24t-24.5 -10t-24 10t-10 24t10 24.5t24 10.5z" />
    <glyph glyph-name="semicolon" unicode=";" horiz-adv-x="299" 
d="M156 246q14 0 24.5 -10.5t10.5 -24.5t-10.5 -24t-24.5 -10t-24 10t-10 24t10 24.5t24 10.5zM99 61q28 0 34 -33q7 -39 -21 -66q-21 -20 -52 -18q-21 1 -21 9t14 6q33 -3 41 26q3 7 -4 8q-26 7 -26 33q0 14 10.5 24.5t24.5 10.5z" />
    <glyph glyph-name="less" unicode="&#x3c;" horiz-adv-x="489" 
d="M454 430q7 -20 -12 -27l-278 -104l208 -93q8 -3 11.5 -11.5t-0.5 -16.5q-9 -19 -28 -10l-255 113q-9 4 -12 12q-7 20 13 27l326 123q20 7 27 -13z" />
    <glyph glyph-name="equal" unicode="=" horiz-adv-x="402" 
d="M331 391q7 0 12.5 -6.5t5.5 -15.5q0 -8 -5.5 -14.5t-12.5 -6.5h-230q-7 0 -12.5 6.5t-5.5 14.5q0 9 5.5 15.5t12.5 6.5h230zM283 258q8 0 13 -6t5 -15t-5 -15t-13 -6h-230q-8 0 -13 6t-5 15t5 15t13 6h230z" />
    <glyph glyph-name="greater" unicode="&#x3e;" horiz-adv-x="495" 
d="M88 180q-7 20 12 27l278 104l-208 93q-8 3 -11.5 11.5t0.5 16.5q9 19 28 10l255 -113q9 -4 12 -12q7 -20 -13 -27l-326 -123q-20 -7 -27 13z" />
    <glyph glyph-name="question" unicode="?" horiz-adv-x="472" 
d="M515 569q0 -45 -13 -81t-41.5 -65.5t-51 -47t-62.5 -43.5q-54 -34 -79.5 -56.5t-44.5 -59.5q-24 -46 -28 -96q-1 -9 -8 -14.5t-16 -4.5q-8 1 -13.5 8t-4.5 15q7 61 32 111q21 42 53 70.5t86 62.5q36 23 55.5 38t44.5 40t36.5 55t11.5 66q0 62 -39 94.5t-110 32.5
q-65 0 -105.5 -41t-40.5 -103q0 -25 7 -49q7 -20 -13 -26q-20 -7 -26 13q-11 33 -11 62q0 79 54 132.5t134 53.5q93 0 143 -42.5t50 -124.5zM159 47q14 0 24.5 -10t10.5 -24q-1 -15 -11 -25t-24 -9q-14 0 -24 10t-10 24t10 24t24 10z" />
    <glyph glyph-name="at" unicode="@" horiz-adv-x="727" 
d="M690 361q2 -61 -23.5 -126t-73.5 -111.5t-104 -46.5q-65 0 -76 53q-40 -48 -86 -48q-63 0 -63 87q1 50 22.5 110t60.5 105.5t81 45.5q37 0 63 -31q2 7 8 21q7 18 27 11q19 -7 12 -27q-8 -22 -18.5 -51t-23.5 -64t-19 -52q-23 -65 -23 -90q0 -15 8 -21t28 -6
q65 0 111.5 80t46.5 161q-2 80 -53.5 122t-135.5 40q-80 -1 -151 -49t-112 -123.5t-41 -154.5q-1 -90 50.5 -143t137.5 -53q58 0 115 21q20 7 27 -12q7 -20 -12 -27q-66 -24 -130 -24q-105 0 -168 65.5t-62 173.5q0 91 47.5 176t128 138t169.5 54q105 2 167.5 -53t64.5 -151
zM451 297l16 40q0 51 -39 51q-42 0 -81 -81t-41 -139q0 -44 22 -44q19 0 37 15.5t35 46.5t27 53t24 58z" />
    <glyph glyph-name="A" unicode="A" horiz-adv-x="765" 
d="M747 388q-34 -97 -44 -120q-108 -294 -108 -344q0 -47 16 -69t51 -22q8 0 14.5 -6.5t6.5 -15.5q0 -8 -6.5 -14.5t-14.5 -6.5q-110 3 -110 134q0 58 112 358l4 11h-212q-28 -49 -51 -84.5t-55 -77.5t-61 -68.5t-65.5 -44.5t-71.5 -18q-64 0 -108 38t-44 99q0 66 47 115.5
t107 49.5q25 0 46 -10q12 -6 12 -19q0 -8 -6 -14.5t-15 -6.5q-1 0 -14.5 4t-22.5 4q-43 0 -77.5 -38t-34.5 -85q0 -42 32 -68t78 -26q36 0 71.5 21t70 63t58 77t55.5 89h-49q-9 0 -15.5 6.5t-6.5 14.5q0 9 6.5 15.5t15.5 6.5h74q14 25 39 70.5t34 61.5q91 169 125 213
q49 59 103 59q80 0 80 -93q0 -73 -66 -259zM707 403q65 181 65 239q0 55 -39 55q-17 0 -36.5 -12.5t-32.5 -29.5q-33 -43 -122 -207q-5 -8 -27.5 -49t-34.5 -63h203z" />
    <glyph glyph-name="B" unicode="B" horiz-adv-x="794" 
d="M758 530q0 -53 -30 -104t-78 -83l18 -21q50 -63 50 -154q0 -98 -62 -164t-158 -66q-77 0 -125 35t-48 95q0 46 31 77.5t72 31.5q67 0 98 -80q4 -10 -2 -19t-18 -9q-15 0 -20 14q-8 24 -24 38t-33 14q-25 0 -43.5 -20t-18.5 -47q0 -44 38 -66t93 -22q81 0 129 54.5
t48 135.5q0 45 -17.5 86.5t-48.5 66.5q-42 -17 -88 -17q-39 0 -60 10.5t-21 40.5q0 49 52 49q71 0 122 -35q46 24 74 69.5t28 91.5q2 73 -50.5 119t-130.5 46q-139 0 -210.5 -87.5t-76.5 -246.5q0 -10 -7 -15.5t-15 -5.5t-14.5 6t-6.5 15q0 169 86.5 272.5t244.5 103.5
q96 0 160 -58t62 -151zM491 582q-26 -50 -72 -198q-16 -54 -25 -81.5t-26.5 -76t-31.5 -74t-36.5 -59.5t-45 -51t-53 -29.5t-65.5 -12.5q-63 0 -104.5 37t-41.5 97q0 65 44 115t100 50q19 0 29 -4q15 -7 15 -20q0 -11 -8.5 -17.5t-18.5 -3.5q-5 2 -16 2q-40 0 -71.5 -37.5
t-31.5 -82.5t29.5 -69.5t73.5 -24.5q40 0 74 22t56.5 52.5t44.5 80.5t35 89t30 96q3 9 4 14q44 147 74 206q16 30 44 53t51 23q18 0 21 -18q0 -20 -17 -24q-17 -3 -34.5 -19t-26.5 -35zM526 348q11 0 31 4q-7 3 -30.5 7.5t-30.5 4.5q-14 0 -14 -8t44 -8z" />
    <glyph glyph-name="C" unicode="C" horiz-adv-x="593" 
d="M637 239q19 -9 12 -28q-57 -137 -135 -208t-190 -71q-96 0 -147 55t-51 150q0 74 42 205q-78 18 -123 69t-45 126q0 107 72 195q6 7 16 7q9 0 15 -6t6 -15t-5 -14q-27 -30 -44.5 -77t-17.5 -88q0 -64 38 -103.5t103 -53.5q23 64 53.5 124t70 114t89 86t100.5 31
q60 -1 92 -40t32 -100q0 -80 -57 -142.5t-139 -92.5t-170 -30q-18 0 -44 3q-42 -135 -42 -198q0 -79 41 -121t115 -42q99 0 167 63.5t119 189.5q3 8 11 11.5t16 0.5zM225 375q8 -1 26 -1q77 0 150.5 25.5t125 78t51.5 119.5q0 44 -21 71t-61 27q-42 0 -85 -31t-78 -80.5
t-62 -102.5t-46 -106z" />
    <glyph glyph-name="D" unicode="D" horiz-adv-x="833" 
d="M799 406q0 -81 -20.5 -163.5t-58 -152.5t-98 -114t-131.5 -44q-73 0 -119.5 35.5t-46.5 95.5q0 48 30.5 79t72.5 31q34 0 59.5 -21.5t37.5 -58.5q3 -10 -3 -19t-16 -9q-15 0 -20 14q-20 52 -58 52q-25 0 -43 -20t-18 -48q0 -43 36.5 -66t87.5 -23q62 0 114.5 41.5
t84.5 107t49.5 139.5t17.5 144q0 131 -54 208t-168 83q-133 0 -209.5 -93t-78.5 -241q0 -9 -6 -15t-15 -6q-8 0 -14.5 6t-6.5 15q2 167 91 271.5t239 104.5q134 -6 199 -95.5t65 -237.5zM501 582q-26 -50 -72 -198q-16 -53 -24.5 -79.5t-26.5 -74.5t-31.5 -74t-36.5 -61
t-45.5 -52.5t-53 -30.5t-65.5 -13q-63 0 -104.5 37.5t-41.5 97.5q0 65 43.5 115t100.5 50q16 0 29 -4q15 -5 15 -20q0 -10 -8 -16.5t-19 -4.5q-10 2 -16 2q-40 0 -71.5 -37.5t-31.5 -82.5t29.5 -70t73.5 -25q48 0 86 27t69 91t44.5 100t39.5 122q3 10 5 15q44 147 74 206
q32 61 91 76q22 5 25 -18q0 -20 -17 -24q-17 -3 -34.5 -19t-26.5 -35z" />
    <glyph glyph-name="E" unicode="E" horiz-adv-x="476" 
d="M521 239q13 -7 13 -20q0 -2 -2 -8q-55 -135 -133.5 -203t-190.5 -68q-92 0 -150 54t-58 144q0 94 49.5 162.5t133.5 104.5q-43 46 -43 99q0 23 9 59q-91 41 -140 145q-2 6 -2 10q0 12 12 18q6 2 9 2q13 0 19 -12q22 -46 46.5 -71t69.5 -53q30 64 90 101.5t132 37.5
q48 0 78.5 -21.5t30.5 -58.5q-1 -37 -33.5 -67.5t-80.5 -46t-97 -15.5q-44 0 -95 15q-5 -18 -5 -42q0 -45 44 -84q54 14 87 14q24 0 42.5 -12t18.5 -32q0 -24 -16.5 -37.5t-42.5 -13.5q-46 0 -97 34q-81 -29 -129 -93.5t-48 -142.5q0 -74 46.5 -115t119.5 -41q99 0 166.5 61
t118.5 184q3 8 11.5 11.5t16.5 0.5zM202 587q39 -12 81 -12q58 0 112.5 25t56.5 61q0 18 -19.5 28t-47.5 10q-59 0 -109 -31.5t-74 -80.5zM280 389q22 -9 44 -7q3 0 5.5 1t3.5 2t0 2q0 6 -17 6q-12 0 -36 -4z" />
    <glyph glyph-name="F" unicode="F" horiz-adv-x="632" 
d="M833 680q0 -32 -32 -51t-75 -19q-64 0 -138 12q-38 -62 -99 -247l-12 -39h89q9 0 15 -6.5t6 -15.5q0 -8 -6 -14.5t-15 -6.5h-103q-66 -184 -97 -238q-47 -82 -120 -102q-32 -8 -73 -8q-82 0 -128.5 51t-44.5 129q4 89 67.5 149.5t148.5 62.5q9 0 15 -6.5t6 -14.5
q0 -9 -6 -15.5t-15 -6.5q-68 0 -121 -50.5t-53 -119.5q0 -61 34.5 -99t96.5 -38q91 0 131 53.5t101 218.5q3 7 4.5 11t4 10.5t4.5 12.5h-58q-9 0 -15 6.5t-6 14.5q0 9 6 15.5t15 6.5h72l17 52q59 185 95 243q-26 6 -110 30q-135 39 -202 39q-50 0 -90.5 -41.5t-40.5 -92.5
q0 -52 31.5 -78.5t84.5 -26.5q43 0 91 21q6 2 10 2q10 0 15 -7t5 -14q0 -13 -12 -19q-55 -25 -110 -25q-72 0 -114.5 40t-42.5 106q0 72 53 124.5t120 52.5q78 0 214 -41q84 -24 126 -33q65 70 169 73q40 0 66 -16t26 -45zM790 681q0 8 -16 13t-33 5q-57 -1 -116 -40
q56 -7 101 -7q25 0 44.5 8t19.5 21z" />
    <glyph glyph-name="G" unicode="G" horiz-adv-x="703" 
d="M748 237q13 -7 13 -19q0 -3 -2 -9q-48 -114 -116.5 -182.5t-174.5 -99.5q-73 -207 -182 -209q-45 -1 -72 26t-27 71q0 100 169 131q45 7 79 16l53 151q-102 -135 -215 -135q-73 2 -110 43.5t-37 115.5q0 77 42 205q-78 18 -123 69t-45 126q0 56 24 115q17 42 48 80
q6 7 16 7q7 0 14 -5q7 -6 7 -16q0 -9 -5 -14q-25 -28 -41 -68q-21 -50 -21 -97q0 -64 38 -103.5t103 -53.5q58 166 135.5 262t160.5 96q64 0 102.5 -39t38.5 -104q-3 -81 -58 -142.5t-136 -92t-172 -30.5q-18 0 -44 3q-42 -122 -42 -198q0 -112 105 -117q100 0 195 139
q72 102 136 271l10 27q5 15 20 15q12 0 18 -9t2 -19l-74 -197q-7 -21 -25 -70t-28 -79l-42 -121q151 51 235 249q6 13 19 13q3 0 9 -2zM225 375q77 -10 159 16.5t138 82.5t56 123q0 46 -27.5 73.5t-71.5 27.5q-69 0 -134.5 -86t-119.5 -237zM419 -85q-42 -9 -55 -11
q-69 -12 -100.5 -32.5t-34.5 -55.5q0 -26 15.5 -41.5t41.5 -14.5q83 2 133 155z" />
    <glyph glyph-name="H" unicode="H" horiz-adv-x="811" 
d="M884 717q12 0 18 -9t2 -19l-52 -148q-106 -304 -108 -309q-54 -148 -74.5 -211.5t-21.5 -99.5q-2 -40 15 -64t53 -24q8 0 14.5 -6.5t6.5 -15.5q-1 -9 -7 -15t-15 -6q-55 1 -82 37t-27 94q0 42 23 115t75 210l17 47h-258q-5 -14 -13 -40q-12 -38 -19.5 -59t-20.5 -55
t-24 -53t-27.5 -45t-34.5 -40.5t-40.5 -29t-50.5 -20.5t-60 -6q-82 0 -127.5 50.5t-45.5 129.5q0 88 65 149t151 63q9 0 15 -6.5t6 -14.5q0 -9 -6 -15.5t-15 -6.5q-69 0 -121.5 -49.5t-52.5 -120.5q0 -61 34.5 -99t97.5 -38q30 0 56 9t45 21t37.5 36t30 43t25.5 53.5
t21 55.5t20 61q1 3 3 8.5t3.5 10t2.5 8.5h-42q-9 0 -15 6.5t-6 14.5q0 9 6 15.5t15 6.5h56l17 52q54 168 90 234l3 6q-37 9 -119 33q-125 39 -191 39q-50 0 -90.5 -41t-40.5 -91q0 -54 31.5 -80.5t84.5 -26.5q43 0 91 21q6 2 10 2q10 0 15 -7t5 -14q0 -13 -12 -19
q-55 -25 -110 -25q-72 0 -114.5 40t-42.5 106q0 72 53 124.5t120 52.5q74 0 204 -40q85 -27 134 -36q32 30 64 48q4 3 10 3q10 0 15.5 -7t5.5 -14q0 -13 -12 -19q-56 -31 -77 -75q-34 -63 -87 -227l-12 -39h259q61 175 77 219q50 144 52 149q5 13 19 13z" />
    <glyph glyph-name="I" unicode="I" horiz-adv-x="544" 
d="M713 722q0 -33 -42 -60.5t-101 -43.5q-38 -115 -62 -203q-12 -43 -20 -69.5t-22 -70t-25.5 -71.5t-29.5 -66t-35 -62t-40.5 -50.5t-48 -41.5t-55 -25t-63.5 -10q-74 0 -121.5 52t-47.5 132q0 84 69 146.5t152 60.5q9 0 15 -6.5t6 -15.5q0 -8 -6.5 -14t-15.5 -6
q-70 0 -124 -50.5t-54 -115.5q-1 -61 35.5 -101t92.5 -40q40 0 75.5 17.5t63.5 52t49.5 71.5t42 91t33 94t29.5 96l1.5 4.5t1 4.5t1.5 5q6 21 19 63t24 77.5t12 38.5l-29 -6q-118 -27 -157 -48q-59 -30 -59 -78q-1 -39 22 -64.5t57 -25.5q8 0 14.5 -6.5t5.5 -15.5
q0 -8 -6.5 -14t-14.5 -6q-52 0 -87.5 38.5t-33.5 94.5q1 20 5 37t14 30.5t19 24t27 19.5t29.5 14.5t36 12t37 9.5t41.5 9.5t41 9.5l54 12q19 50 50 86.5t66 36.5q26 0 42.5 -15t16.5 -39zM590 668q30 6 54 23.5t24 30.5q0 14 -14 14q-16 0 -33.5 -20t-30.5 -48z" />
    <glyph glyph-name="J" unicode="J" horiz-adv-x="521" 
d="M484 657q19 49 49 84t65 35q26 0 42.5 -15t16.5 -39q0 -33 -42 -60.5t-101 -43.5q-28 -94 -101 -314t-111 -327q76 22 136 89t100 160q5 13 19 13q11 0 17.5 -9.5t2.5 -20.5q-50 -114 -118.5 -183.5t-173.5 -98.5l-12 -36q-16 -44 -28 -70t-30 -52.5t-41.5 -38.5
t-54.5 -13q-54 0 -86 26t-33 72q0 29 10 50t22.5 33.5t40 22.5t45.5 14t56 11q43 7 78 16q66 188 141 413t75 236q-18 -3 -64 -10q-44 -7 -67 -11t-65 -13.5t-65.5 -21t-49.5 -28t-38 -39.5t-12 -51q-2 -38 18.5 -62t60.5 -28q9 0 14.5 -6.5t5.5 -15.5q0 -8 -6.5 -14
t-14.5 -6q-53 0 -87.5 39t-32.5 95q0 31 11.5 57.5t28 44.5t46 33.5t53.5 25t64 18.5t63.5 13t65.5 11q60 10 87 15zM534 668q30 6 54 23.5t24 30.5q0 14 -14 14q-16 0 -33.5 -20t-30.5 -48zM233 -95l3 10q-42 -9 -55 -11q-84 -15 -107 -29q-32 -19 -32 -59q0 -57 76 -57
q18 1 33.5 9t25.5 19t21.5 33t17.5 38t17 47z" />
    <glyph glyph-name="K" unicode="K" horiz-adv-x="806" 
d="M1036 754q0 -16 -15 -21q-29 -9 -63.5 -39.5t-56 -56.5t-64.5 -80q-36 -45 -54.5 -67.5t-51 -57.5t-63 -57t-62.5 -36q76 -47 76 -202q0 -48 -11 -140q-7 -54 -7 -76q0 -88 68 -88q8 0 14.5 -6.5t6.5 -15.5q0 -8 -6.5 -14.5t-14.5 -6.5q-54 0 -82 34.5t-28 96.5
q0 21 7 81q10 80 11 135q0 93 -30 137.5t-94 45.5q-9 0 -15 6t-6 15q0 8 6 14.5t15 6.5q41 0 79.5 17.5t78 55.5t64 66.5t66.5 81.5q149 191 211 191q9 0 15 -5.5t6 -14.5zM576 602q-34 -63 -87 -227q-12 -35 -21.5 -65.5t-13 -42.5t-4.5 -14q-14 -44 -22.5 -67.5t-24 -61.5
t-29 -59.5t-34.5 -47.5t-44 -39.5t-54.5 -23t-68.5 -9.5q-82 0 -128.5 51t-44.5 129q4 89 67.5 149.5t148.5 62.5q9 0 15 -6.5t6 -14.5q0 -9 -6 -15.5t-15 -6.5q-68 0 -119 -49t-55 -121q0 -62 35 -99.5t97 -37.5q30 0 56 8.5t45 21t37 36t30 43t25.5 53.5t21 56t20.5 61
l40 122q54 168 90 234l3 6q-37 9 -119 33q-125 39 -191 39q-50 0 -90.5 -41.5t-40.5 -94.5q0 -51 31.5 -77t84.5 -26q43 0 91 21q6 2 10 2q10 0 15 -7t5 -14q0 -13 -12 -19q-55 -25 -110 -25q-72 0 -114.5 39.5t-42.5 105.5q0 72 53 125t120 53q74 0 204 -40q85 -27 134 -36
q32 30 64 48q4 3 10 3q13 0 19 -12q2 -6 2 -9q0 -13 -12 -19q-53 -29 -77 -75z" />
    <glyph glyph-name="L" unicode="L" horiz-adv-x="508" 
d="M433 655q19 50 50 86.5t66 36.5q26 0 42.5 -15t16.5 -39q0 -33 -42 -60.5t-101 -43.5q-29 -73 -66 -199q-51 -162 -74 -219q-23 -55 -47 -93q2 -2 82 -79l12 -12q40 -41 62.5 -61.5t58.5 -49t67.5 -41.5t62.5 -13q38 0 69 14.5t43 40.5q5 13 19 13q10 0 15.5 -7.5
t5.5 -14.5q0 -2 -2 -8q-18 -40 -60 -60.5t-91 -20.5q-38 0 -75 15t-81 50.5t-65.5 55.5t-70.5 69q-75 72 -76 73q-6 -8 -9 -11q-57 -67 -141 -67q-104 8 -104 96q3 51 34 80.5t76 29.5q59 0 136 -65q20 33 40 82q26 67 72 216q34 111 58 177q-17 -3 -61 -10
q-54 -8 -82.5 -13.5t-73.5 -18t-69.5 -26.5t-45.5 -38.5t-25 -55.5q-1 -4 -1 -12q-2 -34 17 -59q19 -26 52 -30l10 -1q9 0 15 -6.5t5 -15.5q0 -8 -6.5 -14t-15.5 -6q-10 0 -14 1q-51 7 -80 47q-27 34 -25 86q0 11 1 16q4 29 17.5 53t29.5 40.5t45 31t51 23t61 17t61.5 12
t65.5 10.5zM485 670q30 6 54 23.5t24 30.5q0 14 -14 14q-15 0 -33 -20t-31 -48zM213 89q6 8 10 12q-72 58 -114 58q-27 0 -46.5 -18.5t-20.5 -49.5q0 -54 62 -54q64 0 109 52z" />
    <glyph glyph-name="M" unicode="M" horiz-adv-x="1062" 
d="M1102 607q0 -12 -0.5 -24t-3 -26.5t-5 -25.5t-7.5 -28.5t-8.5 -28t-11 -32.5t-11 -32t-13 -36t-13.5 -37q-134 -365 -134 -428q0 -33 20 -51.5t50 -18.5q8 0 14 -5.5t6 -13.5t-6 -14t-14 -6q-51 0 -80.5 30.5t-29.5 78.5q0 12 3 29.5t9.5 42t13 48t17.5 56t19 56.5
t20.5 59t19.5 54.5t19 53t16 43.5t14.5 39.5t14 39t11.5 33t11 33.5t8 28.5t7 30t3.5 25.5t1.5 27q0 93 -90 93q-50 0 -103 -47.5t-95 -113.5q-74 -246 -169 -519q-5 -14 -20 -14q-12 0 -17.5 9t-2.5 19q92 259 162 494q15 51 15 87q0 41 -15.5 66.5t-47.5 25.5
q-24 0 -53 -18t-54 -41.5t-57.5 -64t-52 -68t-49.5 -70.5l-75 -230q-42 -129 -70 -173.5t-76 -44.5q-26 0 -39.5 17.5t-13.5 45.5q1 74 142 258q4 6 48 74.5t46 71.5l78 238q-106 -77 -153 -101q-80 -40 -150 -40q-71 0 -114 44t-36 115q1 7 7 12.5t14 5.5q9 0 15 -7t6 -16
q0 -55 28.5 -83.5t79.5 -28.5q43 0 98 24t90.5 47.5t92.5 64.5q10 7 27 19t23 16q5 4 12 4q13 0 18 -9.5t2 -18.5l-56 -172q71 90 119 130.5t105 40.5q47 0 75 -37t28 -91q97 118 188 118q129 0 129 -132zM299 228l25 77q-2 -4 -7 -11q-21 -31 -48 -70t-39 -56.5t-25 -39.5
t-18 -38t-5 -34q0 -16 11 -16q29 0 50 39t56 149z" />
    <glyph glyph-name="N" unicode="N" horiz-adv-x="767" 
d="M1 720q1 19 19 19q8 0 14 -5.5t6 -14.5q0 -116 117 -116q41 0 100.5 28t87.5 47t87 61q24 19 50 36q4 3 11 3q11 0 16 -8q6 -9 3 -18l-58 -177q64 82 115.5 123t112.5 41q122 0 122 -126q1 -46 -14.5 -107.5t-57.5 -184.5q-10 -31 -48.5 -139t-58 -169.5t-19.5 -82.5
q0 -46 16.5 -67.5t51.5 -23.5q8 0 14 -5.5t6 -13.5t-6 -14t-14 -6q-53 0 -80.5 34t-27.5 96q0 15 7 42t20.5 69t27 81.5t35.5 102t38 109.5q71 212 71 279q-2 86 -83 86q-35 0 -70.5 -21t-72.5 -63t-63.5 -77t-63.5 -91q-17 -51 -44 -137q-63 -198 -92.5 -254t-84.5 -56
q-51 0 -51 61q0 21 10 48.5t29.5 60t33 53.5t36.5 52.5t24 33.5l103 156l79 242q-61 -44 -95.5 -66.5t-95.5 -49.5t-107 -27q-73 0 -118 43.5t-38 112.5zM327 315q-2 -4 -22 -30q-124 -167 -126 -225q0 -20 13 -20q33 0 56.5 48.5t78.5 226.5z" />
    <glyph glyph-name="O" unicode="O" horiz-adv-x="735" 
d="M791 208q-61 -146 -152 -146q-47 0 -75 28q-50 -63 -102 -96t-116 -33q-83 0 -124 55.5t-41 151.5q0 64 17 143t44 141q-27 -4 -58 -4q-84 0 -134 38.5t-50 105.5q0 64 55 119q6 6 14 6q9 0 16 -7q6 -6 6 -14q0 -9 -6 -15q-43 -43 -43 -89q0 -49 40 -75.5t102 -26.5
q37 0 80 8q100 196 224 196q49 0 49 -43q0 -58 -79 -114t-165 -76q-70 -143 -70 -293q0 -165 123 -165q55 0 105.5 35t87.5 90q-18 48 -1 94q5 16 21 16q10 0 16 -8.5t4 -18.5q-3 -9 -5 -29q50 86 81 187t31 188q0 157 -106 157q-23 0 -54 -7q-11 -3 -19 3t-8 15q0 18 17 23
q29 8 60 8q79 0 115.5 -54t36.5 -146q0 -100 -40 -221t-100 -210q17 -21 48 -21q36 0 63 30t53 91q5 13 19 13q10 0 17 -9.5t3 -20.5zM320 513q65 24 119.5 60t54.5 66q0 13 -13 13q-75 0 -161 -139z" />
    <glyph glyph-name="P" unicode="P" horiz-adv-x="731" 
d="M778 558q0 -110 -66.5 -192t-169.5 -82q-44 0 -93 19q-14 5 -14 20q0 9 6 14.5t14 5.5q5 0 8 -1q45 -16 82 -16q82 0 136.5 71.5t54.5 160.5q0 79 -55 121.5t-146 42.5q-125 0 -197 -95.5t-72 -238.5q0 -8 -6 -14.5t-15 -6.5t-15 6.5t-6 14.5q0 165 85.5 271t235.5 106
q102 0 167.5 -57.5t65.5 -149.5zM519 608q-30 -59 -77 -224q-56 -190 -87 -259q-83 -186 -211 -186q-62 0 -103 38.5t-41 98.5q0 66 43.5 115t102.5 49q42 0 42 -24q0 -10 -8.5 -16.5t-18.5 -3.5q-5 2 -17 2q-40 0 -71 -37.5t-31 -82.5q0 -44 29.5 -70.5t73.5 -26.5
q28 0 53.5 12.5t44.5 30t39 53t33 63t31 79.5t27.5 83.5t27.5 92.5q53 177 81 232q14 30 42.5 53t51.5 23q20 0 22 -17q3 -20 -18 -25q-33 -4 -61 -53z" />
    <glyph glyph-name="Q" unicode="Q" horiz-adv-x="707" 
d="M958 -120q0 -3 -2 -9q-17 -38 -59.5 -59.5t-91.5 -21.5q-30 0 -59.5 10t-51.5 22.5t-50.5 37t-44 40.5t-43.5 46q-45 47 -67 67q-66 -52 -143 -52q-84 0 -124.5 55.5t-40.5 151.5q0 64 17 143t44 141q-27 -4 -58 -4q-82 0 -133 38.5t-51 105.5q0 64 55 119q6 6 14 6
q9 0 16 -7q6 -6 6 -14q0 -9 -6 -15q-43 -43 -43 -89q0 -49 40.5 -75.5t101.5 -26.5q37 0 80 8q100 196 224 196q49 0 49 -43q0 -59 -79 -114.5t-165 -75.5q-70 -143 -70 -293q0 -165 123 -165q56 0 109 37q-40 27 -76 26q-20 0 -42 -17q-6 -6 -15 -6q-8 0 -14.5 6.5
t-6.5 14.5q0 9 7 16q35 28 70 28q54 3 110 -40l9 9q78 81 133.5 222.5t55.5 257.5q0 157 -106 157q-11 0 -32 -4t-27 -4q-10 0 -16 6t-6 12q0 32 77 32q78 0 115 -54t37 -146q0 -125 -59 -274t-142 -235l-6 -6q28 -25 65 -66q35 -36 52 -53t48.5 -42.5t60 -36t59.5 -10.5
q35 0 67.5 15t44.5 40q6 13 19 13q8 0 14.5 -6.5t6.5 -14.5zM320 513q64 24 119.5 62t55.5 67q0 10 -14 10q-73 0 -161 -139z" />
    <glyph glyph-name="R" unicode="R" horiz-adv-x="725" 
d="M759 532q-3 -80 -57.5 -139.5t-140.5 -83.5q67 -48 67 -178q0 -37 -8.5 -119.5t-8.5 -90.5q1 -46 17.5 -67t50.5 -21q23 0 23 -20q0 -10 -6.5 -16.5t-16.5 -6.5q-54 0 -82 35t-28 96q0 20 8.5 95.5t8.5 113.5q0 163 -125 164q-11 0 -17.5 6.5t-6.5 14.5q0 21 24 21
q105 4 178.5 57.5t77.5 138.5q2 78 -52.5 122t-140.5 42q-131 -2 -204 -94.5t-73 -238.5q0 -9 -6 -15t-15 -6q-8 0 -14.5 6t-6.5 15q0 164 86 270t233 106q107 0 173 -58t62 -149zM530 619q-7 -6 -13.5 -14t-13.5 -20t-12 -22t-11.5 -27t-10.5 -27.5t-11 -31.5l-10 -30
t-10 -32.5t-9 -30.5q-11 -37 -17 -55t-17.5 -54t-19.5 -54.5t-21.5 -49.5t-25 -48t-27 -40.5t-32 -36t-35.5 -25t-41.5 -18t-46.5 -5.5q-63 0 -104.5 37.5t-41.5 98.5q0 65 43.5 115t100.5 50q44 0 44 -24q0 -11 -7.5 -17.5t-18.5 -3.5q-10 2 -17 2q-41 0 -72 -38t-31 -84
q0 -43 30 -68.5t73 -25.5q39 0 73 23t55.5 50.5t46 83.5t34.5 87t30 96q2 5 3 8.5t2 7.5q23 77 33 108.5t32.5 78t47.5 69.5q29 26 54 26q23 0 23 -18q0 -20 -18 -24q-16 -3 -31 -17z" />
    <glyph glyph-name="S" unicode="S" horiz-adv-x="552" 
d="M508 674q-2 -45 -33.5 -79.5t-86.5 -51.5q11 -40 45 -114q20 -45 31 -71t21.5 -67.5t10.5 -77.5q0 -116 -76.5 -189.5t-191.5 -73.5q-99 0 -163.5 61.5t-64.5 153.5q0 89 60.5 153.5t141.5 64.5q61 0 100.5 -42.5t39.5 -101.5q0 -10 -2 -18q-4 -15 -19 -15
q-10 0 -16.5 6.5t-5.5 16.5q5 45 -23 78.5t-74 33.5q-65 0 -112.5 -53.5t-47.5 -125.5q0 -74 54 -122t135 -48q98 0 160.5 63t62.5 158q0 32 -10 70t-19.5 62t-29.5 67q-36 80 -48 123q-30 -2 -49 -2q-201 0 -286 175q-2 6 -2 10q0 10 7 15t14 5q13 0 19 -12
q73 -151 246 -151q17 0 43 2q-2 18 -2 26q0 56 30.5 100.5t78.5 44.5q31 0 47.5 -21t14.5 -53zM466 674q0 32 -24 32q-29 0 -45.5 -32t-16.5 -70q0 -13 1 -19q85 32 85 89z" />
    <glyph glyph-name="T" unicode="T" horiz-adv-x="619" 
d="M911 703q-3 -60 -119 -60q-69 0 -174 20q-17 -17 -31 -39q-38 -65 -98 -255q-22 -73 -36 -116.5t-33.5 -95.5t-36 -81t-39 -59.5t-47 -45t-55.5 -24t-69 -8.5q-76 0 -124.5 51t-48.5 129q0 87 66 149.5t150 62.5q9 0 15 -6t6 -15t-6 -15t-15 -6q-67 0 -120.5 -51.5
t-53.5 -118.5q0 -62 37.5 -100t93.5 -38q31 0 58 9t47 22.5t39 40.5t31.5 48.5t27.5 62t24 66.5t24.5 75.5t24.5 76.5q58 187 102 263l18 27q-26 6 -94 25.5t-128 32t-110 12.5q-77 0 -120.5 -35.5t-43.5 -99.5q1 -51 32 -77.5t84 -26.5q44 0 91 21q6 2 10 2q10 0 15 -7
t5 -14q0 -13 -12 -19q-55 -25 -110 -25q-71 0 -114 39.5t-43 106.5q0 84 55 131t153 47q63 0 202 -36t164 -41q36 30 86.5 47t98.5 17t84.5 -18.5t36.5 -50.5zM792 685q76 0 76 19q0 10 -27 18t-52 8q-67 0 -124 -32q78 -13 127 -13z" />
    <glyph glyph-name="U" unicode="U" horiz-adv-x="776" 
d="M418 657q19 50 49.5 85.5t65.5 35.5q26 0 42.5 -15t16.5 -39q0 -33 -42 -60.5t-101 -43.5q-43 -105 -96 -288t-53 -227q0 -90 68 -90h1q33 0 63 14t57 45t49 66t47.5 91.5t45 106t46.5 125.5q9 25 44 120t55 149q5 14 20 14q20 0 20 -20q0 -5 -1 -8l-98 -269l-54 -151
q-45 -135 -45 -204q0 -52 27 -52q17 0 34 10t29.5 23.5t27 37t22.5 39.5t20 42q3 6 8 17t7 15q6 12 19 12q10 0 15.5 -7t5.5 -14q0 -4 -2 -10q-8 -19 -15 -31q-15 -31 -24 -48.5t-26.5 -45.5t-33.5 -43t-39 -27t-48 -12q-69 0 -69 94q0 20 1 31q-45 -73 -95 -113t-113 -40
h-2q-54 1 -81.5 37t-27.5 96q0 46 43 197.5t99 308.5q-23 -5 -61 -10q-40 -6 -57 -9t-55.5 -11t-58 -15.5t-48 -20.5t-42.5 -27t-25 -35t-11 -46q-1 -39 22 -64.5t57 -25.5q9 0 15 -6.5t6 -15.5q-1 -8 -7.5 -14.5t-14.5 -5.5q-52 0 -86 38.5t-34 93.5q0 32 11.5 58.5
t28.5 45t46.5 34t54 25t63.5 18.5t63.5 13.5t64.5 10.5zM469 670q30 6 54 23.5t24 30.5q0 14 -14 14q-15 0 -33 -20t-31 -48z" />
    <glyph glyph-name="V" unicode="V" horiz-adv-x="714" 
d="M418 657q19 50 49.5 85.5t65.5 35.5q26 0 42.5 -15t16.5 -39q0 -33 -42 -60.5t-101 -43.5q-40 -102 -91.5 -279t-51.5 -243q0 -93 61 -93q25 0 49.5 14t49 45t43.5 60t43.5 82t39 87t40.5 96q24 57 36 86t35.5 79t39 76.5t39 61.5t44 52.5t46 30t51.5 12.5q9 0 15.5 -6
t6.5 -15t-6 -15t-15 -6q-24 0 -47 -13t-45.5 -43t-40.5 -57.5t-42 -79.5t-38 -84.5t-40 -94.5q-24 -59 -37 -88.5t-37 -81t-40 -79t-40.5 -63.5t-46 -54t-48.5 -31.5t-55 -13.5q-103 0 -103 134q0 73 45 232t91 283q-23 -5 -61 -10q-149 -24 -206 -49q-91 -40 -91 -115
q0 -39 23 -64.5t56 -25.5q9 0 15 -6.5t6 -15.5q-2 -20 -22 -20q-52 0 -86 38.5t-34 95.5q0 36 13.5 65.5t42 50t55.5 34.5t72 24.5t73 16t76 12.5q60 10 86 15zM469 670q30 6 54 23.5t24 30.5q0 14 -14 14q-15 0 -33 -20t-31 -48z" />
    <glyph glyph-name="W" unicode="W" horiz-adv-x="950" 
d="M417 655q19 50 50 86.5t66 36.5q26 0 42.5 -15t16.5 -39q0 -33 -42 -60.5t-101 -43.5q-43 -108 -97.5 -296t-54.5 -230q0 -88 69 -91q75 0 172 209q22 47 85.5 222.5t71.5 210.5q4 16 21 16q11 0 17.5 -9t2.5 -19q-110 -329 -132 -427q-15 -67 -15 -107q0 -94 62 -94
q19 0 37 8t34.5 26t30 36t28.5 50.5t25.5 56.5t25 66.5t22.5 67.5t23 72q14 43 19.5 60.5t19 57t20.5 57.5t20.5 51t23.5 49t24.5 40.5t27.5 36t29 24.5t33.5 18t36.5 5q9 0 15.5 -6t6.5 -15t-6 -15t-15 -6q-18 0 -34.5 -7t-32 -25t-28 -34.5t-27.5 -49t-24 -54t-24 -65
t-22 -65t-23 -70.5q-14 -43 -20 -62t-19.5 -59t-21.5 -59.5t-21.5 -53t-24 -50.5t-25.5 -42t-29 -37.5t-31 -25.5t-35.5 -18.5t-38.5 -5.5q-51 0 -77.5 38t-26.5 99q0 13 2 41q-93 -179 -183 -179q-111 3 -111 133q0 47 46.5 211t98.5 306q-23 -5 -61 -10q-149 -24 -206 -49
q-91 -40 -91 -115q0 -39 23 -64.5t56 -25.5q21 0 21 -20q0 -9 -6 -15.5t-16 -6.5q-52 0 -87 39t-33 95q0 36 13.5 65t41.5 49.5t55.5 34.5t72.5 25t73.5 16.5t75.5 12.5q12 2 41.5 6t43.5 7zM469 670q30 6 54 23.5t24 30.5q0 14 -14 14q-15 0 -33 -20t-31 -48z" />
    <glyph glyph-name="X" unicode="X" horiz-adv-x="751" 
d="M1021 745q6 -6 6 -14t-7 -15q-6 -6 -15 -6t-15 7q-15 15 -37 15q-70 0 -164 -128q-23 -31 -98 -147q-83 -127 -135 -198q2 -24 5 -64.5t5.5 -66.5t6 -62.5t7.5 -61t9.5 -53.5t12.5 -47t16.5 -34.5t21.5 -24t26 -7.5q16 0 34 11q7 5 13 5q10 0 16 -8q5 -7 5 -13
q0 -9 -8 -17q-27 -20 -60 -20q-21 0 -37.5 6.5t-29.5 22t-22.5 31.5t-17 44t-12.5 50t-9.5 59.5t-7 62.5t-6.5 68.5t-6 68.5q-193 -249 -357 -249q-71 0 -116 43.5t-45 109.5q0 67 50 120q7 7 16 7q8 0 14.5 -6.5t6.5 -14.5q0 -9 -6 -15q-39 -42 -39 -91t34 -80t85 -31
q152 0 352 269q-24 237 -13 352q-45 -8 -74 -11q-42 -5 -73 -11t-68 -18.5t-60 -29t-39 -44.5t-16 -63q0 -31 22 -58t47 -27q8 0 14 -6.5t6 -15.5q-2 -20 -22 -20q-42 0 -75.5 41t-33.5 88q0 44 17.5 78.5t43.5 55t68 36t77.5 22.5t85.5 14q56 7 87 13q6 47 29.5 78t63.5 31
q25 0 41 -14.5t16 -37.5q0 -33 -32 -56t-81 -36q-12 -92 7 -308q51 75 104 157q6 9 17 26q46 70 70.5 105t63 79.5t74 63.5t73.5 19q40 0 68 -29zM601 734q-32 -1 -48 -55q61 22 61 45q0 10 -13 10z" />
    <glyph glyph-name="Y" unicode="Y" horiz-adv-x="765" 
d="M418 656q19 50 50 86.5t66 36.5q26 0 42.5 -15t16.5 -39q0 -33 -42 -60.5t-101 -43.5q-44 -107 -87 -259t-43 -200q0 -90 69 -90q79 0 148 96q8 11 15 21.5t12.5 18.5t12 20.5t10.5 19.5t11.5 24t11 25t13.5 32t14.5 36t18.5 46t21 52q9 25 44 120t55 149q5 14 20 14
q20 0 20 -20q0 -5 -1 -8l-98 -269q-1 -3 -35.5 -99t-73 -202.5t-45.5 -126.5l-16 -44q151 51 235 249q6 13 19 13q3 0 9 -2q13 -7 13 -19q0 -3 -2 -9q-48 -114 -116.5 -182.5t-174.5 -99.5q-73 -207 -182 -209q-45 -1 -72 26t-27 71q0 100 169 131q45 7 79 16q2 7 55 157
q-73 -89 -163 -89q-54 0 -83 35.5t-29 96.5q1 47 38 180.5t86 268.5q-20 -4 -62 -10q-149 -24 -206 -49q-91 -40 -91 -115q0 -39 23 -64.5t56 -25.5q9 0 15 -6t6 -15q0 -21 -22 -21q-52 0 -86 38.5t-34 95.5q0 36 13.5 65.5t42 50t55.5 34.5t72 24.5t73 16t76 12.5zM470 671
q30 6 54 23.5t24 30.5q0 14 -14 14q-16 0 -33.5 -20t-30.5 -48zM481 -85q-42 -9 -55 -11q-69 -12 -100.5 -32.5t-34.5 -55.5q0 -26 15.5 -41.5t41.5 -14.5q83 2 133 155z" />
    <glyph glyph-name="Z" unicode="Z" horiz-adv-x="627" 
d="M876 717q0 -32 -26.5 -47.5t-67.5 -15.5q-29 0 -112 17q-84 -107 -293 -416q-72 -108 -101 -144q28 -25 84 -81l12 -12q40 -41 62.5 -61.5t58.5 -49t67.5 -41.5t62.5 -13q38 0 69 14.5t43 40.5q5 13 19 13q3 0 9 -2q12 -7 12 -20q0 -2 -2 -8q-18 -40 -60 -60.5t-91 -20.5
q-38 0 -75 15t-81 50.5t-65.5 55.5t-70.5 69q-42 42 -81 78q-75 -83 -145 -83q-51 0 -77.5 25.5t-26.5 70.5q0 48 33 79t77 31q58 0 134 -63q24 30 98 141q82 121 287 403q-163 50 -245 50q-61 0 -102 -36.5t-41 -90.5q0 -44 29 -74q6 -6 6 -14q0 -9 -7 -16q-6 -6 -14 -6
q-9 0 -16 7q-40 43 -40 106q0 71 54.5 119t132.5 48q56 0 105.5 -10.5t161.5 -44.5q64 62 141 62q35 0 58.5 -17t23.5 -48zM833 719q0 21 -39 21q-47 0 -91 -33q42 -11 78 -11q52 0 52 23zM217 106q-67 53 -109 53q-26 0 -45.5 -18.5t-20.5 -49.5q0 -54 62 -54q51 0 113 69z
" />
    <glyph glyph-name="bracketleft" unicode="[" horiz-adv-x="394" 
d="M61 -71q-9 0 -15 6.5t-6 14.5q0 5 2 9l304 833q5 14 20 14h148q9 0 15 -6t6 -15t-6 -15t-15 -6h-133l-290 -792h112q9 0 15 -6.5t6 -15.5q0 -8 -6 -14.5t-15 -6.5h-142z" />
    <glyph glyph-name="backslash" unicode="\" horiz-adv-x="298" 
d="M103 753q8 2 15 -3.5t8 -13.5l141 -852q2 -8 -3 -15.5t-14 -8.5q-8 -1 -15 4t-9 13l-141 851q-1 9 4 16t14 9z" />
    <glyph glyph-name="bracketright" unicode="]" horiz-adv-x="525" 
d="M478 806q9 0 15 -6.5t6 -14.5q0 -4 -2 -10l-304 -832q-5 -14 -20 -14h-148q-9 0 -15 6t-6 15t6 15t15 6h133l290 792h-112q-9 0 -15 6.5t-6 15.5q0 8 6 14.5t15 6.5h142z" />
    <glyph glyph-name="asciicircum" unicode="^" horiz-adv-x="370" 
d="M331 475q2 -8 -3.5 -15.5t-14.5 -8.5q-20 -2 -24 18l-28 196l-151 -205q-5 -7 -13.5 -8t-15.5 4q-18 12 -5 29l182 247q12 16 29 5q7 -6 9 -15z" />
    <glyph glyph-name="underscore" unicode="_" horiz-adv-x="455" 
d="M397 -4q11 0 19 -6.5t8 -15.5t-8 -15t-19 -6h-332q-11 0 -19 6t-8 15t8 15.5t19 6.5h332z" />
    <glyph glyph-name="a" unicode="a" horiz-adv-x="403" 
d="M448 238q13 -6 13 -19q0 -3 -2 -9l-1 -3q-17 -37 -25.5 -55t-28.5 -52.5t-36.5 -52t-41 -32.5t-50.5 -15q-35 0 -53.5 23t-18.5 61q-60 -84 -125 -84q-40 0 -61 30t-21 78q0 68 29.5 152t82.5 148.5t109 64.5q64 0 91 -53q3 10 17 45q5 13 20 13q12 0 17.5 -9.5
t1.5 -18.5l-50 -134q-4 -10 -12 -32.5t-11.5 -33t-10 -29.5t-10 -29t-8.5 -26t-7.5 -25.5t-5 -21t-3.5 -20t-1 -15.5q0 -42 30 -42q18 0 36 13t31 29t29.5 45t24.5 46.5t22 48.5l1 3q6 13 19 13q3 0 9 -2zM78 42q19 0 38 10.5t36 33t30.5 43.5t29.5 55.5t24 54.5l22 55
l24 64q-1 34 -19 53.5t-45 19.5q-43 -1 -86 -60t-67.5 -131.5t-25.5 -124.5q0 -73 39 -73z" />
    <glyph glyph-name="b" unicode="b" horiz-adv-x="382" 
d="M427 238q13 -5 13 -19q0 -10 -19 -45q-56 -110 -138 -110q-43 0 -71 28q-67 -92 -151 -92q-79 0 -79 88q0 43 31 128q2 7 59.5 172t59.5 171q16 49 22 67q5 14 20 14q11 0 17.5 -9t2.5 -19l-22 -65q-31 -92 -42 -121q45 47 97 47q84 0 84 -112q-1 -101 -72 -226
q-3 -6 -4 -7q19 -22 48 -22q34 0 56 22t45 65q4 8 9 19.5t7.5 16t7 8t10.5 3.5q3 0 9 -2zM206 240q10 0 16.5 -8t4.5 -19q-1 -4 -4 -17q45 90 45 167q0 34 -7.5 51t-31.5 17q-29 0 -56 -23t-52 -67.5t-40 -77.5t-35 -84q-22 -62 -22 -89q0 -48 38 -48q67 0 125 88
q-8 21 -8 46q0 27 7 48q5 16 20 16z" />
    <glyph glyph-name="c" unicode="c" horiz-adv-x="317" 
d="M362 238q13 -6 13 -20q0 -2 -2 -8q-48 -106 -106.5 -158t-142.5 -52q-55 0 -88 37.5t-33 99.5q0 76 35 155t88.5 130t103.5 51q41 0 63 -25.5t22 -68.5q0 -34 -14 -62.5t-31 -28.5q-21 0 -21 20q0 4 12 26t12 45q0 52 -43 52q-38 0 -82 -48.5t-73.5 -118.5t-29.5 -128
q0 -42 22 -68t58 -26q70 0 119.5 47t89.5 138q9 18 28 11z" />
    <glyph glyph-name="d" unicode="d" horiz-adv-x="430" 
d="M475 238q13 -6 13 -19q0 -3 -2 -9q-49 -105 -95.5 -157.5t-110.5 -52.5q-35 0 -54.5 23t-19.5 65q-62 -88 -127 -88q-40 0 -61 30t-21 78q0 68 29 152t82 148.5t110 64.5q64 0 90 -51l19 52l53 153q5 13 19 13q12 0 17.5 -9.5t2.5 -18.5q-3 -8 -36.5 -104.5t-65.5 -188.5
t-36 -104q-33 -101 -33 -131q0 -42 32 -42q49 0 87.5 47.5t79.5 138.5q7 12 20 12q2 0 8 -2zM78 42q19 0 38 10.5t36 33t30.5 43.5t29.5 55.5t24 54.5l22 55q5 11 12.5 30t10.5 27q1 3 1 7q-2 35 -18.5 54t-45.5 19q-43 -1 -86 -60t-67.5 -131.5t-25.5 -124.5q0 -73 39 -73z
" />
    <glyph glyph-name="e" unicode="e" horiz-adv-x="317" 
d="M362 238q13 -6 13 -20q0 -2 -2 -8q-49 -108 -107.5 -159t-134.5 -51q-62 0 -97.5 37.5t-33.5 99.5q3 66 34.5 143t84.5 135t109 58q38 0 61.5 -19.5t23.5 -54.5q0 -38 -24.5 -71.5t-65 -57.5t-82.5 -40.5t-88 -27.5q-10 -35 -11 -66q-2 -43 21.5 -68t68.5 -26
q62 -2 111 43t91 142q9 18 28 11zM69 250q202 63 202 149q0 32 -43 32q-46 0 -87.5 -54t-71.5 -127z" />
    <glyph glyph-name="f" unicode="f" horiz-adv-x="192" 
d="M391 727q3 -5 3 -9q0 -12 -12 -19q-6 -2 -9 -2q-13 0 -19 12q-11 18 -33 18q-71 4 -139 -178q-19 -47 -30 -76h64q8 0 14.5 -6.5t6.5 -14.5q0 -9 -6.5 -15t-14.5 -6h-80q-52 -142 -162 -454q151 51 235 249q7 13 19 13q3 0 9 -2q13 -7 13 -19q0 -3 -2 -9
q-48 -114 -116.5 -182.5t-174.5 -99.5q-73 -207 -182 -209q-45 -1 -72 26t-27 71q0 100 169 131q45 7 79 16q31 86 82.5 233.5t84.5 235.5h-65q-9 0 -15 6t-6 15q0 8 6 14.5t15 6.5h81l35 92q78 205 177 205q51 0 72 -43zM-92 -85q-42 -9 -55 -11q-69 -12 -100.5 -32.5
t-34.5 -55.5q0 -26 15.5 -41.5t41.5 -14.5q83 2 133 155z" />
    <glyph glyph-name="g" unicode="g" horiz-adv-x="413" 
d="M458 237q13 -7 13 -19q0 -3 -2 -9q-48 -114 -116.5 -182.5t-174.5 -99.5q-73 -207 -182 -209q-45 -1 -72 26t-27 71q0 100 169 131q45 7 79 16l30 86q-46 -48 -95 -48q-82 0 -82 115q3 69 31.5 151t80 144.5t107.5 62.5q65 0 92 -55l16 41q5 14 19 14q11 0 18 -8t3 -21
q-15 -36 -75 -196l-53 -149l-42 -122q151 51 235 249q6 13 19 13q3 0 9 -2zM78 42q28 0 55 23t51.5 66.5t39.5 77t35 84.5l22 57q0 39 -17.5 60t-45.5 21q-43 -1 -85.5 -60t-66.5 -132t-25 -125q-2 -36 5 -54t32 -18zM-4 -240q83 2 133 155q-42 -9 -55 -11
q-69 -12 -100.5 -32.5t-34.5 -55.5q0 -26 15.5 -41.5t41.5 -14.5z" />
    <glyph glyph-name="h" unicode="h" horiz-adv-x="399" 
d="M444 238q13 -6 13 -20q0 -2 -2 -8q-52 -115 -92.5 -162.5t-90.5 -47.5q-36 0 -54 23t-18 61q0 48 39 154t39 143q0 52 -52 52q-34 0 -79 -55q-12 -15 -21.5 -29.5t-17 -25.5t-17 -31.5t-15 -32.5t-17.5 -44t-19 -50.5t-24.5 -68t-29.5 -81.5q-7 -20 -27 -14q-20 7 -13 27
q187 520 214 599q5 13 20 13q11 0 17.5 -9t2.5 -19q-25 -73 -65 -184q47 47 91 47q94 0 94 -94q0 -39 -39 -150t-39 -147q0 -42 30 -42q35 0 67.5 42.5t76.5 142.5q6 13 19 13q3 0 9 -2z" />
    <glyph glyph-name="i" unicode="i" horiz-adv-x="184" 
d="M163 524q-14 0 -24.5 10t-10.5 24t10.5 24t24.5 10t24 -10t10 -24t-10 -24t-24 -10zM229 238q13 -5 13 -19q0 -3 -2 -9q-21 -48 -38 -79.5t-40 -64.5t-49.5 -49.5t-56.5 -16.5q-35 0 -54.5 24t-17.5 60q3 77 118 375q5 14 19 14q11 0 17.5 -7.5t2.5 -19.5
q-102 -287 -110 -324q-5 -21 -5 -38q0 -42 30 -42q22 0 42.5 15.5t40.5 48.5t31.5 55.5t30.5 65.5q7 13 20 13q2 0 8 -2z" />
    <glyph glyph-name="j" unicode="j" horiz-adv-x="191" 
d="M163 524q-14 0 -24.5 10t-10.5 24t10.5 24t24.5 10t24 -10t10 -24t-10 -24t-24 -10zM236 237q13 -7 13 -19q0 -3 -2 -9q-48 -114 -116.5 -182.5t-174.5 -99.5q-73 -207 -182 -209q-45 -1 -72 26t-27 71q0 100 169 131q45 7 79 16q54 156 77.5 222.5t52 141t49.5 131.5
q6 16 21 16q10 0 16.5 -9t2.5 -21q-91 -246 -169 -466q151 51 235 249q6 13 19 13q3 0 9 -2zM-226 -240q83 2 133 155q-42 -9 -55 -11q-69 -12 -100.5 -32.5t-34.5 -55.5q0 -26 15.5 -41.5t41.5 -14.5z" />
    <glyph glyph-name="k" unicode="k" horiz-adv-x="395" 
d="M-15 15q-8 -19 -27 -14q-20 7 -13 27q179 500 214 599q5 13 19 13q12 0 18.5 -9t2.5 -19q-165 -464 -214 -597zM440 238q13 -5 13 -19q0 -3 -2 -9q-45 -100 -86.5 -155t-97.5 -55q-33 0 -53.5 23t-20.5 53q0 21 6 67q6 40 5 59q-2 45 -44 45q-16 0 -35.5 -15t-27.5 -15
q-16 0 -20 13t8 24q5 5 35 32t88 79.5t115 104.5q6 5 14 5q10 0 16 -7t6 -14q0 -8 -7 -15l-167 -152q59 -10 61 -85q0 -12 -5.5 -62t-5.5 -61q0 -15 8.5 -26t23.5 -11q39 0 73.5 50t71.5 135q6 13 19 13q3 0 9 -2z" />
    <glyph glyph-name="l" unicode="l" horiz-adv-x="206" 
d="M252 238q12 -7 12 -19q0 -3 -2 -9q-49 -105 -95.5 -157.5t-110.5 -52.5q-35 0 -54.5 23.5t-19.5 60.5q0 33 35 144q12 35 26.5 76t32 91.5t27.5 78.5l52 152q7 19 27 13q20 -7 13 -27l-52 -152q-5 -15 -37 -105t-49 -140q-33 -102 -33 -131q0 -42 32 -42q49 0 87.5 47.5
t79.5 138.5q7 12 20 12q3 0 9 -2z" />
    <glyph glyph-name="m" unicode="m" horiz-adv-x="617" 
d="M675 219q0 -1 -3 -12q-19 -44 -32.5 -70t-37.5 -63t-52 -55.5t-59 -18.5q-36 0 -54.5 23t-18.5 61q0 47 39 152t39 145q0 52 -52 52q-40 0 -89.5 -70.5t-75.5 -141.5q-1 -2 -18.5 -53t-33.5 -99.5t-16 -47.5q-5 -14 -20 -14q-11 0 -17.5 9t-2.5 19q65 195 68 201
q36 105 36 141q0 56 -50 56q-35 0 -87 -73q-13 -20 -46 -80.5t-38 -72.5l-68 -193q-7 -20 -27 -14q-20 7 -13 27q26 72 77.5 216t76.5 216q5 14 20 14q11 0 17.5 -9t2.5 -19q-6 -13 -10 -27q49 57 95 57q44 0 68 -25.5t24 -66.5q24 38 59 65t68 27q94 0 94 -94
q0 -49 -38.5 -152t-38.5 -145t30 -42q36 0 68.5 43.5t74.5 141.5q5 13 20 13q8 0 14.5 -6.5t6.5 -14.5z" />
    <glyph glyph-name="n" unicode="n" horiz-adv-x="399" 
d="M444 238q13 -6 13 -19q0 -3 -2 -9q-52 -115 -92.5 -162.5t-90.5 -47.5q-35 0 -53.5 23t-18.5 61q0 48 39 151t39 146q0 52 -52 52q-41 0 -90.5 -71.5t-78.5 -148.5l-70 -198q-7 -20 -27 -14q-20 7 -13 27q25 70 79.5 223.5t74.5 208.5q5 14 20 14q11 0 17.5 -9t2.5 -19
l-8 -20q47 49 93 49q94 0 94 -94q0 -46 -39 -153t-39 -144q0 -42 30 -42q34 0 65.5 41.5t78.5 143.5q6 13 19 13q3 0 9 -2z" />
    <glyph glyph-name="o" unicode="o" horiz-adv-x="391" 
d="M447 211q-64 -147 -151 -147q-43 0 -76 27q-30 -40 -66 -65.5t-70 -25.5q-87 0 -87 101q0 128 85 267q63 105 141 105q48 -1 74 -30.5t26 -76.5t-21.5 -113.5t-56.5 -125.5q17 -21 51 -21q61 0 112 121q5 13 19 13q11 0 17.5 -9.5t2.5 -19.5zM215 240q11 0 17 -8.5
t3 -18.5q-1 -3 -4 -23q50 100 50 177q0 31 -16.5 47.5t-42.5 16.5q-54 0 -103 -85q-79 -131 -79 -243q0 -61 44 -61q51 0 112 87q-17 41 -2 95q3 16 21 16z" />
    <glyph glyph-name="p" unicode="p" horiz-adv-x="380" 
d="M425 238q13 -5 13 -19q0 -2 -2 -8q-17 -58 -61 -102.5t-94 -44.5q-43 0 -69 26q-71 -96 -150 -93q-56 3 -72 42q-85 -238 -96 -269q-5 -14 -20 -14q-11 0 -17.5 9t-2.5 19l112 313q22 59 53.5 147t50 137.5t23.5 63.5l6 16q5 14 20 14q11 0 17.5 -9t2.5 -19l-8 -21
q47 49 97 49q84 0 84 -114q0 -50 -24.5 -121t-52.5 -114q18 -20 47 -20q37 0 69.5 37.5t45.5 83.5q7 13 19 13q3 0 9 -2zM204 240q10 0 16.5 -8t4.5 -19q-3 -8 -5 -26q49 103 49 176q0 70 -39 70q-23 0 -47 -18t-41 -41t-37.5 -63.5t-30.5 -65t-27 -66.5q-2 -6 -6.5 -18
t-6 -16.5t-4 -12.5t-3.5 -13t-1.5 -12.5t-0.5 -15.5q0 -51 38 -52q65 -1 123 88q-18 41 -2 97q3 16 20 16z" />
    <glyph glyph-name="q" unicode="q" horiz-adv-x="404" 
d="M449 237q13 -7 13 -20q0 -2 -2 -8q-45 -95 -83.5 -143t-94.5 -51q11 -60 11 -102q0 -84 -29 -138t-86 -54q-72 3 -72 82q0 30 9.5 65t58.5 179q-47 -47 -93 -47q-42 0 -62.5 29.5t-20.5 76.5q0 68 29 152.5t82 149.5t110 65q60 0 90 -51l15 38q7 20 27 13q19 -9 12 -28
q-30 -74 -94 -253q-76 -216 -98.5 -288t-22.5 -101q0 -40 30 -40q36 0 54 41.5t18 99.5q0 65 -14 129q-2 7 -1 10q1 9 8.5 13.5t16.5 2.5q12 -2 16 -2q23 0 43.5 13.5t39.5 41.5t31.5 51.5t30.5 62.5q7 13 20 13q2 0 8 -2zM79 42q23 -1 46.5 17t40 40t37 63t30 64.5
t26.5 67.5q3 7 9 21.5t10 25.5l5 11q-3 79 -64 79q-43 -1 -86 -60t-67.5 -132.5t-25.5 -125.5q0 -68 39 -71z" />
    <glyph glyph-name="r" unicode="r" horiz-adv-x="368" 
d="M413 238q13 -6 13 -19q0 -3 -2 -9q-49 -113 -91 -161.5t-92 -48.5h-1q-34 0 -52.5 23t-18.5 61q0 29 10 65q6 23 30 96t31 91q-85 28 -109 40q-2 -7 -91 -201q-6 -12 -18 -12q-4 0 -10 2q-12 7 -12 19q0 3 2 9l80 174l12 30q-51 36 -51 84q0 30 18 47.5t43 17.5
q27 0 42.5 -18t15.5 -48q0 -12 -16 -64q23 -12 91 -35q23 -7 38 -12q19 -7 12 -29q-10 -26 -36.5 -104.5t-30.5 -96.5q-7 -25 -9 -55q0 -42 30 -42q36 0 68 42.5t76 142.5q7 13 19 13q3 0 9 -2zM120 481q0 23 -16 23q-19 0 -19 -19q0 -27 24 -46q11 31 11 42z" />
    <glyph glyph-name="s" unicode="s" horiz-adv-x="385" 
d="M330 177q-1 -80 -53.5 -128.5t-129.5 -48.5q-62 0 -106.5 42.5t-44.5 103.5q5 68 41 108.5t95 40.5q39 0 66.5 -29.5t29.5 -71.5q0 -9 -6 -15t-15 -6t-15 6t-6 15q-1 25 -17 42t-36 17q-40 0 -66 -30t-29 -77q0 -45 32 -74.5t77 -29.5q61 0 100.5 37t40.5 99
q-1 31 -14 61.5t-55 104.5q-11 -11 -20 -23q-6 -8 -16 -8t-15 5q-7 6 -7 17q0 6 5 13q18 21 34 37q-15 35 -15 66q0 39 21.5 67.5t51.5 28.5q21 0 33.5 -14.5t14.5 -37.5q0 -56 -56 -119q9 -16 23.5 -42.5t20.5 -37.5t15 -29.5t12 -30t6 -27t3 -32.5zM232 420q31 43 31 75
q-1 10 -7 9.5t-14 -8.5q-15 -15 -15 -44q0 -14 5 -32z" />
    <glyph glyph-name="t" unicode="t" horiz-adv-x="208" 
d="M254 238q12 -7 12 -19q0 -3 -2 -9q-49 -105 -95.5 -157.5t-110.5 -52.5q-35 0 -54.5 23.5t-19.5 60.5q0 60 57 206l51 143h-63q-9 0 -15 6t-6 15q0 8 6 14.5t15 6.5h77q1 3 26 74.5t26 74.5q5 14 20 14q11 0 17.5 -9t2.5 -19l-47 -135h67q9 0 15 -6.5t6 -14.5
q0 -9 -6 -15t-15 -6h-82q-1 -2 -56 -158q-54 -153 -54 -191q0 -42 32 -42q49 0 87.5 47.5t79.5 138.5q7 12 20 12q3 0 9 -2z" />
    <glyph glyph-name="u" unicode="u" horiz-adv-x="401" 
d="M447 238q12 -7 12 -19q0 -3 -2 -9q-49 -113 -90.5 -161.5t-91.5 -48.5q-62 0 -72 71q-22 -32 -54.5 -51.5t-65.5 -19.5h-1q-96 0 -96 104q0 33 19.5 91.5t83.5 223.5q11 28 17 43q5 13 19 13q12 0 18 -9t2 -19q-18 -47 -46 -122q-49 -131 -60 -164t-11 -57q0 -62 55 -62
q65 0 115 102q28 56 124 318q5 13 19 13q12 0 18.5 -9t2.5 -19q-12 -33 -31 -85t-25 -67q-61 -165 -61 -211q0 -42 30 -42q35 0 67.5 43t76.5 142q5 13 19 13q3 0 9 -2z" />
    <glyph glyph-name="v" unicode="v" horiz-adv-x="345" 
d="M390 238q13 -5 13 -19q0 -2 -2 -8q-17 -59 -61 -103t-94 -44q-43 0 -70 27q-38 -51 -64 -71t-57 -20q-36 0 -54 22.5t-18 61.5q0 19 5 43t17.5 62t24 70.5t34 95t38.5 107.5q5 13 20 13q12 0 18 -9t2 -19q-71 -195 -94 -265.5t-23 -97.5q0 -42 30 -42q45 0 95 87
q-16 43 -1 95q5 16 20 16q10 0 16.5 -8t4.5 -19q-4 -15 -5 -24q8 13 67.5 131.5t71.5 143.5q7 12 20 12q3 0 9 -2q12 -7 12 -20q0 -3 -2 -9q-28 -57 -89.5 -176.5t-74.5 -141.5q19 -21 48 -21q37 0 69.5 37t45.5 84q3 13 19 13q3 0 9 -2z" />
    <glyph glyph-name="w" unicode="w" horiz-adv-x="526" 
d="M584 219q0 -2 -2 -8q-23 -63 -64 -105t-91 -42q-43 0 -70 27q-32 -45 -60 -68t-61 -23q-62 0 -72 71q-50 -71 -110 -71q-35 0 -53.5 23t-18.5 61q0 36 26 117.5t94 260.5q5 13 19 13q12 0 18 -9t2 -19q-77 -212 -97 -273.5t-20 -89.5q0 -42 30 -42q36 0 70 43t74 143
q17 44 85 234q5 13 19 13q12 0 18.5 -9t2.5 -19q-117 -310 -117 -363q0 -42 30 -42q23 0 40.5 17.5t54.5 69.5q-16 43 -1 95q5 16 20 16q11 0 17.5 -8.5t3.5 -18.5q-3 -7 -5 -24q84 159 139 275q7 12 20 12q8 0 14 -6.5t6 -14.5q0 -4 -2 -10q-112 -229 -163 -318
q16 -21 47 -21q37 0 63.5 30t52.5 91q7 13 19 13q9 0 15.5 -6t6.5 -15z" />
    <glyph glyph-name="x" unicode="x" horiz-adv-x="458" 
d="M516 219q0 -3 -2 -9q-21 -46 -38 -78t-40.5 -65t-51 -50t-57.5 -17q-98 0 -138 165l-141 -158q-6 -7 -16 -7q-9 0 -14 5q-7 6 -7 16q0 9 5 14l163 182q-8 48 -16 118q-8 74 -12 91q-84 -196 -111 -250q-6 -13 -19 -13q-10 0 -15.5 7.5t-5.5 14.5q0 2 2 8l102 231
q6 16 11 25t16.5 19t25.5 10q25 0 33 -32q5 -23 15 -106q7 -64 10 -83l188 211q7 7 16 7q8 0 14 -6q7 -7 7 -15t-6 -14l-210 -236q30 -161 103 -161q18 0 36 12t32 29t30 43.5t26.5 48.5t23.5 51q7 13 20 13q8 0 14.5 -6.5t6.5 -14.5z" />
    <glyph glyph-name="y" unicode="y" horiz-adv-x="412" 
d="M457 237q13 -7 13 -19q0 -3 -2 -9q-48 -114 -116.5 -182.5t-174.5 -99.5q-73 -207 -182 -209q-45 -1 -72 26t-27 71q0 100 169 131q45 7 79 16l25 72q-36 -34 -76 -34q-58 0 -83.5 31.5t-25.5 75.5q0 8 1 15.5t3.5 17.5t4 17t6 20t7 21t9 24.5t10 25.5t11.5 30t12 32
l56 152q5 13 19 13q12 0 18 -9t2 -19l-55 -152q-11 -29 -23 -61.5t-17.5 -47.5t-11 -31.5t-7.5 -26.5t-2 -21q0 -65 66 -65q38 0 81.5 64.5t75.5 156.5q7 21 74 198q5 14 19 14q10 0 17.5 -9t3.5 -20q-44 -113 -75 -197l-80 -228l-15 -44q151 51 235 249q7 13 19 13
q3 0 9 -2zM-5 -240q83 2 133 155q-42 -9 -55 -11q-69 -12 -100.5 -32.5t-34.5 -55.5q0 -26 15.5 -41.5t41.5 -14.5z" />
    <glyph glyph-name="z" unicode="z" horiz-adv-x="399" 
d="M445 239q13 -5 13 -19q0 -2 -2 -8q-77 -181 -217 -246q-82 -226 -221 -226q-48 0 -76.5 25t-28.5 71q0 51 37 82t118 45q92 15 138 35q27 97 4 138q-46 -23 -85 -15.5t-39 46.5q0 46 46 52t86 -28q64 46 64 153q0 87 -68 87q-11 0 -22 -4.5t-22 -15t-20 -20t-20 -28.5
t-18 -31t-18.5 -36.5t-17 -36t-17 -38.5t-15.5 -36l-4 -9q-6 -13 -18 -13q-9 0 -15.5 6t-6.5 15q0 3 2 9q24 57 35.5 83.5t35.5 72t42 67t44.5 39.5t54.5 18q53 0 81.5 -35t28.5 -94q0 -52 -19.5 -102.5t-58.5 -83.5q29 -47 11 -134q101 64 160 204q7 13 19 13q3 0 9 -2z
M182 167q-15 9 -27 12.5t-19 0t-7 -12.5q1 -8 18 -7.5t35 7.5zM185 -55q-35 -11 -110 -24q-120 -18 -120 -84q0 -22 17.5 -39t44.5 -17q92 0 168 164z" />
    <glyph glyph-name="braceleft" unicode="{" horiz-adv-x="366" 
d="M484 844q22 -2 20 -22q0 -9 -6.5 -15t-15.5 -5q-35 1 -63.5 -5.5t-49.5 -24t-35 -33.5t-27 -47t-19.5 -49.5t-17.5 -55.5q-13 -46 -22.5 -73.5t-28 -61.5t-41.5 -55q22 -29 22 -70q0 -61 -46 -143q-77 -126 -77 -169q0 -44 97 -57q18 -4 18 -21q0 -9 -7 -15.5t-17 -5.5
q-133 19 -133 99q0 30 15.5 65.5t66.5 124.5q40 72 40 121q0 25 -14 47q-38 -22 -94 -22q-49 0 -49 42q0 23 24 36t55 13q33 0 65 -16q21 18 38.5 49t26 55t21.5 69q10 36 16 54.5t19 50t24.5 48.5t31 38t41.5 31.5t53.5 17.5t68.5 5zM50 393q20 0 40 5q-21 4 -37 1l-11 -5z
" />
    <glyph glyph-name="bar" unicode="|" horiz-adv-x="277" 
d="M311 784q9 -3 13 -10t2 -14l-294 -809q-7 -16 -27 -9q-9 3 -13 10t-2 14l294 809q7 16 27 9z" />
    <glyph glyph-name="braceright" unicode="}" horiz-adv-x="481" 
d="M417 416q49 0 49 -42q0 -23 -24 -36t-55 -13q-33 0 -65 16q-21 -18 -38.5 -49t-26 -55t-21.5 -69q-10 -36 -16 -54.5t-19 -50t-24.5 -48.5t-31 -38t-41.5 -31.5t-53.5 -17.5t-68.5 -5q-22 2 -20 22q0 9 6.5 15t15.5 5q35 -1 63.5 5.5t49.5 24t35 33.5t27 47t19.5 49.5
t17.5 55.5q13 46 22.5 73.5t28 61.5t41.5 55q-22 29 -22 70q0 61 46 143q77 126 77 169q0 44 -97 57q-18 4 -18 21q0 9 7 15.5t17 5.5q133 -19 133 -99q0 -30 -15.5 -65.5t-66.5 -124.5q-40 -72 -40 -121q0 -25 14 -47q39 22 94 22zM413 368l11 5l-8 1q-20 0 -40 -5
q21 -4 37 -1z" />
    <glyph glyph-name="asciitilde" unicode="~" horiz-adv-x="472" 
d="M217 374q-40 23 -79 20.5t-64 -30.5q-6 -7 -15 -7t-15 5q-7 6 -7 15t5 15q36 40 90 45t107 -27q39 -24 78 -21.5t65 31.5q6 7 15 7t15 -5q7 -6 7 -15t-5 -15q-36 -40 -90 -45t-107 27z" />
    <glyph glyph-name="exclamdown" unicode="&#xa1;" horiz-adv-x="279" 
d="M235 412q-14 0 -24.5 10.5t-10.5 24.5t10.5 24t24.5 10t24 -10t10 -24t-10 -24.5t-24 -10.5zM-12 -260q-20 7 -13 27l194 550q7 20 27 13q19 -7 12 -27l-194 -550q-6 -20 -26 -13z" />
    <glyph glyph-name="cent" unicode="&#xa2;" horiz-adv-x="317" 
d="M362 238q13 -6 13 -20q0 -2 -2 -8q-48 -106 -106.5 -158t-142.5 -52q-34 0 -59 15q-12 -28 -17 -42q-5 -13 -16 -14t-17.5 8.5t-1.5 22.5l21 51q-31 37 -31 96q0 76 35 155t88.5 130t103.5 51q7 0 19 -2q18 32 33 53q9 13 20 12t14 -11.5t-4 -24.5l-28 -44q31 -24 31 -77
q0 -34 -14 -62.5t-31 -28.5q-21 0 -21 20q0 4 12 26t12 45q0 27 -11 40q-97 -165 -180 -364q19 -13 43 -13q70 0 119.5 47t89.5 138q9 18 28 11zM45 136q0 -26 9 -47q82 190 170 342q-37 -4 -79.5 -52.5t-71 -117t-28.5 -125.5z" />
    <glyph glyph-name="sterling" unicode="&#xa3;" horiz-adv-x="508" 
d="M465 620q-29 -73 -66 -199q-13 -41 -24 -75h100q8 0 13 -6t5 -15t-5 -15t-13 -6h-114q-22 -68 -36 -102q-23 -55 -47 -93q72 -66 142 -66q38 0 69 14.5t43 40.5q5 13 19 13q10 0 15.5 -7.5t5.5 -14.5q0 -2 -2 -8q-18 -40 -60 -60.5t-91 -20.5q-77 0 -165 73q-6 -8 -9 -11
q-57 -67 -141 -67q-48 0 -75.5 30t-27.5 71q0 42 28.5 73.5t80.5 31.5q59 0 136 -65q20 33 40 82q18 46 31 86h-72q-8 0 -13 6t-5 15t5 15t13 6h85q6 18 28 88q34 111 58 177q-17 -3 -61 -10q-54 -8 -82.5 -13.5t-73.5 -18t-69.5 -26.5t-45.5 -38.5t-25 -55.5q-1 -4 -1 -12
q-2 -34 17 -59q19 -26 52 -30l10 -1q9 0 15 -6.5t5 -15.5q0 -8 -6.5 -14t-15.5 -6q-10 0 -14 1q-51 7 -80 47q-27 34 -25 86q0 11 1 16q4 29 17.5 53t29.5 40.5t45 31t51 23t61 17t61.5 12t65.5 10.5l85 13q19 50 50 86.5t66 36.5q26 0 42.5 -15t16.5 -39q0 -33 -42 -60.5
t-101 -43.5zM549 738q-15 0 -33 -20t-31 -48q30 6 54 23.5t24 30.5q0 14 -14 14zM213 89q6 8 10 12q-72 58 -114 58q-32 0 -49.5 -18.5t-17.5 -43.5q0 -24 16.5 -42t45.5 -18q64 0 109 52z" />
    <glyph glyph-name="yen" unicode="&#xa5;" horiz-adv-x="678" 
d="M721 741q40 0 66 -16t26 -45q0 -32 -32 -51t-75 -19q-44 0 -118 12q-26 -43 -45 -89.5t-54 -157.5q-16 -49 -27 -79h60q8 0 13 -6t5 -15t-5 -15t-13 -6h-76q-1 -4 -19 -48h75q8 0 13 -6t5 -15t-5 -15t-13 -6h-94v-1q-1 -1 -1 -2q-29 -65 -97 -150q-17 -20 -33 -6
q-15 14 1 33q53 66 82 126h-58q-8 0 -13 6t-5 15t5 15t13 6h75q10 32 14 48h-69q-8 0 -13 6t-5 15t5 15t13 6h79q13 62 13 124q0 189 -169 261q-15 6 -17 18t8 19.5t25 1.5q200 -84 195 -312q59 177 88 223l-48 12q-22 6 -15 26q6 19 27 15q20 -6 64 -16q34 36 68.5 54
t80.5 19zM706 652q25 0 44.5 8t19.5 21q0 8 -16 13t-33 5q-13 0 -23.5 -1.5t-21 -6.5t-15 -7.5t-18.5 -12t-18 -12.5q56 -7 81 -7z" />
    <glyph glyph-name="brokenbar" unicode="&#xa6;" horiz-adv-x="277" 
d="M178 417q-20 9 -12 31l117 321q3 10 11.5 14t16.5 1q9 -3 13 -11.5t0 -18.5l-117 -322q-8 -22 -29 -15zM5 -59q-9 3 -13 11.5t0 18.5l117 321q8 23 29 16q20 -9 12 -31l-117 -321q-7 -22 -28 -15z" />
    <glyph glyph-name="copyright" unicode="&#xa9;" horiz-adv-x="727" 
d="M448 665q105 0 168 -65.5t62 -173.5q0 -91 -47.5 -176.5t-128 -138.5t-169.5 -53q-105 0 -168 65.5t-62 173.5q0 91 47.5 176.5t128 138.5t169.5 53zM636 427q1 90 -50.5 143t-137.5 53q-120 0 -211.5 -102t-91.5 -225q-1 -90 50.5 -143t137.5 -53q120 0 211.5 102
t91.5 225zM408 257q16 18 31 8q8 -5 8.5 -14.5t-7.5 -18.5q-36 -43 -90 -44q-39 -1 -62.5 28.5t-22.5 79.5q4 96 57.5 165t110.5 71q82 2 79 -71v-10q-1 -12 -9 -18t-17 -4q-19 3 -17 17q1 5 1 14q1 15 -8.5 22.5t-29.5 7.5q-38 -1 -80 -59.5t-45 -134.5q-1 -32 12 -49
t33 -17q34 1 56 27z" />
    <glyph glyph-name="guillemotleft" unicode="&#xab;" horiz-adv-x="340" 
d="M200 198q5 -22 -15 -28q-8 -2 -16 3.5t-10 15.5l-29 128q-1 9 5 17l91 112q16 20 32 6t1 -32l-85 -104zM300 198q5 -22 -15 -28q-8 -2 -16 3.5t-10 15.5l-29 128q-1 9 5 17l91 112q16 20 32 6t1 -32l-85 -104z" />
    <glyph glyph-name="registered" unicode="&#xae;" horiz-adv-x="725" 
d="M446 740q67 0 108 -42.5t40 -110.5q0 -94 -68.5 -167.5t-156.5 -73.5q-67 0 -108 42.5t-40 110.5q0 94 68.5 167.5t156.5 73.5zM555 588q1 52 -28.5 82.5t-79.5 30.5q-72 0 -129.5 -62.5t-57.5 -140.5q-1 -52 28.5 -82.5t79.5 -30.5q36 0 72 18l-42 104q-5 12 1.5 22.5
t17.5 10.5q33 0 46 23t2.5 46.5t-36.5 23.5q-52 0 -72 -37q-11 -19 -26 -13q-19 7 -8 27q31 59 106 59q34 0 54 -22.5t22 -50.5t-16 -55t-52 -34l34 -84q38 30 61 74t23 91zM333 436q-17 6 -10 27l41 115q8 21 24 15q17 -6 10 -27l-41 -115q-7 -21 -24 -15z" />
    <glyph glyph-name="degree" unicode="&#xb0;" horiz-adv-x="354" 
d="M229 558q-40 0 -64.5 28.5t-18.5 68.5q6 36 34 60t64 24q39 0 64 -28.5t19 -67.5q-6 -36 -34 -60.5t-64 -24.5zM229 600q20 0 36.5 14.5t19.5 34.5t-9 34t-32 14t-36.5 -14t-19.5 -34q-3 -21 8.5 -35t32.5 -14z" />
    <glyph glyph-name="paragraph" unicode="&#xb6;" horiz-adv-x="467" 
d="M524 570q20 -15 5 -32q-13 -15 -32 0q-54 43 -114 55l-114 -324q-14 -43 -24 -70.5t-29.5 -69.5t-38.5 -66.5t-46.5 -43.5t-58.5 -19q-48 0 -75 28t-27 66q0 32 19.5 57.5t54.5 33.5q2 1 7 1q9 0 15 -5.5t6 -13.5v-1q0 -16 -20 -23q-19 -5 -29.5 -18.5t-10.5 -30.5
q0 -21 16 -36.5t44 -15.5q22 0 42.5 15.5t34.5 35.5t30 56t24.5 59.5t22.5 64.5q-137 66 -137 195q0 74 57.5 123.5t172.5 49.5q29 0 36 -1l13 42q3 15 21 15q11 0 17.5 -9t2.5 -19l-13 -36q71 -17 128 -63z" />
    <glyph glyph-name="periodcentered" unicode="&#xb7;" horiz-adv-x="243" 
d="M167 405q14 0 24.5 -10.5t10.5 -24.5t-10.5 -24t-24.5 -10t-24 10t-10 24t10 24.5t24 10.5z" />
    <glyph glyph-name="guillemotright" unicode="&#xbb;" horiz-adv-x="268" 
d="M59 437q-7 22 13 29q20 5 27 -18l36 -126q1 -8 -4 -17l-85 -117q-16 -21 -32 -8q-16 14 -3 32l80 109zM159 437q-7 22 13 29q20 5 27 -18l36 -126q1 -8 -4 -17l-85 -117q-16 -21 -32 -8q-16 14 -3 32l80 109z" />
    <glyph glyph-name="questiondown" unicode="&#xbf;" horiz-adv-x="442" 
d="M313 426q-14 0 -24.5 10t-10.5 24q1 15 11 25t24 9q14 0 24 -10t10 -24t-10 -24t-24 -10zM-43 -96q0 45 13 81t41.5 65.5t51 47t62.5 43.5q54 34 79.5 56.5t44.5 59.5q24 46 28 96q1 9 8 14.5t16 4.5q8 -1 13.5 -8t4.5 -15q-7 -61 -32 -111q-21 -42 -53 -70.5t-86 -62.5
q-36 -23 -55.5 -38t-44.5 -40t-36.5 -55t-11.5 -66q0 -62 39 -94.5t110 -32.5q65 0 105.5 41t40.5 103q0 25 -7 49q-7 20 13 26q20 7 26 -13q11 -33 11 -62q0 -79 -54 -132.5t-134 -53.5q-93 0 -143 42.5t-50 124.5z" />
    <glyph glyph-name="Agrave" unicode="&#xc0;" horiz-adv-x="765" 
d="M837 834q14 -12 3 -28q-12 -14 -26 -2l-110 97q-16 14 -3 32q16 16 31 2zM747 388q-34 -97 -44 -120q-108 -294 -108 -344q0 -47 16 -69t51 -22q8 0 14.5 -6.5t6.5 -15.5q0 -8 -6.5 -14.5t-14.5 -6.5q-110 3 -110 134q0 58 112 358l4 11h-212q-28 -49 -51 -84.5
t-55 -77.5t-61 -68.5t-65.5 -44.5t-71.5 -18q-64 0 -108 38t-44 99q0 66 47 115.5t107 49.5q25 0 46 -10q12 -6 12 -19q0 -8 -6 -14.5t-15 -6.5q-1 0 -14.5 4t-22.5 4q-43 0 -77.5 -38t-34.5 -85q0 -42 32 -68t78 -26q36 0 71.5 21t70 63t58 77t55.5 89h-49q-9 0 -15.5 6.5
t-6.5 14.5q0 9 6.5 15.5t15.5 6.5h74q14 25 39 70.5t34 61.5q91 169 125 213q49 59 103 59q80 0 80 -93q0 -73 -66 -259zM707 403q65 181 65 239q0 55 -39 55q-17 0 -36.5 -12.5t-32.5 -29.5q-33 -43 -122 -207q-5 -8 -27.5 -49t-34.5 -63h203z" />
    <glyph glyph-name="Aacute" unicode="&#xc1;" horiz-adv-x="765" 
d="M736 841l135 93q8 5 16.5 3t13.5 -10q5 -7 3 -16.5t-10 -14.5l-138 -91q-17 -9 -28 7q-7 18 8 29zM747 388q-34 -97 -44 -120q-108 -294 -108 -344q0 -47 16 -69t51 -22q8 0 14.5 -6.5t6.5 -15.5q0 -8 -6.5 -14.5t-14.5 -6.5q-110 3 -110 134q0 58 112 358l4 11h-212
q-28 -49 -51 -84.5t-55 -77.5t-61 -68.5t-65.5 -44.5t-71.5 -18q-64 0 -108 38t-44 99q0 66 47 115.5t107 49.5q25 0 46 -10q12 -6 12 -19q0 -8 -6 -14.5t-15 -6.5q-1 0 -14.5 4t-22.5 4q-43 0 -77.5 -38t-34.5 -85q0 -42 32 -68t78 -26q36 0 71.5 21t70 63t58 77t55.5 89
h-49q-9 0 -15.5 6.5t-6.5 14.5q0 9 6.5 15.5t15.5 6.5h74q14 25 39 70.5t34 61.5q91 169 125 213q49 59 103 59q80 0 80 -93q0 -73 -66 -259zM707 403q65 181 65 239q0 55 -39 55q-17 0 -36.5 -12.5t-32.5 -29.5q-33 -43 -122 -207q-5 -8 -27.5 -49t-34.5 -63h203z" />
    <glyph glyph-name="Acircumflex" unicode="&#xc2;" horiz-adv-x="765" 
d="M886 818q4 -8 1.5 -15.5t-9.5 -9.5q-15 -5 -25 9l-50 75l-103 -73q-15 -11 -26 2q-11 17 3 28l117 91q11 8 21 6t15 -11zM747 388q-34 -97 -44 -120q-108 -294 -108 -344q0 -47 16 -69t51 -22q8 0 14.5 -6.5t6.5 -15.5q0 -8 -6.5 -14.5t-14.5 -6.5q-110 3 -110 134
q0 58 112 358l4 11h-212q-28 -49 -51 -84.5t-55 -77.5t-61 -68.5t-65.5 -44.5t-71.5 -18q-64 0 -108 38t-44 99q0 66 47 115.5t107 49.5q25 0 46 -10q12 -6 12 -19q0 -8 -6 -14.5t-15 -6.5q-1 0 -14.5 4t-22.5 4q-43 0 -77.5 -38t-34.5 -85q0 -42 32 -68t78 -26
q36 0 71.5 21t70 63t58 77t55.5 89h-49q-9 0 -15.5 6.5t-6.5 14.5q0 9 6.5 15.5t15.5 6.5h74q14 25 39 70.5t34 61.5q91 169 125 213q49 59 103 59q80 0 80 -93q0 -73 -66 -259zM707 403q65 181 65 239q0 55 -39 55q-17 0 -36.5 -12.5t-32.5 -29.5q-33 -43 -122 -207
q-5 -8 -27.5 -49t-34.5 -63h203z" />
    <glyph glyph-name="Atilde" unicode="&#xc3;" horiz-adv-x="765" 
d="M912 881q0 -7 -4 -13q-11 -17 -32 -29t-41 -12q-37 0 -62 30q-13 16 -30 16q-22 0 -36 -19q-11 -14 -20 -14q-21 0 -21 21q0 6 6 15q10 17 30.5 28t40.5 11q37 0 62 -30q13 -16 30 -16q24 0 37 22q6 11 19 11q9 0 15 -6t6 -15zM747 388q-34 -97 -44 -120
q-108 -294 -108 -344q0 -47 16 -69t51 -22q8 0 14.5 -6.5t6.5 -15.5q0 -8 -6.5 -14.5t-14.5 -6.5q-110 3 -110 134q0 58 112 358l4 11h-212q-28 -49 -51 -84.5t-55 -77.5t-61 -68.5t-65.5 -44.5t-71.5 -18q-64 0 -108 38t-44 99q0 66 47 115.5t107 49.5q25 0 46 -10
q12 -6 12 -19q0 -8 -6 -14.5t-15 -6.5q-1 0 -14.5 4t-22.5 4q-43 0 -77.5 -38t-34.5 -85q0 -42 32 -68t78 -26q36 0 71.5 21t70 63t58 77t55.5 89h-49q-9 0 -15.5 6.5t-6.5 14.5q0 9 6.5 15.5t15.5 6.5h74q14 25 39 70.5t34 61.5q91 169 125 213q49 59 103 59q80 0 80 -93
q0 -73 -66 -259zM707 403q65 181 65 239q0 55 -39 55q-17 0 -36.5 -12.5t-32.5 -29.5q-33 -43 -122 -207q-5 -8 -27.5 -49t-34.5 -63h203z" />
    <glyph glyph-name="Adieresis" unicode="&#xc4;" horiz-adv-x="765" 
d="M720 869q14 0 24.5 -10.5t10.5 -24.5t-10.5 -24t-24.5 -10t-24 10t-10 24t10 24.5t24 10.5zM830 869q14 0 24.5 -10.5t10.5 -24.5t-10.5 -24t-24.5 -10t-24 10t-10 24t10 24.5t24 10.5zM747 388q-34 -97 -44 -120q-108 -294 -108 -344q0 -47 16 -69t51 -22q8 0 14.5 -6.5
t6.5 -15.5q0 -8 -6.5 -14.5t-14.5 -6.5q-110 3 -110 134q0 58 112 358l4 11h-212q-28 -49 -51 -84.5t-55 -77.5t-61 -68.5t-65.5 -44.5t-71.5 -18q-64 0 -108 38t-44 99q0 66 47 115.5t107 49.5q25 0 46 -10q12 -6 12 -19q0 -8 -6 -14.5t-15 -6.5q-1 0 -14.5 4t-22.5 4
q-43 0 -77.5 -38t-34.5 -85q0 -42 32 -68t78 -26q36 0 71.5 21t70 63t58 77t55.5 89h-49q-9 0 -15.5 6.5t-6.5 14.5q0 9 6.5 15.5t15.5 6.5h74q14 25 39 70.5t34 61.5q91 169 125 213q49 59 103 59q80 0 80 -93q0 -73 -66 -259zM707 403q65 181 65 239q0 55 -39 55
q-17 0 -36.5 -12.5t-32.5 -29.5q-33 -43 -122 -207q-5 -8 -27.5 -49t-34.5 -63h203z" />
    <glyph glyph-name="Aring" unicode="&#xc5;" horiz-adv-x="765" 
d="M799 800q-40 0 -64.5 28.5t-18.5 68.5q6 36 34 60t64 24q39 0 64 -28.5t19 -67.5q-6 -36 -34 -60.5t-64 -24.5zM799 842q20 0 36.5 14.5t19.5 34.5t-9 34t-32 14t-36.5 -14t-19.5 -34q-3 -21 8.5 -35t32.5 -14zM747 388q-34 -97 -44 -120q-108 -294 -108 -344
q0 -47 16 -69t51 -22q8 0 14.5 -6.5t6.5 -15.5q0 -8 -6.5 -14.5t-14.5 -6.5q-110 3 -110 134q0 58 112 358l4 11h-212q-28 -49 -51 -84.5t-55 -77.5t-61 -68.5t-65.5 -44.5t-71.5 -18q-64 0 -108 38t-44 99q0 66 47 115.5t107 49.5q25 0 46 -10q12 -6 12 -19q0 -8 -6 -14.5
t-15 -6.5q-1 0 -14.5 4t-22.5 4q-43 0 -77.5 -38t-34.5 -85q0 -42 32 -68t78 -26q36 0 71.5 21t70 63t58 77t55.5 89h-49q-9 0 -15.5 6.5t-6.5 14.5q0 9 6.5 15.5t15.5 6.5h74q14 25 39 70.5t34 61.5q91 169 125 213q49 59 103 59q80 0 80 -93q0 -73 -66 -259zM707 403
q65 181 65 239q0 55 -39 55q-17 0 -36.5 -12.5t-32.5 -29.5q-33 -43 -122 -207q-5 -8 -27.5 -49t-34.5 -63h203z" />
    <glyph glyph-name="AE" unicode="&#xc6;" horiz-adv-x="1106" 
d="M1151 239q13 -7 13 -20q0 -2 -2 -8q-55 -135 -133.5 -203t-190.5 -68q-92 0 -150 54t-58 144q0 67 27 124q1 4 3.5 11t3.5 9l4 11h-212q-28 -49 -51 -84.5t-55 -77.5t-61 -68.5t-65.5 -44.5t-71.5 -18q-64 0 -108 38t-44 99q0 66 47 115.5t107 49.5q25 0 46 -10
q12 -6 12 -19q0 -8 -6 -14.5t-15 -6.5q-1 0 -14.5 4t-22.5 4q-43 0 -77.5 -38t-34.5 -85q0 -42 32 -68t78 -26q36 0 71.5 21t70 63t58 77t55.5 89h-49q-9 0 -15.5 6.5t-6.5 14.5q0 9 6.5 15.5t15.5 6.5h74q14 25 39 70.5t34 61.5q91 169 125 213q49 59 103 59q80 0 80 -93
v-11q34 48 87.5 76.5t114.5 28.5q48 0 78.5 -21.5t30.5 -58.5q-1 -40 -39 -73q-6 -6 -15 -6t-15 6t-6 15q0 11 8 17q24 19 25 41q0 18 -19.5 28t-47.5 10q-84 0 -143 -58t-59 -136q0 -45 44 -84q54 14 87 14q24 0 42.5 -12t18.5 -32q0 -24 -16.5 -37.5t-42.5 -13.5
q-46 0 -97 34q-81 -29 -129 -93.5t-48 -142.5q0 -74 46.5 -115t119.5 -41q99 0 166.5 61t118.5 184q3 8 11.5 11.5t16.5 0.5zM480 336h203l24 67q65 181 65 239q0 55 -39 55q-17 0 -36.5 -12.5t-32.5 -29.5q-33 -43 -122 -207q-5 -8 -27.5 -49t-34.5 -63zM813 405
q-28 29 -38 65q-10 -31 -28 -82q-2 -4 -5.5 -13.5t-4.5 -13.5q32 25 76 44zM946 393q-12 0 -36 -4q22 -9 44 -7q3 0 5.5 1t3.5 2t0 2q0 6 -17 6z" />
    <glyph glyph-name="Ccedilla" unicode="&#xc7;" horiz-adv-x="593" 
d="M637 239q19 -9 12 -28q-57 -137 -135 -208t-190 -71h-2l-17 -37q34 3 52.5 -15.5t13.5 -52.5q-11 -78 -104 -78q-37 0 -65 22q-10 8 -8 19.5t12 15.5t21 -2q19 -13 46 -13q51 0 56 36q3 21 -7.5 29t-35.5 3q-13 -3 -21 3.5t-4 15.5l26 56q-78 11 -119.5 64.5t-41.5 138.5
q0 74 42 205q-78 18 -123 69t-45 126q0 107 72 195q6 7 16 7q9 0 15 -6t6 -15t-5 -14q-27 -30 -44.5 -77t-17.5 -88q0 -64 38 -103.5t103 -53.5q23 64 53.5 124t70 114t89 86t100.5 31q60 -1 92 -40t32 -100q0 -80 -57 -142.5t-139 -92.5t-170 -30q-18 0 -44 3
q-42 -135 -42 -198q0 -79 41 -121t115 -42q99 0 167 63.5t119 189.5q3 8 11 11.5t16 0.5zM496 695q-42 0 -85 -31t-78 -80.5t-62 -102.5t-46 -106q8 -1 26 -1q77 0 150.5 25.5t125 78t51.5 119.5q0 44 -21 71t-61 27z" />
    <glyph glyph-name="Egrave" unicode="&#xc8;" horiz-adv-x="476" 
d="M463 835q14 -12 3 -28q-12 -14 -26 -2l-110 97q-16 14 -3 32q16 16 31 2zM521 239q13 -7 13 -20q0 -2 -2 -8q-55 -135 -133.5 -203t-190.5 -68q-92 0 -150 54t-58 144q0 94 49.5 162.5t133.5 104.5q-43 46 -43 99q0 23 9 59q-91 41 -140 145q-2 6 -2 10q0 12 12 18
q6 2 9 2q13 0 19 -12q22 -46 46.5 -71t69.5 -53q30 64 90 101.5t132 37.5q48 0 78.5 -21.5t30.5 -58.5q-1 -37 -33.5 -67.5t-80.5 -46t-97 -15.5q-44 0 -95 15q-5 -18 -5 -42q0 -45 44 -84q54 14 87 14q24 0 42.5 -12t18.5 -32q0 -24 -16.5 -37.5t-42.5 -13.5q-46 0 -97 34
q-81 -29 -129 -93.5t-48 -142.5q0 -74 46.5 -115t119.5 -41q99 0 166.5 61t118.5 184q3 8 11.5 11.5t16.5 0.5zM202 587q39 -12 81 -12q58 0 112.5 25t56.5 61q0 18 -19.5 28t-47.5 10q-59 0 -109 -31.5t-74 -80.5zM280 389q22 -9 44 -7q3 0 5.5 1t3.5 2t0 2q0 6 -17 6
q-12 0 -36 -4z" />
    <glyph glyph-name="Eacute" unicode="&#xc9;" horiz-adv-x="476" 
d="M362 842l135 93q8 5 16.5 3t13.5 -10q5 -7 3 -16.5t-10 -14.5l-138 -91q-17 -9 -28 7q-7 18 8 29zM521 239q13 -7 13 -20q0 -2 -2 -8q-55 -135 -133.5 -203t-190.5 -68q-92 0 -150 54t-58 144q0 94 49.5 162.5t133.5 104.5q-43 46 -43 99q0 23 9 59q-91 41 -140 145
q-2 6 -2 10q0 12 12 18q6 2 9 2q13 0 19 -12q22 -46 46.5 -71t69.5 -53q30 64 90 101.5t132 37.5q48 0 78.5 -21.5t30.5 -58.5q-1 -37 -33.5 -67.5t-80.5 -46t-97 -15.5q-44 0 -95 15q-5 -18 -5 -42q0 -45 44 -84q54 14 87 14q24 0 42.5 -12t18.5 -32q0 -24 -16.5 -37.5
t-42.5 -13.5q-46 0 -97 34q-81 -29 -129 -93.5t-48 -142.5q0 -74 46.5 -115t119.5 -41q99 0 166.5 61t118.5 184q3 8 11.5 11.5t16.5 0.5zM202 587q39 -12 81 -12q58 0 112.5 25t56.5 61q0 18 -19.5 28t-47.5 10q-59 0 -109 -31.5t-74 -80.5zM280 389q22 -9 44 -7q3 0 5.5 1
t3.5 2t0 2q0 6 -17 6q-12 0 -36 -4z" />
    <glyph glyph-name="Ecircumflex" unicode="&#xca;" horiz-adv-x="476" 
d="M512 819q4 -8 1.5 -15.5t-9.5 -9.5q-15 -5 -25 9l-50 75l-103 -73q-15 -11 -26 2q-11 17 3 28l117 91q11 8 21 6t15 -11zM521 239q13 -7 13 -20q0 -2 -2 -8q-55 -135 -133.5 -203t-190.5 -68q-92 0 -150 54t-58 144q0 94 49.5 162.5t133.5 104.5q-43 46 -43 99q0 23 9 59
q-91 41 -140 145q-2 6 -2 10q0 12 12 18q6 2 9 2q13 0 19 -12q22 -46 46.5 -71t69.5 -53q30 64 90 101.5t132 37.5q48 0 78.5 -21.5t30.5 -58.5q-1 -37 -33.5 -67.5t-80.5 -46t-97 -15.5q-44 0 -95 15q-5 -18 -5 -42q0 -45 44 -84q54 14 87 14q24 0 42.5 -12t18.5 -32
q0 -24 -16.5 -37.5t-42.5 -13.5q-46 0 -97 34q-81 -29 -129 -93.5t-48 -142.5q0 -74 46.5 -115t119.5 -41q99 0 166.5 61t118.5 184q3 8 11.5 11.5t16.5 0.5zM202 587q39 -12 81 -12q58 0 112.5 25t56.5 61q0 18 -19.5 28t-47.5 10q-59 0 -109 -31.5t-74 -80.5zM280 389
q22 -9 44 -7q3 0 5.5 1t3.5 2t0 2q0 6 -17 6q-12 0 -36 -4z" />
    <glyph glyph-name="Edieresis" unicode="&#xcb;" horiz-adv-x="476" 
d="M346 870q14 0 24.5 -10.5t10.5 -24.5t-10.5 -24t-24.5 -10t-24 10t-10 24t10 24.5t24 10.5zM456 870q14 0 24.5 -10.5t10.5 -24.5t-10.5 -24t-24.5 -10t-24 10t-10 24t10 24.5t24 10.5zM521 239q13 -7 13 -20q0 -2 -2 -8q-55 -135 -133.5 -203t-190.5 -68q-92 0 -150 54
t-58 144q0 94 49.5 162.5t133.5 104.5q-43 46 -43 99q0 23 9 59q-91 41 -140 145q-2 6 -2 10q0 12 12 18q6 2 9 2q13 0 19 -12q22 -46 46.5 -71t69.5 -53q30 64 90 101.5t132 37.5q48 0 78.5 -21.5t30.5 -58.5q-1 -37 -33.5 -67.5t-80.5 -46t-97 -15.5q-44 0 -95 15
q-5 -18 -5 -42q0 -45 44 -84q54 14 87 14q24 0 42.5 -12t18.5 -32q0 -24 -16.5 -37.5t-42.5 -13.5q-46 0 -97 34q-81 -29 -129 -93.5t-48 -142.5q0 -74 46.5 -115t119.5 -41q99 0 166.5 61t118.5 184q3 8 11.5 11.5t16.5 0.5zM202 587q39 -12 81 -12q58 0 112.5 25t56.5 61
q0 18 -19.5 28t-47.5 10q-59 0 -109 -31.5t-74 -80.5zM280 389q22 -9 44 -7q3 0 5.5 1t3.5 2t0 2q0 6 -17 6q-12 0 -36 -4z" />
    <glyph glyph-name="Igrave" unicode="&#xcc;" horiz-adv-x="544" 
d="M720 873q14 -12 3 -28q-12 -14 -26 -2l-110 97q-16 14 -3 32q16 16 31 2zM713 722q0 -33 -42 -60.5t-101 -43.5q-38 -115 -62 -203q-12 -43 -20 -69.5t-22 -70t-25.5 -71.5t-29.5 -66t-35 -62t-40.5 -50.5t-48 -41.5t-55 -25t-63.5 -10q-74 0 -121.5 52t-47.5 132
q0 84 69 146.5t152 60.5q9 0 15 -6.5t6 -15.5q0 -8 -6.5 -14t-15.5 -6q-70 0 -124 -50.5t-54 -115.5q-1 -61 35.5 -101t92.5 -40q40 0 75.5 17.5t63.5 52t49.5 71.5t42 91t33 94t29.5 96l1.5 4.5t1 4.5t1.5 5q6 21 19 63t24 77.5t12 38.5l-29 -6q-118 -27 -157 -48
q-59 -30 -59 -78q-1 -39 22 -64.5t57 -25.5q8 0 14.5 -6.5t5.5 -15.5q0 -8 -6.5 -14t-14.5 -6q-52 0 -87.5 38.5t-33.5 94.5q1 20 5 37t14 30.5t19 24t27 19.5t29.5 14.5t36 12t37 9.5t41.5 9.5t41 9.5l54 12q19 50 50 86.5t66 36.5q26 0 42.5 -15t16.5 -39zM590 668
q30 6 54 23.5t24 30.5q0 14 -14 14q-16 0 -33.5 -20t-30.5 -48z" />
    <glyph glyph-name="Iacute" unicode="&#xcd;" horiz-adv-x="544" 
d="M619 880l135 93q8 5 16.5 3t13.5 -10q5 -7 3 -16.5t-10 -14.5l-138 -91q-17 -9 -28 7q-7 18 8 29zM713 722q0 -33 -42 -60.5t-101 -43.5q-38 -115 -62 -203q-12 -43 -20 -69.5t-22 -70t-25.5 -71.5t-29.5 -66t-35 -62t-40.5 -50.5t-48 -41.5t-55 -25t-63.5 -10
q-74 0 -121.5 52t-47.5 132q0 84 69 146.5t152 60.5q9 0 15 -6.5t6 -15.5q0 -8 -6.5 -14t-15.5 -6q-70 0 -124 -50.5t-54 -115.5q-1 -61 35.5 -101t92.5 -40q40 0 75.5 17.5t63.5 52t49.5 71.5t42 91t33 94t29.5 96l1.5 4.5t1 4.5t1.5 5q6 21 19 63t24 77.5t12 38.5l-29 -6
q-118 -27 -157 -48q-59 -30 -59 -78q-1 -39 22 -64.5t57 -25.5q8 0 14.5 -6.5t5.5 -15.5q0 -8 -6.5 -14t-14.5 -6q-52 0 -87.5 38.5t-33.5 94.5q1 20 5 37t14 30.5t19 24t27 19.5t29.5 14.5t36 12t37 9.5t41.5 9.5t41 9.5l54 12q19 50 50 86.5t66 36.5q26 0 42.5 -15
t16.5 -39zM590 668q30 6 54 23.5t24 30.5q0 14 -14 14q-16 0 -33.5 -20t-30.5 -48z" />
    <glyph glyph-name="Icircumflex" unicode="&#xce;" horiz-adv-x="544" 
d="M786 852q4 -8 1.5 -15.5t-9.5 -9.5q-15 -5 -25 9l-50 75l-103 -73q-15 -11 -26 2q-11 17 3 28l117 91q11 8 21 6t15 -11zM713 722q0 -33 -42 -60.5t-101 -43.5q-38 -115 -62 -203q-12 -43 -20 -69.5t-22 -70t-25.5 -71.5t-29.5 -66t-35 -62t-40.5 -50.5t-48 -41.5
t-55 -25t-63.5 -10q-74 0 -121.5 52t-47.5 132q0 84 69 146.5t152 60.5q9 0 15 -6.5t6 -15.5q0 -8 -6.5 -14t-15.5 -6q-70 0 -124 -50.5t-54 -115.5q-1 -61 35.5 -101t92.5 -40q40 0 75.5 17.5t63.5 52t49.5 71.5t42 91t33 94t29.5 96l1.5 4.5t1 4.5t1.5 5q6 21 19 63
t24 77.5t12 38.5l-29 -6q-118 -27 -157 -48q-59 -30 -59 -78q-1 -39 22 -64.5t57 -25.5q8 0 14.5 -6.5t5.5 -15.5q0 -8 -6.5 -14t-14.5 -6q-52 0 -87.5 38.5t-33.5 94.5q1 20 5 37t14 30.5t19 24t27 19.5t29.5 14.5t36 12t37 9.5t41.5 9.5t41 9.5l54 12q19 50 50 86.5
t66 36.5q26 0 42.5 -15t16.5 -39zM590 668q30 6 54 23.5t24 30.5q0 14 -14 14q-16 0 -33.5 -20t-30.5 -48z" />
    <glyph glyph-name="Idieresis" unicode="&#xcf;" horiz-adv-x="544" 
d="M635 903q14 0 24.5 -10.5t10.5 -24.5t-10.5 -24t-24.5 -10t-24 10t-10 24t10 24.5t24 10.5zM745 903q14 0 24.5 -10.5t10.5 -24.5t-10.5 -24t-24.5 -10t-24 10t-10 24t10 24.5t24 10.5zM713 722q0 -33 -42 -60.5t-101 -43.5q-38 -115 -62 -203q-12 -43 -20 -69.5t-22 -70
t-25.5 -71.5t-29.5 -66t-35 -62t-40.5 -50.5t-48 -41.5t-55 -25t-63.5 -10q-74 0 -121.5 52t-47.5 132q0 84 69 146.5t152 60.5q9 0 15 -6.5t6 -15.5q0 -8 -6.5 -14t-15.5 -6q-70 0 -124 -50.5t-54 -115.5q-1 -61 35.5 -101t92.5 -40q40 0 75.5 17.5t63.5 52t49.5 71.5
t42 91t33 94t29.5 96l1.5 4.5t1 4.5t1.5 5q6 21 19 63t24 77.5t12 38.5l-29 -6q-118 -27 -157 -48q-59 -30 -59 -78q-1 -39 22 -64.5t57 -25.5q8 0 14.5 -6.5t5.5 -15.5q0 -8 -6.5 -14t-14.5 -6q-52 0 -87.5 38.5t-33.5 94.5q1 20 5 37t14 30.5t19 24t27 19.5t29.5 14.5
t36 12t37 9.5t41.5 9.5t41 9.5l54 12q19 50 50 86.5t66 36.5q26 0 42.5 -15t16.5 -39zM590 668q30 6 54 23.5t24 30.5q0 14 -14 14q-16 0 -33.5 -20t-30.5 -48z" />
    <glyph glyph-name="Eth" unicode="&#xd0;" horiz-adv-x="833" 
d="M535 739q134 -6 199 -95.5t65 -237.5q0 -81 -20.5 -163.5t-58 -152.5t-98 -114t-131.5 -44q-73 0 -119.5 35.5t-46.5 95.5q0 48 30.5 79t72.5 31q34 0 59.5 -21.5t37.5 -58.5q3 -10 -3 -19t-16 -9q-15 0 -20 14q-20 52 -58 52q-25 0 -43 -20t-18 -48q0 -43 36.5 -66
t87.5 -23q62 0 114.5 41.5t84.5 107t49.5 139.5t17.5 144q0 131 -54 208t-168 83q-133 0 -209.5 -93t-78.5 -241q0 -9 -6 -15t-15 -6q-8 0 -14.5 6t-6.5 15q2 167 91 271.5t239 104.5zM501 342h-85q-19 -60 -34 -101.5t-39.5 -91t-50.5 -79.5t-64 -50.5t-82 -20.5
q-63 0 -104.5 37.5t-41.5 97.5q0 65 43.5 115t100.5 50q16 0 29 -4q15 -5 15 -20q0 -10 -8 -16.5t-19 -4.5q-10 2 -16 2q-40 0 -71.5 -37.5t-31.5 -82.5t29.5 -70t73.5 -25q36 0 67.5 18.5t53.5 45.5t43 70t34 79.5t29 87.5h-56q-9 0 -15 6t-6 15q2 21 22 21h68q2 4 4 12
q44 147 74 206q32 61 91 76q22 5 25 -18q0 -20 -17 -24q-17 -3 -34.5 -19t-26.5 -35q-26 -50 -72 -198h71q20 0 22 -21q0 -9 -6 -15t-15 -6z" />
    <glyph glyph-name="Ntilde" unicode="&#xd1;" horiz-adv-x="767" 
d="M866 881q0 -7 -4 -13q-11 -17 -32 -29t-41 -12q-37 0 -62 30q-13 16 -30 16q-22 0 -36 -19q-11 -14 -20 -14q-21 0 -21 21q0 6 6 15q10 17 30.5 28t40.5 11q37 0 62 -30q13 -16 30 -16q24 0 37 22q6 11 19 11q9 0 15 -6t6 -15zM1 720q1 19 19 19q8 0 14 -5.5t6 -14.5
q0 -116 117 -116q41 0 100.5 28t87.5 47t87 61q24 19 50 36q4 3 11 3q11 0 16 -8q6 -9 3 -18l-58 -177q64 82 115.5 123t112.5 41q122 0 122 -126q1 -46 -14.5 -107.5t-57.5 -184.5q-10 -31 -48.5 -139t-58 -169.5t-19.5 -82.5q0 -46 16.5 -67.5t51.5 -23.5q8 0 14 -5.5
t6 -13.5t-6 -14t-14 -6q-53 0 -80.5 34t-27.5 96q0 15 7 42t20.5 69t27 81.5t35.5 102t38 109.5q71 212 71 279q-2 86 -83 86q-35 0 -70.5 -21t-72.5 -63t-63.5 -77t-63.5 -91q-17 -51 -44 -137q-63 -198 -92.5 -254t-84.5 -56q-51 0 -51 61q0 21 10 48.5t29.5 60t33 53.5
t36.5 52.5t24 33.5l103 156l79 242q-61 -44 -95.5 -66.5t-95.5 -49.5t-107 -27q-73 0 -118 43.5t-38 112.5zM327 315q-2 -4 -22 -30q-124 -167 -126 -225q0 -20 13 -20q33 0 56.5 48.5t78.5 226.5z" />
    <glyph glyph-name="Ograve" unicode="&#xd2;" horiz-adv-x="735" 
d="M668 834q14 -12 3 -28q-12 -14 -26 -2l-110 97q-16 14 -3 32q16 16 31 2zM791 208q-61 -146 -152 -146q-47 0 -75 28q-50 -63 -102 -96t-116 -33q-83 0 -124 55.5t-41 151.5q0 64 17 143t44 141q-27 -4 -58 -4q-84 0 -134 38.5t-50 105.5q0 64 55 119q6 6 14 6q9 0 16 -7
q6 -6 6 -14q0 -9 -6 -15q-43 -43 -43 -89q0 -49 40 -75.5t102 -26.5q37 0 80 8q100 196 224 196q49 0 49 -43q0 -58 -79 -114t-165 -76q-70 -143 -70 -293q0 -165 123 -165q55 0 105.5 35t87.5 90q-18 48 -1 94q5 16 21 16q10 0 16 -8.5t4 -18.5q-3 -9 -5 -29q50 86 81 187
t31 188q0 157 -106 157q-23 0 -54 -7q-11 -3 -19 3t-8 15q0 18 17 23q29 8 60 8q79 0 115.5 -54t36.5 -146q0 -100 -40 -221t-100 -210q17 -21 48 -21q36 0 63 30t53 91q5 13 19 13q10 0 17 -9.5t3 -20.5zM320 513q65 24 119.5 60t54.5 66q0 13 -13 13q-75 0 -161 -139z" />
    <glyph glyph-name="Oacute" unicode="&#xd3;" horiz-adv-x="735" 
d="M567 841l135 93q8 5 16.5 3t13.5 -10q5 -7 3 -16.5t-10 -14.5l-138 -91q-17 -9 -28 7q-7 18 8 29zM791 208q-61 -146 -152 -146q-47 0 -75 28q-50 -63 -102 -96t-116 -33q-83 0 -124 55.5t-41 151.5q0 64 17 143t44 141q-27 -4 -58 -4q-84 0 -134 38.5t-50 105.5
q0 64 55 119q6 6 14 6q9 0 16 -7q6 -6 6 -14q0 -9 -6 -15q-43 -43 -43 -89q0 -49 40 -75.5t102 -26.5q37 0 80 8q100 196 224 196q49 0 49 -43q0 -58 -79 -114t-165 -76q-70 -143 -70 -293q0 -165 123 -165q55 0 105.5 35t87.5 90q-18 48 -1 94q5 16 21 16q10 0 16 -8.5
t4 -18.5q-3 -9 -5 -29q50 86 81 187t31 188q0 157 -106 157q-23 0 -54 -7q-11 -3 -19 3t-8 15q0 18 17 23q29 8 60 8q79 0 115.5 -54t36.5 -146q0 -100 -40 -221t-100 -210q17 -21 48 -21q36 0 63 30t53 91q5 13 19 13q10 0 17 -9.5t3 -20.5zM320 513q65 24 119.5 60
t54.5 66q0 13 -13 13q-75 0 -161 -139z" />
    <glyph glyph-name="Ocircumflex" unicode="&#xd4;" horiz-adv-x="735" 
d="M717 818q4 -8 1.5 -15.5t-9.5 -9.5q-15 -5 -25 9l-50 75l-103 -73q-15 -11 -26 2q-11 17 3 28l117 91q11 8 21 6t15 -11zM791 208q-61 -146 -152 -146q-47 0 -75 28q-50 -63 -102 -96t-116 -33q-83 0 -124 55.5t-41 151.5q0 64 17 143t44 141q-27 -4 -58 -4
q-84 0 -134 38.5t-50 105.5q0 64 55 119q6 6 14 6q9 0 16 -7q6 -6 6 -14q0 -9 -6 -15q-43 -43 -43 -89q0 -49 40 -75.5t102 -26.5q37 0 80 8q100 196 224 196q49 0 49 -43q0 -58 -79 -114t-165 -76q-70 -143 -70 -293q0 -165 123 -165q55 0 105.5 35t87.5 90q-18 48 -1 94
q5 16 21 16q10 0 16 -8.5t4 -18.5q-3 -9 -5 -29q50 86 81 187t31 188q0 157 -106 157q-23 0 -54 -7q-11 -3 -19 3t-8 15q0 18 17 23q29 8 60 8q79 0 115.5 -54t36.5 -146q0 -100 -40 -221t-100 -210q17 -21 48 -21q36 0 63 30t53 91q5 13 19 13q10 0 17 -9.5t3 -20.5z
M320 513q65 24 119.5 60t54.5 66q0 13 -13 13q-75 0 -161 -139z" />
    <glyph glyph-name="Otilde" unicode="&#xd5;" horiz-adv-x="735" 
d="M743 881q0 -7 -4 -13q-11 -17 -32 -29t-41 -12q-37 0 -62 30q-13 16 -30 16q-22 0 -36 -19q-10 -14 -20 -14q-21 0 -21 21q0 6 6 15q10 17 30.5 28t40.5 11q37 0 62 -30q13 -16 30 -16q24 0 37 22q6 11 19 11q9 0 15 -6t6 -15zM791 208q-61 -146 -152 -146q-47 0 -75 28
q-50 -63 -102 -96t-116 -33q-83 0 -124 55.5t-41 151.5q0 64 17 143t44 141q-27 -4 -58 -4q-84 0 -134 38.5t-50 105.5q0 64 55 119q6 6 14 6q9 0 16 -7q6 -6 6 -14q0 -9 -6 -15q-43 -43 -43 -89q0 -49 40 -75.5t102 -26.5q37 0 80 8q100 196 224 196q49 0 49 -43
q0 -58 -79 -114t-165 -76q-70 -143 -70 -293q0 -165 123 -165q55 0 105.5 35t87.5 90q-18 48 -1 94q5 16 21 16q10 0 16 -8.5t4 -18.5q-3 -9 -5 -29q50 86 81 187t31 188q0 157 -106 157q-23 0 -54 -7q-11 -3 -19 3t-8 15q0 18 17 23q29 8 60 8q79 0 115.5 -54t36.5 -146
q0 -100 -40 -221t-100 -210q17 -21 48 -21q36 0 63 30t53 91q5 13 19 13q10 0 17 -9.5t3 -20.5zM320 513q65 24 119.5 60t54.5 66q0 13 -13 13q-75 0 -161 -139z" />
    <glyph glyph-name="Odieresis" unicode="&#xd6;" horiz-adv-x="735" 
d="M551 869q14 0 24.5 -10.5t10.5 -24.5t-10.5 -24t-24.5 -10t-24 10t-10 24t10 24.5t24 10.5zM661 869q14 0 24.5 -10.5t10.5 -24.5t-10.5 -24t-24.5 -10t-24 10t-10 24t10 24.5t24 10.5zM791 208q-61 -146 -152 -146q-47 0 -75 28q-50 -63 -102 -96t-116 -33
q-83 0 -124 55.5t-41 151.5q0 64 17 143t44 141q-27 -4 -58 -4q-84 0 -134 38.5t-50 105.5q0 64 55 119q6 6 14 6q9 0 16 -7q6 -6 6 -14q0 -9 -6 -15q-43 -43 -43 -89q0 -49 40 -75.5t102 -26.5q37 0 80 8q100 196 224 196q49 0 49 -43q0 -58 -79 -114t-165 -76
q-70 -143 -70 -293q0 -165 123 -165q55 0 105.5 35t87.5 90q-18 48 -1 94q5 16 21 16q10 0 16 -8.5t4 -18.5q-3 -9 -5 -29q50 86 81 187t31 188q0 157 -106 157q-23 0 -54 -7q-11 -3 -19 3t-8 15q0 18 17 23q29 8 60 8q79 0 115.5 -54t36.5 -146q0 -100 -40 -221t-100 -210
q17 -21 48 -21q36 0 63 30t53 91q5 13 19 13q10 0 17 -9.5t3 -20.5zM320 513q65 24 119.5 60t54.5 66q0 13 -13 13q-75 0 -161 -139z" />
    <glyph glyph-name="multiply" unicode="&#xd7;" horiz-adv-x="353" 
d="M339 460q15 -15 2 -27l-123 -115l34 -105q5 -17 -14 -24q-21 -6 -26 11l-28 87l-101 -94q-12 -12 -28 3q-13 17 0 28l115 107l-37 112q-2 7 2.5 14t12.5 9q19 7 25 -10l31 -94l108 101q14 12 27 -3z" />
    <glyph glyph-name="Oslash" unicode="&#xd8;" horiz-adv-x="735" 
d="M771 238q10 0 17 -9.5t3 -20.5q-61 -146 -152 -146q-47 0 -75 28q-50 -63 -102 -96t-116 -33q-28 0 -50 6q-14 -29 -24 -57q-5 -13 -16.5 -14t-18.5 8.5t-2 22.5l23 57q-77 48 -77 184q0 64 17 143t44 141q-27 -4 -58 -4q-84 0 -134 38.5t-50 105.5q0 64 55 119q6 6 14 6
q9 0 16 -7q6 -6 6 -14q0 -9 -6 -15q-43 -43 -43 -89q0 -49 40 -75.5t102 -26.5q37 0 80 8q100 196 224 196q49 0 49 -43q0 -58 -79 -114t-165 -76q-70 -143 -70 -293q0 -107 52 -145q149 337 359 676q-23 15 -54 15q-23 0 -54 -7q-11 -3 -19 3t-8 15q0 18 17 23q29 8 60 8
q48 0 80 -21l38 58q9 13 20.5 12t15 -11.5t-3.5 -24.5q-13 -19 -39 -61q41 -51 41 -152q0 -100 -40 -221t-100 -210q17 -21 48 -21q36 0 63 30t53 91q5 13 19 13zM559 238q10 0 16 -8.5t4 -18.5q-3 -9 -5 -29q50 86 81 187t31 188q0 72 -24 112q-202 -324 -350 -662
q15 -4 34 -4q55 0 105.5 35t87.5 90q-18 48 -1 94q5 16 21 16zM481 652q-75 0 -161 -139q65 24 119.5 60t54.5 66q0 13 -13 13z" />
    <glyph glyph-name="Ugrave" unicode="&#xd9;" horiz-adv-x="776" 
d="M736 834q14 -12 3 -28q-12 -14 -26 -2l-110 97q-16 14 -3 32q16 16 31 2zM418 657q19 50 49.5 85.5t65.5 35.5q26 0 42.5 -15t16.5 -39q0 -33 -42 -60.5t-101 -43.5q-43 -105 -96 -288t-53 -227q0 -90 68 -90h1q33 0 63 14t57 45t49 66t47.5 91.5t45 106t46.5 125.5
q9 25 44 120t55 149q5 14 20 14q20 0 20 -20q0 -5 -1 -8l-98 -269l-54 -151q-45 -135 -45 -204q0 -52 27 -52q17 0 34 10t29.5 23.5t27 37t22.5 39.5t20 42q3 6 8 17t7 15q6 12 19 12q10 0 15.5 -7t5.5 -14q0 -4 -2 -10q-8 -19 -15 -31q-15 -31 -24 -48.5t-26.5 -45.5
t-33.5 -43t-39 -27t-48 -12q-69 0 -69 94q0 20 1 31q-45 -73 -95 -113t-113 -40h-2q-54 1 -81.5 37t-27.5 96q0 46 43 197.5t99 308.5q-23 -5 -61 -10q-40 -6 -57 -9t-55.5 -11t-58 -15.5t-48 -20.5t-42.5 -27t-25 -35t-11 -46q-1 -39 22 -64.5t57 -25.5q9 0 15 -6.5
t6 -15.5q-1 -8 -7.5 -14.5t-14.5 -5.5q-52 0 -86 38.5t-34 93.5q0 32 11.5 58.5t28.5 45t46.5 34t54 25t63.5 18.5t63.5 13.5t64.5 10.5zM469 670q30 6 54 23.5t24 30.5q0 14 -14 14q-15 0 -33 -20t-31 -48z" />
    <glyph glyph-name="Uacute" unicode="&#xda;" horiz-adv-x="776" 
d="M645 861l135 93q8 5 16.5 3t13.5 -10q5 -7 3 -16.5t-10 -14.5l-138 -91q-17 -9 -28 7q-7 18 8 29zM418 657q19 50 49.5 85.5t65.5 35.5q26 0 42.5 -15t16.5 -39q0 -33 -42 -60.5t-101 -43.5q-43 -105 -96 -288t-53 -227q0 -90 68 -90h1q33 0 63 14t57 45t49 66t47.5 91.5
t45 106t46.5 125.5q9 25 44 120t55 149q5 14 20 14q20 0 20 -20q0 -5 -1 -8l-98 -269l-54 -151q-45 -135 -45 -204q0 -52 27 -52q17 0 34 10t29.5 23.5t27 37t22.5 39.5t20 42q3 6 8 17t7 15q6 12 19 12q10 0 15.5 -7t5.5 -14q0 -4 -2 -10q-8 -19 -15 -31q-15 -31 -24 -48.5
t-26.5 -45.5t-33.5 -43t-39 -27t-48 -12q-69 0 -69 94q0 20 1 31q-45 -73 -95 -113t-113 -40h-2q-54 1 -81.5 37t-27.5 96q0 46 43 197.5t99 308.5q-23 -5 -61 -10q-40 -6 -57 -9t-55.5 -11t-58 -15.5t-48 -20.5t-42.5 -27t-25 -35t-11 -46q-1 -39 22 -64.5t57 -25.5
q9 0 15 -6.5t6 -15.5q-1 -8 -7.5 -14.5t-14.5 -5.5q-52 0 -86 38.5t-34 93.5q0 32 11.5 58.5t28.5 45t46.5 34t54 25t63.5 18.5t63.5 13.5t64.5 10.5zM469 670q30 6 54 23.5t24 30.5q0 14 -14 14q-15 0 -33 -20t-31 -48z" />
    <glyph glyph-name="Ucircumflex" unicode="&#xdb;" horiz-adv-x="776" 
d="M795 838q4 -8 1.5 -15.5t-9.5 -9.5q-15 -5 -25 9l-50 75l-103 -73q-15 -11 -26 2q-11 17 3 28l117 91q11 8 21 6t15 -11zM418 657q19 50 49.5 85.5t65.5 35.5q26 0 42.5 -15t16.5 -39q0 -33 -42 -60.5t-101 -43.5q-43 -105 -96 -288t-53 -227q0 -90 68 -90h1q33 0 63 14
t57 45t49 66t47.5 91.5t45 106t46.5 125.5q9 25 44 120t55 149q5 14 20 14q20 0 20 -20q0 -5 -1 -8l-98 -269l-54 -151q-45 -135 -45 -204q0 -52 27 -52q17 0 34 10t29.5 23.5t27 37t22.5 39.5t20 42q3 6 8 17t7 15q6 12 19 12q10 0 15.5 -7t5.5 -14q0 -4 -2 -10
q-8 -19 -15 -31q-15 -31 -24 -48.5t-26.5 -45.5t-33.5 -43t-39 -27t-48 -12q-69 0 -69 94q0 20 1 31q-45 -73 -95 -113t-113 -40h-2q-54 1 -81.5 37t-27.5 96q0 46 43 197.5t99 308.5q-23 -5 -61 -10q-40 -6 -57 -9t-55.5 -11t-58 -15.5t-48 -20.5t-42.5 -27t-25 -35
t-11 -46q-1 -39 22 -64.5t57 -25.5q9 0 15 -6.5t6 -15.5q-1 -8 -7.5 -14.5t-14.5 -5.5q-52 0 -86 38.5t-34 93.5q0 32 11.5 58.5t28.5 45t46.5 34t54 25t63.5 18.5t63.5 13.5t64.5 10.5zM469 670q30 6 54 23.5t24 30.5q0 14 -14 14q-15 0 -33 -20t-31 -48z" />
    <glyph glyph-name="Udieresis" unicode="&#xdc;" horiz-adv-x="776" 
d="M629 889q14 0 24.5 -10.5t10.5 -24.5t-10.5 -24t-24.5 -10t-24 10t-10 24t10 24.5t24 10.5zM739 889q14 0 24.5 -10.5t10.5 -24.5t-10.5 -24t-24.5 -10t-24 10t-10 24t10 24.5t24 10.5zM418 657q19 50 49.5 85.5t65.5 35.5q26 0 42.5 -15t16.5 -39q0 -33 -42 -60.5
t-101 -43.5q-43 -105 -96 -288t-53 -227q0 -90 68 -90h1q33 0 63 14t57 45t49 66t47.5 91.5t45 106t46.5 125.5q9 25 44 120t55 149q5 14 20 14q20 0 20 -20q0 -5 -1 -8l-98 -269l-54 -151q-45 -135 -45 -204q0 -52 27 -52q17 0 34 10t29.5 23.5t27 37t22.5 39.5t20 42
q3 6 8 17t7 15q6 12 19 12q10 0 15.5 -7t5.5 -14q0 -4 -2 -10q-8 -19 -15 -31q-15 -31 -24 -48.5t-26.5 -45.5t-33.5 -43t-39 -27t-48 -12q-69 0 -69 94q0 20 1 31q-45 -73 -95 -113t-113 -40h-2q-54 1 -81.5 37t-27.5 96q0 46 43 197.5t99 308.5q-23 -5 -61 -10
q-40 -6 -57 -9t-55.5 -11t-58 -15.5t-48 -20.5t-42.5 -27t-25 -35t-11 -46q-1 -39 22 -64.5t57 -25.5q9 0 15 -6.5t6 -15.5q-1 -8 -7.5 -14.5t-14.5 -5.5q-52 0 -86 38.5t-34 93.5q0 32 11.5 58.5t28.5 45t46.5 34t54 25t63.5 18.5t63.5 13.5t64.5 10.5zM469 670
q30 6 54 23.5t24 30.5q0 14 -14 14q-15 0 -33 -20t-31 -48z" />
    <glyph glyph-name="Yacute" unicode="&#xdd;" horiz-adv-x="765" 
d="M630 841l135 93q8 5 16.5 3t13.5 -10q5 -7 3 -16.5t-10 -14.5l-138 -91q-17 -9 -28 7q-7 18 8 29zM418 656q19 50 50 86.5t66 36.5q26 0 42.5 -15t16.5 -39q0 -33 -42 -60.5t-101 -43.5q-44 -107 -87 -259t-43 -200q0 -90 69 -90q79 0 148 96q8 11 15 21.5t12.5 18.5
t12 20.5t10.5 19.5t11.5 24t11 25t13.5 32t14.5 36t18.5 46t21 52q9 25 44 120t55 149q5 14 20 14q20 0 20 -20q0 -5 -1 -8l-98 -269q-1 -3 -35.5 -99t-73 -202.5t-45.5 -126.5l-16 -44q151 51 235 249q6 13 19 13q3 0 9 -2q13 -7 13 -19q0 -3 -2 -9q-48 -114 -116.5 -182.5
t-174.5 -99.5q-73 -207 -182 -209q-45 -1 -72 26t-27 71q0 100 169 131q45 7 79 16q2 7 55 157q-73 -89 -163 -89q-54 0 -83 35.5t-29 96.5q1 47 38 180.5t86 268.5q-20 -4 -62 -10q-149 -24 -206 -49q-91 -40 -91 -115q0 -39 23 -64.5t56 -25.5q9 0 15 -6t6 -15
q0 -21 -22 -21q-52 0 -86 38.5t-34 95.5q0 36 13.5 65.5t42 50t55.5 34.5t72 24.5t73 16t76 12.5zM470 671q30 6 54 23.5t24 30.5q0 14 -14 14q-16 0 -33.5 -20t-30.5 -48zM481 -85q-42 -9 -55 -11q-69 -12 -100.5 -32.5t-34.5 -55.5q0 -26 15.5 -41.5t41.5 -14.5
q83 2 133 155z" />
    <glyph glyph-name="Thorn" unicode="&#xde;" horiz-adv-x="731" 
d="M494 544q102 0 167.5 -57.5t65.5 -149.5q0 -110 -66.5 -192t-169.5 -82q-44 0 -93 19q-14 5 -14 20q0 9 6 14.5t14 5.5q5 0 8 -1q45 -16 82 -16q82 0 136.5 71.5t54.5 160.5q0 79 -55 121.5t-146 42.5h-7q-6 -19 -35 -117q-56 -190 -87 -259q-83 -186 -211 -186
q-62 0 -103 38.5t-41 98.5q0 66 43.5 115t102.5 49q42 0 42 -24q0 -10 -8.5 -16.5t-18.5 -3.5q-5 2 -17 2q-40 0 -71 -37.5t-31 -82.5q0 -44 29.5 -70.5t73.5 -26.5q28 0 53.5 12.5t44.5 30t39 53t33 63t31 79.5t27.5 83.5t27.5 92.5q18 64 31 101q-84 -16 -139 -82
q-16 -19 -31 -7q-17 13 -3 32q73 87 187 102q34 92 57 117q-160 -12 -255 -72.5t-95 -152.5q0 -44 22 -71.5t57 -27.5q8 0 14.5 -6.5t5.5 -15.5q0 -8 -6.5 -14t-14.5 -6q-56 0 -89 39t-32 103q3 121 131 194.5t335 74.5q20 0 22 -17q3 -20 -18 -25q-30 -6 -49.5 -36
t-38.5 -81h2z" />
    <glyph glyph-name="germandbls" unicode="&#xdf;" horiz-adv-x="357" 
d="M415 259q18 -12 2 -33q-23 -31 -49 -54.5t-41.5 -33t-45.5 -25.5q-9 -59 -28 -97q-45 -98 -104 -98q-24 0 -40 16t-16 40q0 43 40.5 86.5t108.5 73.5q4 31 4 74q0 19 -10 53t-16 59.5t5.5 61.5t47.5 68q63 55 63 106q0 42 -55 42q-78 0 -130 -130q-61 -156 -163 -450
q-9 -23 -28 -16t-12 30q124 353 165 452q63 156 168 156q44 0 70.5 -22.5t26.5 -61.5q0 -71 -77 -138q-30 -26 -38 -49t-1 -39.5t16.5 -51t9.5 -70.5q0 -18 -2 -52q48 29 97 95q15 20 32 8zM149 -40q31 0 68 75q10 21 16 50q-38 -18 -68 -52.5t-30 -58.5q0 -14 14 -14z" />
    <glyph glyph-name="agrave" unicode="&#xe0;" horiz-adv-x="403" 
d="M341 567q14 -12 3 -28q-12 -14 -26 -2l-110 97q-16 14 -3 32q16 16 31 2zM448 238q13 -6 13 -19q0 -3 -2 -9l-1 -3q-17 -37 -25.5 -55t-28.5 -52.5t-36.5 -52t-41 -32.5t-50.5 -15q-35 0 -53.5 23t-18.5 61q-60 -84 -125 -84q-40 0 -61 30t-21 78q0 68 29.5 152
t82.5 148.5t109 64.5q64 0 91 -53q3 10 17 45q5 13 20 13q12 0 17.5 -9.5t1.5 -18.5l-50 -134q-4 -10 -12 -32.5t-11.5 -33t-10 -29.5t-10 -29t-8.5 -26t-7.5 -25.5t-5 -21t-3.5 -20t-1 -15.5q0 -42 30 -42q18 0 36 13t31 29t29.5 45t24.5 46.5t22 48.5l1 3q6 13 19 13
q3 0 9 -2zM78 42q19 0 38 10.5t36 33t30.5 43.5t29.5 55.5t24 54.5l22 55l24 64q-1 34 -19 53.5t-45 19.5q-43 -1 -86 -60t-67.5 -131.5t-25.5 -124.5q0 -73 39 -73z" />
    <glyph glyph-name="aacute" unicode="&#xe1;" horiz-adv-x="403" 
d="M240 574l135 93q8 5 16.5 3t13.5 -10q5 -7 3 -16.5t-10 -14.5l-138 -91q-17 -9 -28 7q-7 18 8 29zM448 238q13 -6 13 -19q0 -3 -2 -9l-1 -3q-17 -37 -25.5 -55t-28.5 -52.5t-36.5 -52t-41 -32.5t-50.5 -15q-35 0 -53.5 23t-18.5 61q-60 -84 -125 -84q-40 0 -61 30t-21 78
q0 68 29.5 152t82.5 148.5t109 64.5q64 0 91 -53q3 10 17 45q5 13 20 13q12 0 17.5 -9.5t1.5 -18.5l-50 -134q-4 -10 -12 -32.5t-11.5 -33t-10 -29.5t-10 -29t-8.5 -26t-7.5 -25.5t-5 -21t-3.5 -20t-1 -15.5q0 -42 30 -42q18 0 36 13t31 29t29.5 45t24.5 46.5t22 48.5l1 3
q6 13 19 13q3 0 9 -2zM78 42q19 0 38 10.5t36 33t30.5 43.5t29.5 55.5t24 54.5l22 55l24 64q-1 34 -19 53.5t-45 19.5q-43 -1 -86 -60t-67.5 -131.5t-25.5 -124.5q0 -73 39 -73z" />
    <glyph glyph-name="acircumflex" unicode="&#xe2;" horiz-adv-x="403" 
d="M390 551q4 -8 1.5 -15.5t-9.5 -9.5q-15 -5 -25 9l-50 75l-103 -73q-15 -11 -26 2q-11 17 3 28l117 91q11 8 21 6t15 -11zM448 238q13 -6 13 -19q0 -3 -2 -9l-1 -3q-17 -37 -25.5 -55t-28.5 -52.5t-36.5 -52t-41 -32.5t-50.5 -15q-35 0 -53.5 23t-18.5 61
q-60 -84 -125 -84q-40 0 -61 30t-21 78q0 68 29.5 152t82.5 148.5t109 64.5q64 0 91 -53q3 10 17 45q5 13 20 13q12 0 17.5 -9.5t1.5 -18.5l-50 -134q-4 -10 -12 -32.5t-11.5 -33t-10 -29.5t-10 -29t-8.5 -26t-7.5 -25.5t-5 -21t-3.5 -20t-1 -15.5q0 -42 30 -42q18 0 36 13
t31 29t29.5 45t24.5 46.5t22 48.5l1 3q6 13 19 13q3 0 9 -2zM78 42q19 0 38 10.5t36 33t30.5 43.5t29.5 55.5t24 54.5l22 55l24 64q-1 34 -19 53.5t-45 19.5q-43 -1 -86 -60t-67.5 -131.5t-25.5 -124.5q0 -73 39 -73z" />
    <glyph glyph-name="atilde" unicode="&#xe3;" horiz-adv-x="403" 
d="M416 614q0 -7 -4 -13q-11 -17 -32 -29t-41 -12q-37 0 -62 30q-13 16 -30 16q-22 0 -36 -19q-11 -14 -20 -14q-21 0 -21 21q0 6 6 15q10 17 30.5 28t40.5 11q37 0 62 -30q13 -16 30 -16q24 0 37 22q6 11 19 11q9 0 15 -6t6 -15zM448 238q13 -6 13 -19q0 -3 -2 -9l-1 -3
q-17 -37 -25.5 -55t-28.5 -52.5t-36.5 -52t-41 -32.5t-50.5 -15q-35 0 -53.5 23t-18.5 61q-60 -84 -125 -84q-40 0 -61 30t-21 78q0 68 29.5 152t82.5 148.5t109 64.5q64 0 91 -53q3 10 17 45q5 13 20 13q12 0 17.5 -9.5t1.5 -18.5l-50 -134q-4 -10 -12 -32.5t-11.5 -33
t-10 -29.5t-10 -29t-8.5 -26t-7.5 -25.5t-5 -21t-3.5 -20t-1 -15.5q0 -42 30 -42q18 0 36 13t31 29t29.5 45t24.5 46.5t22 48.5l1 3q6 13 19 13q3 0 9 -2zM78 42q19 0 38 10.5t36 33t30.5 43.5t29.5 55.5t24 54.5l22 55l24 64q-1 34 -19 53.5t-45 19.5q-43 -1 -86 -60
t-67.5 -131.5t-25.5 -124.5q0 -73 39 -73z" />
    <glyph glyph-name="adieresis" unicode="&#xe4;" horiz-adv-x="403" 
d="M224 602q14 0 24.5 -10.5t10.5 -24.5t-10.5 -24t-24.5 -10t-24 10t-10 24t10 24.5t24 10.5zM334 602q14 0 24.5 -10.5t10.5 -24.5t-10.5 -24t-24.5 -10t-24 10t-10 24t10 24.5t24 10.5zM448 238q13 -6 13 -19q0 -3 -2 -9l-1 -3q-17 -37 -25.5 -55t-28.5 -52.5t-36.5 -52
t-41 -32.5t-50.5 -15q-35 0 -53.5 23t-18.5 61q-60 -84 -125 -84q-40 0 -61 30t-21 78q0 68 29.5 152t82.5 148.5t109 64.5q64 0 91 -53q3 10 17 45q5 13 20 13q12 0 17.5 -9.5t1.5 -18.5l-50 -134q-4 -10 -12 -32.5t-11.5 -33t-10 -29.5t-10 -29t-8.5 -26t-7.5 -25.5
t-5 -21t-3.5 -20t-1 -15.5q0 -42 30 -42q18 0 36 13t31 29t29.5 45t24.5 46.5t22 48.5l1 3q6 13 19 13q3 0 9 -2zM78 42q19 0 38 10.5t36 33t30.5 43.5t29.5 55.5t24 54.5l22 55l24 64q-1 34 -19 53.5t-45 19.5q-43 -1 -86 -60t-67.5 -131.5t-25.5 -124.5q0 -73 39 -73z" />
    <glyph glyph-name="aring" unicode="&#xe5;" horiz-adv-x="403" 
d="M284 533q-40 0 -64.5 28.5t-18.5 68.5q6 36 34 60t64 24q39 0 64 -28.5t19 -67.5q-6 -36 -34 -60.5t-64 -24.5zM284 575q20 0 36.5 14.5t19.5 34.5t-9 34t-32 14t-36.5 -14t-19.5 -34q-3 -21 8.5 -35t32.5 -14zM448 238q13 -6 13 -19q0 -3 -2 -9l-1 -3q-17 -37 -25.5 -55
t-28.5 -52.5t-36.5 -52t-41 -32.5t-50.5 -15q-35 0 -53.5 23t-18.5 61q-60 -84 -125 -84q-40 0 -61 30t-21 78q0 68 29.5 152t82.5 148.5t109 64.5q64 0 91 -53q3 10 17 45q5 13 20 13q12 0 17.5 -9.5t1.5 -18.5l-50 -134q-4 -10 -12 -32.5t-11.5 -33t-10 -29.5t-10 -29
t-8.5 -26t-7.5 -25.5t-5 -21t-3.5 -20t-1 -15.5q0 -42 30 -42q18 0 36 13t31 29t29.5 45t24.5 46.5t22 48.5l1 3q6 13 19 13q3 0 9 -2zM78 42q19 0 38 10.5t36 33t30.5 43.5t29.5 55.5t24 54.5l22 55l24 64q-1 34 -19 53.5t-45 19.5q-43 -1 -86 -60t-67.5 -131.5
t-25.5 -124.5q0 -73 39 -73z" />
    <glyph glyph-name="ae" unicode="&#xe6;" horiz-adv-x="564" 
d="M609 238q13 -6 13 -20q0 -2 -2 -8q-52 -116 -96 -163t-116 -47q-53 0 -87 28t-42 77q-69 -105 -146 -105q-38 0 -61.5 19.5t-23.5 54.5q0 119 256 181q13 43 15 82q2 50 -8.5 71.5t-51.5 22.5q-105 3 -203 -221q-9 -18 -28 -11q-13 7 -13 20q0 2 2 8q104 246 243 246
q51 0 75.5 -29t23.5 -76q69 105 146 105q38 0 61.5 -19.5t23.5 -54.5q0 -119 -256 -181q-13 -43 -15 -82q-2 -43 21.5 -68t68.5 -26q58 -1 92 39t80 146q9 18 28 11zM505 431q-40 0 -81.5 -47.5t-70.5 -115.5q39 11 67 21t60.5 26.5t50 37.5t17.5 46q0 32 -43 32zM133 42
q40 0 81.5 47.5t70.5 115.5q-39 -11 -67 -21t-60.5 -26.5t-50 -37.5t-17.5 -46q0 -32 43 -32z" />
    <glyph glyph-name="ccedilla" unicode="&#xe7;" horiz-adv-x="317" 
d="M362 238q13 -6 13 -20q0 -2 -2 -8q-47 -105 -104.5 -157t-140.5 -53l-20 -45q34 3 52.5 -15.5t13.5 -52.5q-11 -78 -104 -78q-37 0 -65 22q-10 8 -8 19.5t12 15.5t21 -2q19 -13 46 -13q52 0 56 36q3 21 -7.5 29t-35.5 3q-13 -3 -21 3.5t-4 15.5l30 65q-42 10 -66.5 46
t-24.5 88q0 76 35 155t88.5 130t103.5 51q41 0 63 -25.5t22 -68.5q0 -34 -14 -62.5t-31 -28.5q-21 0 -21 20q0 4 12 26t12 45q0 52 -43 52q-38 0 -82 -48.5t-73.5 -118.5t-29.5 -128q0 -42 22 -68t58 -26q70 0 119.5 47t89.5 138q9 18 28 11z" />
    <glyph glyph-name="egrave" unicode="&#xe8;" horiz-adv-x="317" 
d="M319 567q14 -12 3 -28q-12 -14 -26 -2l-110 97q-16 14 -3 32q16 16 31 2zM362 238q13 -6 13 -20q0 -2 -2 -8q-49 -108 -107.5 -159t-134.5 -51q-62 0 -97.5 37.5t-33.5 99.5q3 66 34.5 143t84.5 135t109 58q38 0 61.5 -19.5t23.5 -54.5q0 -38 -24.5 -71.5t-65 -57.5
t-82.5 -40.5t-88 -27.5q-10 -35 -11 -66q-2 -43 21.5 -68t68.5 -26q62 -2 111 43t91 142q9 18 28 11zM69 250q202 63 202 149q0 32 -43 32q-46 0 -87.5 -54t-71.5 -127z" />
    <glyph glyph-name="eacute" unicode="&#xe9;" horiz-adv-x="317" 
d="M218 574l135 93q8 5 16.5 3t13.5 -10q5 -7 3 -16.5t-10 -14.5l-138 -91q-17 -9 -28 7q-7 18 8 29zM362 238q13 -6 13 -20q0 -2 -2 -8q-49 -108 -107.5 -159t-134.5 -51q-62 0 -97.5 37.5t-33.5 99.5q3 66 34.5 143t84.5 135t109 58q38 0 61.5 -19.5t23.5 -54.5
q0 -38 -24.5 -71.5t-65 -57.5t-82.5 -40.5t-88 -27.5q-10 -35 -11 -66q-2 -43 21.5 -68t68.5 -26q62 -2 111 43t91 142q9 18 28 11zM69 250q202 63 202 149q0 32 -43 32q-46 0 -87.5 -54t-71.5 -127z" />
    <glyph glyph-name="ecircumflex" unicode="&#xea;" horiz-adv-x="317" 
d="M368 551q4 -8 1.5 -15.5t-9.5 -9.5q-15 -5 -25 9l-50 75l-103 -73q-15 -11 -26 2q-11 17 3 28l117 91q11 8 21 6t15 -11zM362 238q13 -6 13 -20q0 -2 -2 -8q-49 -108 -107.5 -159t-134.5 -51q-62 0 -97.5 37.5t-33.5 99.5q3 66 34.5 143t84.5 135t109 58q38 0 61.5 -19.5
t23.5 -54.5q0 -38 -24.5 -71.5t-65 -57.5t-82.5 -40.5t-88 -27.5q-10 -35 -11 -66q-2 -43 21.5 -68t68.5 -26q62 -2 111 43t91 142q9 18 28 11zM69 250q202 63 202 149q0 32 -43 32q-46 0 -87.5 -54t-71.5 -127z" />
    <glyph glyph-name="edieresis" unicode="&#xeb;" horiz-adv-x="317" 
d="M202 602q14 0 24.5 -10.5t10.5 -24.5t-10.5 -24t-24.5 -10t-24 10t-10 24t10 24.5t24 10.5zM312 602q14 0 24.5 -10.5t10.5 -24.5t-10.5 -24t-24.5 -10t-24 10t-10 24t10 24.5t24 10.5zM362 238q13 -6 13 -20q0 -2 -2 -8q-49 -108 -107.5 -159t-134.5 -51
q-62 0 -97.5 37.5t-33.5 99.5q3 66 34.5 143t84.5 135t109 58q38 0 61.5 -19.5t23.5 -54.5q0 -38 -24.5 -71.5t-65 -57.5t-82.5 -40.5t-88 -27.5q-10 -35 -11 -66q-2 -43 21.5 -68t68.5 -26q62 -2 111 43t91 142q9 18 28 11zM69 250q202 63 202 149q0 32 -43 32
q-46 0 -87.5 -54t-71.5 -127z" />
    <glyph glyph-name="igrave" unicode="&#xec;" horiz-adv-x="184" 
d="M209 567q14 -12 3 -28q-12 -14 -26 -2l-110 97q-16 14 -3 32q16 16 31 2zM229 238q13 -5 13 -19q0 -3 -2 -9q-21 -48 -38 -79.5t-40 -64.5t-49.5 -49.5t-56.5 -16.5q-35 0 -54.5 24t-17.5 60q3 77 118 375q5 14 19 14q11 0 17.5 -7.5t2.5 -19.5q-102 -287 -110 -324
q-5 -21 -5 -38q0 -42 30 -42q22 0 42.5 15.5t40.5 48.5t31.5 55.5t30.5 65.5q7 13 20 13q2 0 8 -2z" />
    <glyph glyph-name="iacute" unicode="&#xed;" horiz-adv-x="184" 
d="M108 574l135 93q8 5 16.5 3t13.5 -10q5 -7 3 -16.5t-10 -14.5l-138 -91q-17 -9 -28 7q-7 18 8 29zM229 238q13 -5 13 -19q0 -3 -2 -9q-21 -48 -38 -79.5t-40 -64.5t-49.5 -49.5t-56.5 -16.5q-35 0 -54.5 24t-17.5 60q3 77 118 375q5 14 19 14q11 0 17.5 -7.5t2.5 -19.5
q-102 -287 -110 -324q-5 -21 -5 -38q0 -42 30 -42q22 0 42.5 15.5t40.5 48.5t31.5 55.5t30.5 65.5q7 13 20 13q2 0 8 -2z" />
    <glyph glyph-name="icircumflex" unicode="&#xee;" horiz-adv-x="184" 
d="M228 558q2 -13 -6.5 -20t-19 -2.5t-12.5 18.5l-11 65l-79 -74q-13 -13 -26 2q-11 16 3 28l96 92q10 8 22 6t14 -11zM229 238q13 -5 13 -19q0 -3 -2 -9q-21 -48 -38 -79.5t-40 -64.5t-49.5 -49.5t-56.5 -16.5q-35 0 -54.5 24t-17.5 60q3 77 118 375q5 14 19 14
q11 0 17.5 -7.5t2.5 -19.5q-102 -287 -110 -324q-5 -21 -5 -38q0 -42 30 -42q22 0 42.5 15.5t40.5 48.5t31.5 55.5t30.5 65.5q7 13 20 13q2 0 8 -2z" />
    <glyph glyph-name="idieresis" unicode="&#xef;" horiz-adv-x="184" 
d="M92 602q14 0 24.5 -10.5t10.5 -24.5t-10.5 -24t-24.5 -10t-24 10t-10 24t10 24.5t24 10.5zM202 602q14 0 24.5 -10.5t10.5 -24.5t-10.5 -24t-24.5 -10t-24 10t-10 24t10 24.5t24 10.5zM229 238q13 -5 13 -19q0 -3 -2 -9q-21 -48 -38 -79.5t-40 -64.5t-49.5 -49.5
t-56.5 -16.5q-35 0 -54.5 24t-17.5 60q3 77 118 375q5 14 19 14q11 0 17.5 -7.5t2.5 -19.5q-102 -287 -110 -324q-5 -21 -5 -38q0 -42 30 -42q22 0 42.5 15.5t40.5 48.5t31.5 55.5t30.5 65.5q7 13 20 13q2 0 8 -2z" />
    <glyph glyph-name="eth" unicode="&#xf0;" horiz-adv-x="418" 
d="M454 240q10 0 17 -9.5t3 -20.5q-61 -146 -152 -146q-45 0 -76 28q-76 -92 -156 -92q-44 0 -73.5 31t-29.5 78q0 57 32.5 123t88.5 114t114 48q47 0 75 -28q0 61 -21 113l-61 -11q-21 -3 -25 17q-2 20 18 25l47 8q-27 44 -74 82q-18 15 -7 31q13 17 32 2q61 -49 93 -107
l60 10q20 3 25 -17q4 -21 -17 -24l-50 -9q39 -105 2 -256q-14 -53 -48 -103q16 -21 48 -21q36 0 63 30t53 91q5 13 19 13zM90 42q65 0 132 88q-8 24 -8 48q0 22 7 46q5 16 21 16q10 0 16 -8.5t4 -18.5q-4 -15 -6 -28q16 29 24 61v2q1 1 1 2q4 15 4 33q0 69 -63 69
q-47 0 -93.5 -43t-73.5 -99.5t-27 -100.5q0 -29 18.5 -48t43.5 -19z" />
    <glyph glyph-name="ntilde" unicode="&#xf1;" horiz-adv-x="399" 
d="M402 616q0 -7 -4 -13q-11 -17 -32 -29t-41 -12q-37 0 -62 30q-13 16 -30 16q-22 0 -36 -19q-11 -14 -20 -14q-21 0 -21 21q0 6 6 15q10 17 30.5 28t40.5 11q37 0 62 -30q13 -16 30 -16q24 0 37 22q6 11 19 11q9 0 15 -6t6 -15zM444 238q13 -6 13 -19q0 -3 -2 -9
q-52 -115 -92.5 -162.5t-90.5 -47.5q-35 0 -53.5 23t-18.5 61q0 48 39 151t39 146q0 52 -52 52q-41 0 -90.5 -71.5t-78.5 -148.5l-70 -198q-7 -20 -27 -14q-20 7 -13 27q25 70 79.5 223.5t74.5 208.5q5 14 20 14q11 0 17.5 -9t2.5 -19l-8 -20q47 49 93 49q94 0 94 -94
q0 -46 -39 -153t-39 -144q0 -42 30 -42q34 0 65.5 41.5t78.5 143.5q6 13 19 13q3 0 9 -2z" />
    <glyph glyph-name="ograve" unicode="&#xf2;" horiz-adv-x="391" 
d="M324 567q14 -12 3 -28q-12 -14 -26 -2l-110 97q-16 14 -3 32q16 16 31 2zM447 211q-64 -147 -151 -147q-43 0 -76 27q-30 -40 -66 -65.5t-70 -25.5q-87 0 -87 101q0 128 85 267q63 105 141 105q48 -1 74 -30.5t26 -76.5t-21.5 -113.5t-56.5 -125.5q17 -21 51 -21
q61 0 112 121q5 13 19 13q11 0 17.5 -9.5t2.5 -19.5zM215 240q11 0 17 -8.5t3 -18.5q-1 -3 -4 -23q50 100 50 177q0 31 -16.5 47.5t-42.5 16.5q-54 0 -103 -85q-79 -131 -79 -243q0 -61 44 -61q51 0 112 87q-17 41 -2 95q3 16 21 16z" />
    <glyph glyph-name="oacute" unicode="&#xf3;" horiz-adv-x="391" 
d="M223 574l135 93q8 5 16.5 3t13.5 -10q5 -7 3 -16.5t-10 -14.5l-138 -91q-17 -9 -28 7q-7 18 8 29zM447 211q-64 -147 -151 -147q-43 0 -76 27q-30 -40 -66 -65.5t-70 -25.5q-87 0 -87 101q0 128 85 267q63 105 141 105q48 -1 74 -30.5t26 -76.5t-21.5 -113.5
t-56.5 -125.5q17 -21 51 -21q61 0 112 121q5 13 19 13q11 0 17.5 -9.5t2.5 -19.5zM215 240q11 0 17 -8.5t3 -18.5q-1 -3 -4 -23q50 100 50 177q0 31 -16.5 47.5t-42.5 16.5q-54 0 -103 -85q-79 -131 -79 -243q0 -61 44 -61q51 0 112 87q-17 41 -2 95q3 16 21 16z" />
    <glyph glyph-name="ocircumflex" unicode="&#xf4;" horiz-adv-x="391" 
d="M373 551q4 -8 1.5 -15.5t-9.5 -9.5q-15 -5 -25 9l-50 75l-103 -73q-15 -11 -26 2q-11 17 3 28l117 91q11 8 21 6t15 -11zM447 211q-64 -147 -151 -147q-43 0 -76 27q-30 -40 -66 -65.5t-70 -25.5q-87 0 -87 101q0 128 85 267q63 105 141 105q48 -1 74 -30.5t26 -76.5
t-21.5 -113.5t-56.5 -125.5q17 -21 51 -21q61 0 112 121q5 13 19 13q11 0 17.5 -9.5t2.5 -19.5zM215 240q11 0 17 -8.5t3 -18.5q-1 -3 -4 -23q50 100 50 177q0 31 -16.5 47.5t-42.5 16.5q-54 0 -103 -85q-79 -131 -79 -243q0 -61 44 -61q51 0 112 87q-17 41 -2 95
q3 16 21 16z" />
    <glyph glyph-name="otilde" unicode="&#xf5;" horiz-adv-x="391" 
d="M399 614q0 -7 -4 -13q-11 -17 -32 -29t-41 -12q-37 0 -62 30q-13 16 -30 16q-22 0 -36 -19q-11 -14 -20 -14q-21 0 -21 21q0 6 6 15q10 17 30.5 28t40.5 11q37 0 62 -30q13 -16 30 -16q24 0 37 22q6 11 19 11q9 0 15 -6t6 -15zM447 211q-64 -147 -151 -147q-43 0 -76 27
q-30 -40 -66 -65.5t-70 -25.5q-87 0 -87 101q0 128 85 267q63 105 141 105q48 -1 74 -30.5t26 -76.5t-21.5 -113.5t-56.5 -125.5q17 -21 51 -21q61 0 112 121q5 13 19 13q11 0 17.5 -9.5t2.5 -19.5zM215 240q11 0 17 -8.5t3 -18.5q-1 -3 -4 -23q50 100 50 177
q0 31 -16.5 47.5t-42.5 16.5q-54 0 -103 -85q-79 -131 -79 -243q0 -61 44 -61q51 0 112 87q-17 41 -2 95q3 16 21 16z" />
    <glyph glyph-name="odieresis" unicode="&#xf6;" horiz-adv-x="391" 
d="M207 602q14 0 24.5 -10.5t10.5 -24.5t-10.5 -24t-24.5 -10t-24 10t-10 24t10 24.5t24 10.5zM317 602q14 0 24.5 -10.5t10.5 -24.5t-10.5 -24t-24.5 -10t-24 10t-10 24t10 24.5t24 10.5zM447 211q-64 -147 -151 -147q-43 0 -76 27q-30 -40 -66 -65.5t-70 -25.5
q-87 0 -87 101q0 128 85 267q63 105 141 105q48 -1 74 -30.5t26 -76.5t-21.5 -113.5t-56.5 -125.5q17 -21 51 -21q61 0 112 121q5 13 19 13q11 0 17.5 -9.5t2.5 -19.5zM215 240q11 0 17 -8.5t3 -18.5q-1 -3 -4 -23q50 100 50 177q0 31 -16.5 47.5t-42.5 16.5q-54 0 -103 -85
q-79 -131 -79 -243q0 -61 44 -61q51 0 112 87q-17 41 -2 95q3 16 21 16z" />
    <glyph glyph-name="oslash" unicode="&#xf8;" horiz-adv-x="391" 
d="M427 240q11 0 17.5 -9.5t2.5 -19.5q-64 -147 -151 -147q-43 0 -76 27q-30 -40 -66 -65.5t-70 -25.5q-13 0 -19 1l-15 -38q-5 -13 -16 -14t-17.5 8.5t-1.5 22.5q2 6 7 18t7 18q-32 24 -32 85q0 128 85 267q63 105 141 105q15 0 32 -5q27 43 29 46q8 13 19.5 12t14.5 -11.5
t-4 -24.5l-26 -40q35 -29 35 -84q0 -47 -21.5 -113.5t-56.5 -125.5q17 -21 51 -21q61 0 112 121q5 13 19 13zM40 103q0 -25 8 -41q88 204 184 368q-3 1 -10 1q-54 0 -103 -85q-79 -131 -79 -243zM215 240q11 0 17 -8.5t3 -18.5q-1 -3 -4 -23q50 100 50 177q0 28 -15 46
q-97 -167 -184 -371h2q51 0 112 87q-17 41 -2 95q3 16 21 16z" />
    <glyph glyph-name="ugrave" unicode="&#xf9;" horiz-adv-x="401" 
d="M313 567q14 -12 3 -28q-12 -14 -26 -2l-110 97q-16 14 -3 32q16 16 31 2zM447 238q12 -7 12 -19q0 -3 -2 -9q-49 -113 -90.5 -161.5t-91.5 -48.5q-62 0 -72 71q-22 -32 -54.5 -51.5t-65.5 -19.5h-1q-96 0 -96 104q0 33 19.5 91.5t83.5 223.5q11 28 17 43q5 13 19 13
q12 0 18 -9t2 -19q-18 -47 -46 -122q-49 -131 -60 -164t-11 -57q0 -62 55 -62q65 0 115 102q28 56 124 318q5 13 19 13q12 0 18.5 -9t2.5 -19q-12 -33 -31 -85t-25 -67q-61 -165 -61 -211q0 -42 30 -42q35 0 67.5 43t76.5 142q5 13 19 13q3 0 9 -2z" />
    <glyph glyph-name="uacute" unicode="&#xfa;" horiz-adv-x="401" 
d="M212 574l135 93q8 5 16.5 3t13.5 -10q5 -7 3 -16.5t-10 -14.5l-138 -91q-17 -9 -28 7q-7 18 8 29zM447 238q12 -7 12 -19q0 -3 -2 -9q-49 -113 -90.5 -161.5t-91.5 -48.5q-62 0 -72 71q-22 -32 -54.5 -51.5t-65.5 -19.5h-1q-96 0 -96 104q0 33 19.5 91.5t83.5 223.5
q11 28 17 43q5 13 19 13q12 0 18 -9t2 -19q-18 -47 -46 -122q-49 -131 -60 -164t-11 -57q0 -62 55 -62q65 0 115 102q28 56 124 318q5 13 19 13q12 0 18.5 -9t2.5 -19q-12 -33 -31 -85t-25 -67q-61 -165 -61 -211q0 -42 30 -42q35 0 67.5 43t76.5 142q5 13 19 13q3 0 9 -2z
" />
    <glyph glyph-name="ucircumflex" unicode="&#xfb;" horiz-adv-x="401" 
d="M362 551q4 -8 1.5 -15.5t-9.5 -9.5q-15 -5 -25 9l-50 75l-103 -73q-15 -11 -26 2q-11 17 3 28l117 91q11 8 21 6t15 -11zM447 238q12 -7 12 -19q0 -3 -2 -9q-49 -113 -90.5 -161.5t-91.5 -48.5q-62 0 -72 71q-22 -32 -54.5 -51.5t-65.5 -19.5h-1q-96 0 -96 104
q0 33 19.5 91.5t83.5 223.5q11 28 17 43q5 13 19 13q12 0 18 -9t2 -19q-18 -47 -46 -122q-49 -131 -60 -164t-11 -57q0 -62 55 -62q65 0 115 102q28 56 124 318q5 13 19 13q12 0 18.5 -9t2.5 -19q-12 -33 -31 -85t-25 -67q-61 -165 -61 -211q0 -42 30 -42q35 0 67.5 43
t76.5 142q5 13 19 13q3 0 9 -2z" />
    <glyph glyph-name="udieresis" unicode="&#xfc;" horiz-adv-x="401" 
d="M204 602q14 0 24.5 -10.5t10.5 -24.5t-10.5 -24t-24.5 -10t-24 10t-10 24t10 24.5t24 10.5zM314 602q14 0 24.5 -10.5t10.5 -24.5t-10.5 -24t-24.5 -10t-24 10t-10 24t10 24.5t24 10.5zM447 238q12 -7 12 -19q0 -3 -2 -9q-49 -113 -90.5 -161.5t-91.5 -48.5q-62 0 -72 71
q-22 -32 -54.5 -51.5t-65.5 -19.5h-1q-96 0 -96 104q0 33 19.5 91.5t83.5 223.5q11 28 17 43q5 13 19 13q12 0 18 -9t2 -19q-18 -47 -46 -122q-49 -131 -60 -164t-11 -57q0 -62 55 -62q65 0 115 102q28 56 124 318q5 13 19 13q12 0 18.5 -9t2.5 -19q-12 -33 -31 -85t-25 -67
q-61 -165 -61 -211q0 -42 30 -42q35 0 67.5 43t76.5 142q5 13 19 13q3 0 9 -2z" />
    <glyph glyph-name="yacute" unicode="&#xfd;" horiz-adv-x="412" 
d="M209 574l135 93q8 5 16.5 3t13.5 -10q5 -7 3 -16.5t-10 -14.5l-138 -91q-17 -9 -28 7q-7 18 8 29zM457 237q13 -7 13 -19q0 -3 -2 -9q-48 -114 -116.5 -182.5t-174.5 -99.5q-73 -207 -182 -209q-45 -1 -72 26t-27 71q0 100 169 131q45 7 79 16l25 72q-36 -34 -76 -34
q-58 0 -83.5 31.5t-25.5 75.5q0 8 1 15.5t3.5 17.5t4 17t6 20t7 21t9 24.5t10 25.5t11.5 30t12 32l56 152q5 13 19 13q12 0 18 -9t2 -19l-55 -152q-11 -29 -23 -61.5t-17.5 -47.5t-11 -31.5t-7.5 -26.5t-2 -21q0 -65 66 -65q38 0 81.5 64.5t75.5 156.5q7 21 74 198
q5 14 19 14q10 0 17.5 -9t3.5 -20q-44 -113 -75 -197l-80 -228l-15 -44q151 51 235 249q7 13 19 13q3 0 9 -2zM-5 -240q83 2 133 155q-42 -9 -55 -11q-69 -12 -100.5 -32.5t-34.5 -55.5q0 -26 15.5 -41.5t41.5 -14.5z" />
    <glyph glyph-name="thorn" unicode="&#xfe;" horiz-adv-x="380" 
d="M425 238q13 -5 13 -19q0 -2 -2 -8q-17 -58 -61 -102.5t-94 -44.5q-43 0 -69 26q-71 -96 -150 -93q-56 3 -72 42q-85 -238 -96 -269q-5 -14 -20 -14q-11 0 -17.5 9t-2.5 19l112 313l127 348l65 181q5 14 20 14q11 0 17.5 -9t2.5 -19l-67 -186q47 49 97 49q84 0 84 -114
q0 -50 -24.5 -121t-52.5 -114q18 -20 47 -20q37 0 69.5 37.5t45.5 83.5q7 13 19 13q3 0 9 -2zM204 240q10 0 16.5 -8t4.5 -19q-3 -8 -5 -26q49 103 49 176q0 70 -39 70q-23 0 -47 -18t-41 -41t-37.5 -63.5t-30.5 -65t-27 -66.5q-2 -6 -6.5 -18t-6 -16.5t-4 -12.5t-3.5 -13
t-1.5 -12.5t-0.5 -15.5q0 -51 38 -52q65 -1 123 88q-18 41 -2 97q3 16 20 16z" />
    <glyph glyph-name="ydieresis" unicode="&#xff;" horiz-adv-x="412" 
d="M193 602q14 0 24.5 -10.5t10.5 -24.5t-10.5 -24t-24.5 -10t-24 10t-10 24t10 24.5t24 10.5zM303 602q14 0 24.5 -10.5t10.5 -24.5t-10.5 -24t-24.5 -10t-24 10t-10 24t10 24.5t24 10.5zM457 237q13 -7 13 -19q0 -3 -2 -9q-48 -114 -116.5 -182.5t-174.5 -99.5
q-73 -207 -182 -209q-45 -1 -72 26t-27 71q0 100 169 131q45 7 79 16l25 72q-36 -34 -76 -34q-58 0 -83.5 31.5t-25.5 75.5q0 8 1 15.5t3.5 17.5t4 17t6 20t7 21t9 24.5t10 25.5t11.5 30t12 32l56 152q5 13 19 13q12 0 18 -9t2 -19l-55 -152q-11 -29 -23 -61.5t-17.5 -47.5
t-11 -31.5t-7.5 -26.5t-2 -21q0 -65 66 -65q38 0 81.5 64.5t75.5 156.5q7 21 74 198q5 14 19 14q10 0 17.5 -9t3.5 -20q-44 -113 -75 -197l-80 -228l-15 -44q151 51 235 249q7 13 19 13q3 0 9 -2zM-5 -240q83 2 133 155q-42 -9 -55 -11q-69 -12 -100.5 -32.5t-34.5 -55.5
q0 -26 15.5 -41.5t41.5 -14.5z" />
    <glyph glyph-name="Amacron" unicode="&#x100;" horiz-adv-x="765" 
d="M871 855q20 0 22 -21q0 -9 -6 -15t-15 -6h-195q-9 0 -15 6t-6 15q2 21 22 21h193zM747 388q-34 -97 -44 -120q-108 -294 -108 -344q0 -47 16 -69t51 -22q8 0 14.5 -6.5t6.5 -15.5q0 -8 -6.5 -14.5t-14.5 -6.5q-110 3 -110 134q0 58 112 358l4 11h-212q-28 -49 -51 -84.5
t-55 -77.5t-61 -68.5t-65.5 -44.5t-71.5 -18q-64 0 -108 38t-44 99q0 66 47 115.5t107 49.5q25 0 46 -10q12 -6 12 -19q0 -8 -6 -14.5t-15 -6.5q-1 0 -14.5 4t-22.5 4q-43 0 -77.5 -38t-34.5 -85q0 -42 32 -68t78 -26q36 0 71.5 21t70 63t58 77t55.5 89h-49q-9 0 -15.5 6.5
t-6.5 14.5q0 9 6.5 15.5t15.5 6.5h74q14 25 39 70.5t34 61.5q91 169 125 213q49 59 103 59q80 0 80 -93q0 -73 -66 -259zM707 403q65 181 65 239q0 55 -39 55q-17 0 -36.5 -12.5t-32.5 -29.5q-33 -43 -122 -207q-5 -8 -27.5 -49t-34.5 -63h203z" />
    <glyph glyph-name="amacron" unicode="&#x101;" horiz-adv-x="403" 
d="M375 588q20 0 22 -21q0 -9 -6 -15t-15 -6h-195q-9 0 -15 6t-6 15q2 21 22 21h193zM448 238q13 -6 13 -19q0 -3 -2 -9l-1 -3q-17 -37 -25.5 -55t-28.5 -52.5t-36.5 -52t-41 -32.5t-50.5 -15q-35 0 -53.5 23t-18.5 61q-60 -84 -125 -84q-40 0 -61 30t-21 78q0 68 29.5 152
t82.5 148.5t109 64.5q64 0 91 -53q3 10 17 45q5 13 20 13q12 0 17.5 -9.5t1.5 -18.5l-50 -134q-4 -10 -12 -32.5t-11.5 -33t-10 -29.5t-10 -29t-8.5 -26t-7.5 -25.5t-5 -21t-3.5 -20t-1 -15.5q0 -42 30 -42q18 0 36 13t31 29t29.5 45t24.5 46.5t22 48.5l1 3q6 13 19 13
q3 0 9 -2zM78 42q19 0 38 10.5t36 33t30.5 43.5t29.5 55.5t24 54.5l22 55l24 64q-1 34 -19 53.5t-45 19.5q-43 -1 -86 -60t-67.5 -131.5t-25.5 -124.5q0 -73 39 -73z" />
    <glyph glyph-name="Abreve" unicode="&#x102;" horiz-adv-x="765" 
d="M926 910q-46 -110 -134 -110q-55 0 -85.5 36t-15.5 88q5 16 21 16q10 0 16 -8.5t4 -18.5q-9 -33 8 -52t49 -19q62 0 98 85q5 13 19 13q10 0 17 -9.5t3 -20.5zM747 388q-34 -97 -44 -120q-108 -294 -108 -344q0 -47 16 -69t51 -22q8 0 14.5 -6.5t6.5 -15.5
q0 -8 -6.5 -14.5t-14.5 -6.5q-110 3 -110 134q0 58 112 358l4 11h-212q-28 -49 -51 -84.5t-55 -77.5t-61 -68.5t-65.5 -44.5t-71.5 -18q-64 0 -108 38t-44 99q0 66 47 115.5t107 49.5q25 0 46 -10q12 -6 12 -19q0 -8 -6 -14.5t-15 -6.5q-1 0 -14.5 4t-22.5 4
q-43 0 -77.5 -38t-34.5 -85q0 -42 32 -68t78 -26q36 0 71.5 21t70 63t58 77t55.5 89h-49q-9 0 -15.5 6.5t-6.5 14.5q0 9 6.5 15.5t15.5 6.5h74q14 25 39 70.5t34 61.5q91 169 125 213q49 59 103 59q80 0 80 -93q0 -73 -66 -259zM707 403q65 181 65 239q0 55 -39 55
q-17 0 -36.5 -12.5t-32.5 -29.5q-33 -43 -122 -207q-5 -8 -27.5 -49t-34.5 -63h203z" />
    <glyph glyph-name="abreve" unicode="&#x103;" horiz-adv-x="403" 
d="M430 643q-46 -110 -134 -110q-55 0 -85.5 36t-15.5 88q5 16 21 16q10 0 16 -8.5t4 -18.5q-9 -33 8 -52t49 -19q62 0 98 85q5 13 19 13q10 0 17 -9.5t3 -20.5zM448 238q13 -6 13 -19q0 -3 -2 -9l-1 -3q-17 -37 -25.5 -55t-28.5 -52.5t-36.5 -52t-41 -32.5t-50.5 -15
q-35 0 -53.5 23t-18.5 61q-60 -84 -125 -84q-40 0 -61 30t-21 78q0 68 29.5 152t82.5 148.5t109 64.5q64 0 91 -53q3 10 17 45q5 13 20 13q12 0 17.5 -9.5t1.5 -18.5l-50 -134q-4 -10 -12 -32.5t-11.5 -33t-10 -29.5t-10 -29t-8.5 -26t-7.5 -25.5t-5 -21t-3.5 -20t-1 -15.5
q0 -42 30 -42q18 0 36 13t31 29t29.5 45t24.5 46.5t22 48.5l1 3q6 13 19 13q3 0 9 -2zM78 42q19 0 38 10.5t36 33t30.5 43.5t29.5 55.5t24 54.5l22 55l24 64q-1 34 -19 53.5t-45 19.5q-43 -1 -86 -60t-67.5 -131.5t-25.5 -124.5q0 -73 39 -73z" />
    <glyph glyph-name="Aogonek" unicode="&#x104;" horiz-adv-x="765" 
d="M733 740q80 0 80 -93q0 -73 -66 -259q-9 -27 -19.5 -54.5t-16.5 -44t-8 -21.5q-51 -140 -71 -187q-13 -31 -24 -47t-32 -33q-34 -30 -58.5 -62t-24.5 -54q0 -16 10 -25.5t26 -9.5q31 0 60 16q12 5 21 0t8.5 -16.5t-12.5 -18.5q-41 -23 -74 -23q-37 0 -59 20t-22 52
q0 26 21 59t38 50.5t28 26.5q9 7 15.5 14t10.5 11.5t9 13t6 11t6 14t6 14.5q43 103 73 188l4 11h-212q-28 -49 -51 -84.5t-55 -77.5t-61 -68.5t-65.5 -44.5t-71.5 -18q-64 0 -108 38t-44 99q0 66 47 115.5t107 49.5q25 0 46 -10q12 -6 12 -19q0 -8 -6 -14.5t-15 -6.5
q-1 0 -14.5 4t-22.5 4q-43 0 -77.5 -38t-34.5 -85q0 -42 32 -68t78 -26q36 0 71.5 21t70 63t58 77t55.5 89h-49q-9 0 -15.5 6.5t-6.5 14.5q0 9 6.5 15.5t15.5 6.5h74q14 25 39 70.5t34 61.5q91 169 125 213q49 59 103 59zM707 403q65 181 65 239q0 55 -39 55
q-17 0 -36.5 -12.5t-32.5 -29.5q-33 -43 -122 -207q-5 -8 -27.5 -49t-34.5 -63h203z" />
    <glyph glyph-name="aogonek" unicode="&#x105;" horiz-adv-x="403" 
d="M448 238q13 -6 13 -19q0 -3 -2 -9l-1 -3q-51 -112 -84 -152q-16 -19 -33 -32q-67 -57 -90 -85.5t-23 -52.5q0 -16 10 -25.5t26 -9.5q31 0 60 16q12 5 21 0t8.5 -16.5t-12.5 -18.5q-41 -23 -74 -23q-37 0 -59 20t-22 52q0 55 75 121q-57 11 -57 83q-60 -84 -125 -84
q-40 0 -61 30t-21 78q0 68 29.5 152t82.5 148.5t109 64.5q64 0 91 -53q3 10 17 45q5 13 20 13q12 0 17.5 -9.5t1.5 -18.5l-50 -134q-4 -10 -12 -32.5t-11.5 -33t-10 -29.5t-10 -29t-8.5 -26t-7.5 -25.5t-5 -21t-3.5 -20t-1 -15.5q0 -42 30 -42q18 0 36 13t31 29t29.5 45
t24.5 46.5t22 48.5l1 3q6 13 19 13q3 0 9 -2zM78 42q19 0 38 10.5t36 33t30.5 43.5t29.5 55.5t24 54.5l22 55l24 64q-1 34 -19 53.5t-45 19.5q-43 -1 -86 -60t-67.5 -131.5t-25.5 -124.5q0 -73 39 -73z" />
    <glyph glyph-name="Cacute" unicode="&#x106;" horiz-adv-x="593" 
d="M476 838l135 93q8 5 16.5 3t13.5 -10q5 -7 3 -16.5t-10 -14.5l-138 -91q-17 -9 -28 7q-7 18 8 29zM637 239q19 -9 12 -28q-57 -137 -135 -208t-190 -71q-96 0 -147 55t-51 150q0 74 42 205q-78 18 -123 69t-45 126q0 107 72 195q6 7 16 7q9 0 15 -6t6 -15t-5 -14
q-27 -30 -44.5 -77t-17.5 -88q0 -64 38 -103.5t103 -53.5q23 64 53.5 124t70 114t89 86t100.5 31q60 -1 92 -40t32 -100q0 -80 -57 -142.5t-139 -92.5t-170 -30q-18 0 -44 3q-42 -135 -42 -198q0 -79 41 -121t115 -42q99 0 167 63.5t119 189.5q3 8 11 11.5t16 0.5zM225 375
q8 -1 26 -1q77 0 150.5 25.5t125 78t51.5 119.5q0 44 -21 71t-61 27q-42 0 -85 -31t-78 -80.5t-62 -102.5t-46 -106z" />
    <glyph glyph-name="cacute" unicode="&#x107;" horiz-adv-x="317" 
d="M218 574l135 93q8 5 16.5 3t13.5 -10q5 -7 3 -16.5t-10 -14.5l-138 -91q-17 -9 -28 7q-7 18 8 29zM362 238q13 -6 13 -20q0 -2 -2 -8q-48 -106 -106.5 -158t-142.5 -52q-55 0 -88 37.5t-33 99.5q0 76 35 155t88.5 130t103.5 51q41 0 63 -25.5t22 -68.5q0 -34 -14 -62.5
t-31 -28.5q-21 0 -21 20q0 4 12 26t12 45q0 52 -43 52q-38 0 -82 -48.5t-73.5 -118.5t-29.5 -128q0 -42 22 -68t58 -26q70 0 119.5 47t89.5 138q9 18 28 11z" />
    <glyph glyph-name="Cdotaccent" unicode="&#x10a;" horiz-adv-x="593" 
d="M514 797q-16 0 -27 10.5t-11 26.5q0 15 11 26t27 11t26.5 -11t10.5 -26q0 -16 -10.5 -26.5t-26.5 -10.5zM637 239q19 -9 12 -28q-57 -137 -135 -208t-190 -71q-96 0 -147 55t-51 150q0 74 42 205q-78 18 -123 69t-45 126q0 107 72 195q6 7 16 7q9 0 15 -6t6 -15t-5 -14
q-27 -30 -44.5 -77t-17.5 -88q0 -64 38 -103.5t103 -53.5q23 64 53.5 124t70 114t89 86t100.5 31q60 -1 92 -40t32 -100q0 -80 -57 -142.5t-139 -92.5t-170 -30q-18 0 -44 3q-42 -135 -42 -198q0 -79 41 -121t115 -42q99 0 167 63.5t119 189.5q3 8 11 11.5t16 0.5zM225 375
q8 -1 26 -1q77 0 150.5 25.5t125 78t51.5 119.5q0 44 -21 71t-61 27q-42 0 -85 -31t-78 -80.5t-62 -102.5t-46 -106z" />
    <glyph glyph-name="cdotaccent" unicode="&#x10b;" horiz-adv-x="317" 
d="M256 533q-16 0 -27 10.5t-11 26.5q0 15 11 26t27 11t26.5 -11t10.5 -26q0 -16 -10.5 -26.5t-26.5 -10.5zM362 238q13 -6 13 -20q0 -2 -2 -8q-48 -106 -106.5 -158t-142.5 -52q-55 0 -88 37.5t-33 99.5q0 76 35 155t88.5 130t103.5 51q41 0 63 -25.5t22 -68.5
q0 -34 -14 -62.5t-31 -28.5q-21 0 -21 20q0 4 12 26t12 45q0 52 -43 52q-38 0 -82 -48.5t-73.5 -118.5t-29.5 -128q0 -42 22 -68t58 -26q70 0 119.5 47t89.5 138q9 18 28 11z" />
    <glyph glyph-name="Ccaron" unicode="&#x10c;" horiz-adv-x="593" 
d="M455 902q-7 16 8 25q6 4 14 1t12 -10l32 -67l100 74q14 12 26 -2q11 -16 -3 -28l-115 -92q-11 -8 -22 -6t-14 11zM637 239q19 -9 12 -28q-57 -137 -135 -208t-190 -71q-96 0 -147 55t-51 150q0 74 42 205q-78 18 -123 69t-45 126q0 107 72 195q6 7 16 7q9 0 15 -6t6 -15
t-5 -14q-27 -30 -44.5 -77t-17.5 -88q0 -64 38 -103.5t103 -53.5q23 64 53.5 124t70 114t89 86t100.5 31q60 -1 92 -40t32 -100q0 -80 -57 -142.5t-139 -92.5t-170 -30q-18 0 -44 3q-42 -135 -42 -198q0 -79 41 -121t115 -42q99 0 167 63.5t119 189.5q3 8 11 11.5t16 0.5z
M225 375q8 -1 26 -1q77 0 150.5 25.5t125 78t51.5 119.5q0 44 -21 71t-61 27q-42 0 -85 -31t-78 -80.5t-62 -102.5t-46 -106z" />
    <glyph glyph-name="ccaron" unicode="&#x10d;" horiz-adv-x="317" 
d="M197 638q-7 16 8 25q6 4 14 1t12 -10l32 -67l100 74q14 12 26 -2q11 -16 -3 -28l-115 -92q-11 -8 -22 -6t-14 11zM362 238q13 -6 13 -20q0 -2 -2 -8q-48 -106 -106.5 -158t-142.5 -52q-55 0 -88 37.5t-33 99.5q0 76 35 155t88.5 130t103.5 51q41 0 63 -25.5t22 -68.5
q0 -34 -14 -62.5t-31 -28.5q-21 0 -21 20q0 4 12 26t12 45q0 52 -43 52q-38 0 -82 -48.5t-73.5 -118.5t-29.5 -128q0 -42 22 -68t58 -26q70 0 119.5 47t89.5 138q9 18 28 11z" />
    <glyph glyph-name="Dcaron" unicode="&#x10e;" horiz-adv-x="833" 
d="M552 905q-7 16 8 25q6 4 14 1t12 -10l32 -67l100 74q14 12 26 -2q11 -16 -3 -28l-115 -92q-11 -8 -22 -6t-14 11zM799 406q0 -81 -20.5 -163.5t-58 -152.5t-98 -114t-131.5 -44q-73 0 -119.5 35.5t-46.5 95.5q0 48 30.5 79t72.5 31q34 0 59.5 -21.5t37.5 -58.5
q3 -10 -3 -19t-16 -9q-15 0 -20 14q-20 52 -58 52q-25 0 -43 -20t-18 -48q0 -43 36.5 -66t87.5 -23q62 0 114.5 41.5t84.5 107t49.5 139.5t17.5 144q0 131 -54 208t-168 83q-133 0 -209.5 -93t-78.5 -241q0 -9 -6 -15t-15 -6q-8 0 -14.5 6t-6.5 15q2 167 91 271.5t239 104.5
q134 -6 199 -95.5t65 -237.5zM501 582q-26 -50 -72 -198q-16 -53 -24.5 -79.5t-26.5 -74.5t-31.5 -74t-36.5 -61t-45.5 -52.5t-53 -30.5t-65.5 -13q-63 0 -104.5 37.5t-41.5 97.5q0 65 43.5 115t100.5 50q16 0 29 -4q15 -5 15 -20q0 -10 -8 -16.5t-19 -4.5q-10 2 -16 2
q-40 0 -71.5 -37.5t-31.5 -82.5t29.5 -70t73.5 -25q48 0 86 27t69 91t44.5 100t39.5 122q3 10 5 15q44 147 74 206q32 61 91 76q22 5 25 -18q0 -20 -17 -24q-17 -3 -34.5 -19t-26.5 -35z" />
    <glyph glyph-name="dcaron" unicode="&#x10f;" horiz-adv-x="430" 
d="M531 602q-2 -10 -5 -14l-36 -57q-7 -13 -20 -7q-14 5 -5 20l17 31q-22 9 -20 34q2 14 12.5 23t24.5 8q14 -2 23.5 -13t8.5 -25zM475 238q13 -6 13 -19q0 -3 -2 -9q-49 -105 -95.5 -157.5t-110.5 -52.5q-35 0 -54.5 23t-19.5 65q-62 -88 -127 -88q-40 0 -61 30t-21 78
q0 68 29 152t82 148.5t110 64.5q64 0 90 -51l19 52l53 153q5 13 19 13q12 0 17.5 -9.5t2.5 -18.5q-3 -8 -36.5 -104.5t-65.5 -188.5t-36 -104q-33 -101 -33 -131q0 -42 32 -42q49 0 87.5 47.5t79.5 138.5q7 12 20 12q2 0 8 -2zM78 42q19 0 38 10.5t36 33t30.5 43.5
t29.5 55.5t24 54.5l22 55q5 11 12.5 30t10.5 27q1 3 1 7q-2 35 -18.5 54t-45.5 19q-43 -1 -86 -60t-67.5 -131.5t-25.5 -124.5q0 -73 39 -73z" />
    <glyph glyph-name="Dcroat" unicode="&#x110;" horiz-adv-x="833" 
d="M535 739q134 -6 199 -95.5t65 -237.5q0 -81 -20.5 -163.5t-58 -152.5t-98 -114t-131.5 -44q-73 0 -119.5 35.5t-46.5 95.5q0 48 30.5 79t72.5 31q34 0 59.5 -21.5t37.5 -58.5q3 -10 -3 -19t-16 -9q-15 0 -20 14q-20 52 -58 52q-25 0 -43 -20t-18 -48q0 -43 36.5 -66
t87.5 -23q62 0 114.5 41.5t84.5 107t49.5 139.5t17.5 144q0 131 -54 208t-168 83q-133 0 -209.5 -93t-78.5 -241q0 -9 -6 -15t-15 -6q-8 0 -14.5 6t-6.5 15q2 167 91 271.5t239 104.5zM501 342h-85q-19 -60 -34 -101.5t-39.5 -91t-50.5 -79.5t-64 -50.5t-82 -20.5
q-63 0 -104.5 37.5t-41.5 97.5q0 65 43.5 115t100.5 50q16 0 29 -4q15 -5 15 -20q0 -10 -8 -16.5t-19 -4.5q-10 2 -16 2q-40 0 -71.5 -37.5t-31.5 -82.5t29.5 -70t73.5 -25q36 0 67.5 18.5t53.5 45.5t43 70t34 79.5t29 87.5h-56q-9 0 -15 6t-6 15q2 21 22 21h68q2 4 4 12
q44 147 74 206q32 61 91 76q22 5 25 -18q0 -20 -17 -24q-17 -3 -34.5 -19t-26.5 -35q-26 -50 -72 -198h71q20 0 22 -21q0 -9 -6 -15t-15 -6z" />
    <glyph glyph-name="dcroat" unicode="&#x111;" horiz-adv-x="430" 
d="M475 238q13 -6 13 -19q0 -3 -2 -9q-49 -105 -95.5 -157.5t-110.5 -52.5q-35 0 -54.5 23t-19.5 65q-62 -88 -127 -88q-40 0 -61 30t-21 78q0 68 29 152t82 148.5t110 64.5q64 0 90 -51l19 52q2 6 6.5 18.5t6.5 19.5h-53q-21 0 -21 21q2 19 22 21h67l25 73q5 13 19 13
q12 0 17.5 -9.5t2.5 -18.5l-7 -20q-7 -20 -13 -38h42q20 -2 22 -22q0 -9 -6 -15t-15 -5h-58q-99 -284 -103 -297q-33 -101 -33 -131q0 -42 32 -42q49 0 87.5 47.5t79.5 138.5q7 12 20 12q2 0 8 -2zM78 42q19 0 38 10.5t36 33t30.5 43.5t29.5 55.5t24 54.5l22 55
q5 11 12.5 30t10.5 27q1 3 1 7q-2 35 -18.5 54t-45.5 19q-43 -1 -86 -60t-67.5 -131.5t-25.5 -124.5q0 -73 39 -73z" />
    <glyph glyph-name="Emacron" unicode="&#x112;" horiz-adv-x="476" 
d="M497 856q20 0 22 -21q0 -9 -6 -15t-15 -6h-195q-9 0 -15 6t-6 15q2 21 22 21h193zM521 239q13 -7 13 -20q0 -2 -2 -8q-55 -135 -133.5 -203t-190.5 -68q-92 0 -150 54t-58 144q0 94 49.5 162.5t133.5 104.5q-43 46 -43 99q0 23 9 59q-91 41 -140 145q-2 6 -2 10
q0 12 12 18q6 2 9 2q13 0 19 -12q22 -46 46.5 -71t69.5 -53q30 64 90 101.5t132 37.5q48 0 78.5 -21.5t30.5 -58.5q-1 -37 -33.5 -67.5t-80.5 -46t-97 -15.5q-44 0 -95 15q-5 -18 -5 -42q0 -45 44 -84q54 14 87 14q24 0 42.5 -12t18.5 -32q0 -24 -16.5 -37.5t-42.5 -13.5
q-46 0 -97 34q-81 -29 -129 -93.5t-48 -142.5q0 -74 46.5 -115t119.5 -41q99 0 166.5 61t118.5 184q3 8 11.5 11.5t16.5 0.5zM202 587q39 -12 81 -12q58 0 112.5 25t56.5 61q0 18 -19.5 28t-47.5 10q-59 0 -109 -31.5t-74 -80.5zM280 389q22 -9 44 -7q3 0 5.5 1t3.5 2t0 2
q0 6 -17 6q-12 0 -36 -4z" />
    <glyph glyph-name="emacron" unicode="&#x113;" horiz-adv-x="317" 
d="M353 588q20 0 22 -21q0 -9 -6 -15t-15 -6h-195q-9 0 -15 6t-6 15q2 21 22 21h193zM362 238q13 -6 13 -20q0 -2 -2 -8q-49 -108 -107.5 -159t-134.5 -51q-62 0 -97.5 37.5t-33.5 99.5q3 66 34.5 143t84.5 135t109 58q38 0 61.5 -19.5t23.5 -54.5q0 -38 -24.5 -71.5
t-65 -57.5t-82.5 -40.5t-88 -27.5q-10 -35 -11 -66q-2 -43 21.5 -68t68.5 -26q62 -2 111 43t91 142q9 18 28 11zM69 250q202 63 202 149q0 32 -43 32q-46 0 -87.5 -54t-71.5 -127z" />
    <glyph glyph-name="Edotaccent" unicode="&#x116;" horiz-adv-x="476" 
d="M400 801q-16 0 -27 10.5t-11 26.5q0 15 11 26t27 11t26.5 -11t10.5 -26q0 -16 -10.5 -26.5t-26.5 -10.5zM521 239q13 -7 13 -20q0 -2 -2 -8q-55 -135 -133.5 -203t-190.5 -68q-92 0 -150 54t-58 144q0 94 49.5 162.5t133.5 104.5q-43 46 -43 99q0 23 9 59
q-91 41 -140 145q-2 6 -2 10q0 12 12 18q6 2 9 2q13 0 19 -12q22 -46 46.5 -71t69.5 -53q30 64 90 101.5t132 37.5q48 0 78.5 -21.5t30.5 -58.5q-1 -37 -33.5 -67.5t-80.5 -46t-97 -15.5q-44 0 -95 15q-5 -18 -5 -42q0 -45 44 -84q54 14 87 14q24 0 42.5 -12t18.5 -32
q0 -24 -16.5 -37.5t-42.5 -13.5q-46 0 -97 34q-81 -29 -129 -93.5t-48 -142.5q0 -74 46.5 -115t119.5 -41q99 0 166.5 61t118.5 184q3 8 11.5 11.5t16.5 0.5zM202 587q39 -12 81 -12q58 0 112.5 25t56.5 61q0 18 -19.5 28t-47.5 10q-59 0 -109 -31.5t-74 -80.5zM280 389
q22 -9 44 -7q3 0 5.5 1t3.5 2t0 2q0 6 -17 6q-12 0 -36 -4z" />
    <glyph glyph-name="edotaccent" unicode="&#x117;" horiz-adv-x="317" 
d="M256 533q-16 0 -27 10.5t-11 26.5q0 15 11 26t27 11t26.5 -11t10.5 -26q0 -16 -10.5 -26.5t-26.5 -10.5zM362 238q13 -6 13 -20q0 -2 -2 -8q-49 -108 -107.5 -159t-134.5 -51q-62 0 -97.5 37.5t-33.5 99.5q3 66 34.5 143t84.5 135t109 58q38 0 61.5 -19.5t23.5 -54.5
q0 -38 -24.5 -71.5t-65 -57.5t-82.5 -40.5t-88 -27.5q-10 -35 -11 -66q-2 -43 21.5 -68t68.5 -26q62 -2 111 43t91 142q9 18 28 11zM69 250q202 63 202 149q0 32 -43 32q-46 0 -87.5 -54t-71.5 -127z" />
    <glyph glyph-name="Eogonek" unicode="&#x118;" horiz-adv-x="476" 
d="M532 211q-53 -132 -130 -200q-58 -50 -78.5 -76.5t-20.5 -49.5q0 -16 10 -25.5t26 -9.5q31 0 60 16q12 5 21 0t8.5 -16.5t-12.5 -18.5q-41 -23 -74 -23q-37 0 -59 20t-22 52q0 33 27 70q-36 -10 -80 -10q-92 0 -150 54t-58 144q0 94 49.5 162.5t133.5 104.5
q-43 46 -43 99q0 23 9 59q-91 41 -140 145q-2 6 -2 10q0 12 12 18q6 2 9 2q13 0 19 -12q22 -46 46.5 -71t69.5 -53q30 64 90 101.5t132 37.5q48 0 78.5 -21.5t30.5 -58.5q-1 -37 -33.5 -67.5t-80.5 -46t-97 -15.5q-44 0 -95 15q-5 -18 -5 -42q0 -45 44 -84q54 14 87 14
q24 0 42.5 -12t18.5 -32q0 -24 -16.5 -37.5t-42.5 -13.5q-46 0 -97 34q-81 -29 -129 -93.5t-48 -142.5q0 -74 46.5 -115t119.5 -41q99 0 166.5 61t118.5 184q3 8 11.5 11.5t16.5 0.5q13 -7 13 -20q0 -2 -2 -8zM385 699q-59 0 -109 -31.5t-74 -80.5q39 -12 81 -12
q58 0 112.5 25t56.5 61q0 18 -19.5 28t-47.5 10zM316 393q-12 0 -36 -4q22 -9 44 -7q3 0 5.5 1t3.5 2t0 2q0 6 -17 6z" />
    <glyph glyph-name="eogonek" unicode="&#x119;" horiz-adv-x="317" 
d="M362 238q13 -6 13 -20q0 -2 -2 -8q-59 -129 -131 -177l-1 -1q-73 -63 -98 -92.5t-25 -54.5q0 -16 10 -25.5t26 -9.5q31 0 60 16q12 5 21 0t8.5 -16.5t-12.5 -18.5q-41 -23 -74 -23q-37 0 -59 20t-22 52q0 52 74 121q-6 -1 -19 -1q-62 0 -97.5 37.5t-33.5 99.5
q3 66 34.5 143t84.5 135t109 58q38 0 61.5 -19.5t23.5 -54.5q0 -38 -24.5 -71.5t-65 -57.5t-82.5 -40.5t-88 -27.5q-10 -35 -11 -66q-2 -43 21.5 -68t68.5 -26q62 -2 111 43t91 142q9 18 28 11zM228 431q-46 0 -87.5 -54t-71.5 -127q202 63 202 149q0 32 -43 32z" />
    <glyph glyph-name="Ecaron" unicode="&#x11a;" horiz-adv-x="476" 
d="M341 906q-7 16 8 25q6 4 14 1t12 -10l32 -67l100 74q14 12 26 -2q11 -16 -3 -28l-115 -92q-11 -8 -22 -6t-14 11zM521 239q13 -7 13 -20q0 -2 -2 -8q-55 -135 -133.5 -203t-190.5 -68q-92 0 -150 54t-58 144q0 94 49.5 162.5t133.5 104.5q-43 46 -43 99q0 23 9 59
q-91 41 -140 145q-2 6 -2 10q0 12 12 18q6 2 9 2q13 0 19 -12q22 -46 46.5 -71t69.5 -53q30 64 90 101.5t132 37.5q48 0 78.5 -21.5t30.5 -58.5q-1 -37 -33.5 -67.5t-80.5 -46t-97 -15.5q-44 0 -95 15q-5 -18 -5 -42q0 -45 44 -84q54 14 87 14q24 0 42.5 -12t18.5 -32
q0 -24 -16.5 -37.5t-42.5 -13.5q-46 0 -97 34q-81 -29 -129 -93.5t-48 -142.5q0 -74 46.5 -115t119.5 -41q99 0 166.5 61t118.5 184q3 8 11.5 11.5t16.5 0.5zM202 587q39 -12 81 -12q58 0 112.5 25t56.5 61q0 18 -19.5 28t-47.5 10q-59 0 -109 -31.5t-74 -80.5zM280 389
q22 -9 44 -7q3 0 5.5 1t3.5 2t0 2q0 6 -17 6q-12 0 -36 -4z" />
    <glyph glyph-name="ecaron" unicode="&#x11b;" horiz-adv-x="317" 
d="M197 638q-7 16 8 25q6 4 14 1t12 -10l32 -67l100 74q14 12 26 -2q11 -16 -3 -28l-115 -92q-11 -8 -22 -6t-14 11zM362 238q13 -6 13 -20q0 -2 -2 -8q-49 -108 -107.5 -159t-134.5 -51q-62 0 -97.5 37.5t-33.5 99.5q3 66 34.5 143t84.5 135t109 58q38 0 61.5 -19.5
t23.5 -54.5q0 -38 -24.5 -71.5t-65 -57.5t-82.5 -40.5t-88 -27.5q-10 -35 -11 -66q-2 -43 21.5 -68t68.5 -26q62 -2 111 43t91 142q9 18 28 11zM69 250q202 63 202 149q0 32 -43 32q-46 0 -87.5 -54t-71.5 -127z" />
    <glyph glyph-name="Gbreve" unicode="&#x11e;" horiz-adv-x="703" 
d="M679 911q-46 -110 -134 -110q-55 0 -85.5 36t-15.5 88q5 16 21 16q10 0 16 -8.5t4 -18.5q-9 -33 8 -52t49 -19q62 0 98 85q5 13 19 13q10 0 17 -9.5t3 -20.5zM748 237q13 -7 13 -19q0 -3 -2 -9q-48 -114 -116.5 -182.5t-174.5 -99.5q-73 -207 -182 -209q-45 -1 -72 26
t-27 71q0 100 169 131q45 7 79 16l53 151q-102 -135 -215 -135q-73 2 -110 43.5t-37 115.5q0 77 42 205q-78 18 -123 69t-45 126q0 56 24 115q17 42 48 80q6 7 16 7q7 0 14 -5q7 -6 7 -16q0 -9 -5 -14q-25 -28 -41 -68q-21 -50 -21 -97q0 -64 38 -103.5t103 -53.5
q58 166 135.5 262t160.5 96q64 0 102.5 -39t38.5 -104q-3 -81 -58 -142.5t-136 -92t-172 -30.5q-18 0 -44 3q-42 -122 -42 -198q0 -112 105 -117q100 0 195 139q72 102 136 271l10 27q5 15 20 15q12 0 18 -9t2 -19l-74 -197q-7 -21 -25 -70t-28 -79l-42 -121q151 51 235 249
q6 13 19 13q3 0 9 -2zM225 375q77 -10 159 16.5t138 82.5t56 123q0 46 -27.5 73.5t-71.5 27.5q-69 0 -134.5 -86t-119.5 -237zM419 -85q-42 -9 -55 -11q-69 -12 -100.5 -32.5t-34.5 -55.5q0 -26 15.5 -41.5t41.5 -14.5q83 2 133 155z" />
    <glyph glyph-name="gbreve" unicode="&#x11f;" horiz-adv-x="413" 
d="M407 643q-46 -110 -134 -110q-55 0 -85.5 36t-15.5 88q5 16 21 16q10 0 16 -8.5t4 -18.5q-9 -33 8 -52t49 -19q62 0 98 85q5 13 19 13q10 0 17 -9.5t3 -20.5zM458 237q13 -7 13 -19q0 -3 -2 -9q-48 -114 -116.5 -182.5t-174.5 -99.5q-73 -207 -182 -209q-45 -1 -72 26
t-27 71q0 100 169 131q45 7 79 16l30 86q-46 -48 -95 -48q-82 0 -82 115q3 69 31.5 151t80 144.5t107.5 62.5q65 0 92 -55l16 41q5 14 19 14q11 0 18 -8t3 -21q-15 -36 -75 -196l-53 -149l-42 -122q151 51 235 249q6 13 19 13q3 0 9 -2zM78 42q28 0 55 23t51.5 66.5t39.5 77
t35 84.5l22 57q0 39 -17.5 60t-45.5 21q-43 -1 -85.5 -60t-66.5 -132t-25 -125q-2 -36 5 -54t32 -18zM-4 -240q83 2 133 155q-42 -9 -55 -11q-69 -12 -100.5 -32.5t-34.5 -55.5q0 -26 15.5 -41.5t41.5 -14.5z" />
    <glyph glyph-name="Gdotaccent" unicode="&#x120;" horiz-adv-x="703" 
d="M527 801q-16 0 -27 10.5t-11 26.5q0 15 11 26t27 11t26.5 -11t10.5 -26q0 -16 -10.5 -26.5t-26.5 -10.5zM748 237q13 -7 13 -19q0 -3 -2 -9q-48 -114 -116.5 -182.5t-174.5 -99.5q-73 -207 -182 -209q-45 -1 -72 26t-27 71q0 100 169 131q45 7 79 16l53 151
q-102 -135 -215 -135q-73 2 -110 43.5t-37 115.5q0 77 42 205q-78 18 -123 69t-45 126q0 56 24 115q17 42 48 80q6 7 16 7q7 0 14 -5q7 -6 7 -16q0 -9 -5 -14q-25 -28 -41 -68q-21 -50 -21 -97q0 -64 38 -103.5t103 -53.5q58 166 135.5 262t160.5 96q64 0 102.5 -39
t38.5 -104q-3 -81 -58 -142.5t-136 -92t-172 -30.5q-18 0 -44 3q-42 -122 -42 -198q0 -112 105 -117q100 0 195 139q72 102 136 271l10 27q5 15 20 15q12 0 18 -9t2 -19l-74 -197q-7 -21 -25 -70t-28 -79l-42 -121q151 51 235 249q6 13 19 13q3 0 9 -2zM225 375
q77 -10 159 16.5t138 82.5t56 123q0 46 -27.5 73.5t-71.5 27.5q-69 0 -134.5 -86t-119.5 -237zM419 -85q-42 -9 -55 -11q-69 -12 -100.5 -32.5t-34.5 -55.5q0 -26 15.5 -41.5t41.5 -14.5q83 2 133 155z" />
    <glyph glyph-name="gdotaccent" unicode="&#x121;" horiz-adv-x="413" 
d="M255 533q-16 0 -27 10.5t-11 26.5q0 15 11 26t27 11t26.5 -11t10.5 -26q0 -16 -10.5 -26.5t-26.5 -10.5zM458 237q13 -7 13 -19q0 -3 -2 -9q-48 -114 -116.5 -182.5t-174.5 -99.5q-73 -207 -182 -209q-45 -1 -72 26t-27 71q0 100 169 131q45 7 79 16l30 86
q-46 -48 -95 -48q-82 0 -82 115q3 69 31.5 151t80 144.5t107.5 62.5q65 0 92 -55l16 41q5 14 19 14q11 0 18 -8t3 -21q-15 -36 -75 -196l-53 -149l-42 -122q151 51 235 249q6 13 19 13q3 0 9 -2zM78 42q28 0 55 23t51.5 66.5t39.5 77t35 84.5l22 57q0 39 -17.5 60t-45.5 21
q-43 -1 -85.5 -60t-66.5 -132t-25 -125q-2 -36 5 -54t32 -18zM-4 -240q83 2 133 155q-42 -9 -55 -11q-69 -12 -100.5 -32.5t-34.5 -55.5q0 -26 15.5 -41.5t41.5 -14.5z" />
    <glyph glyph-name="Gcommaaccent" unicode="&#x122;" horiz-adv-x="703" 
d="M748 237q13 -7 13 -19q0 -3 -2 -9q-48 -114 -116.5 -182.5t-174.5 -99.5q-19 -49 -49.5 -85.5t-65.5 -36.5q-26 0 -41 15.5t-15 40.5q0 38 33 61t106 43l52 148q-102 -135 -215 -135q-73 2 -110 43.5t-37 115.5q0 77 42 205q-78 18 -123 69t-45 126q0 56 24 115
q17 42 48 80q6 7 16 7q7 0 14 -5q7 -6 7 -16q0 -9 -5 -14q-25 -28 -41 -68q-21 -50 -21 -97q0 -64 38 -103.5t103 -53.5q58 166 135.5 262t160.5 96q64 0 102.5 -39t38.5 -104q-3 -81 -58 -142.5t-136 -92t-172 -30.5q-18 0 -44 3q-42 -122 -42 -198q0 -112 105 -117
q100 0 195 139q72 102 136 271l10 27q5 15 20 15q12 0 18 -9t2 -19l-74 -197q-7 -21 -25 -70t-28 -79l-42 -121q151 51 235 249q6 13 19 13q3 0 9 -2zM479 698q-69 0 -134.5 -86t-119.5 -237q77 -10 159 16.5t138 82.5t56 123q0 46 -27.5 73.5t-71.5 27.5zM353 -153
q15 0 33 20t31 48q-78 -17 -78 -54q0 -14 14 -14zM206 -135q14 -2 23.5 -13t8.5 -25q-2 -10 -5 -14l-36 -57q-7 -13 -20 -7q-14 5 -5 20l17 31q-22 9 -20 34q2 14 12.5 23t24.5 8z" />
    <glyph glyph-name="gcommaaccent" unicode="&#x123;" horiz-adv-x="384" 
d="M239 553q2 10 5 14l36 57q7 13 20 7q14 -5 5 -20l-17 -31q22 -9 20 -34q-2 -14 -12.5 -23t-24.5 -8q-14 2 -23.5 13t-8.5 25zM458 237q13 -7 13 -19q0 -3 -2 -9q-48 -114 -116.5 -182.5t-174.5 -99.5q-73 -207 -182 -209q-45 -1 -72 26t-27 71q0 100 169 131q45 7 79 16
l30 86q-46 -48 -95 -48q-82 0 -82 115q3 69 31.5 151t80 144.5t107.5 62.5q65 0 92 -55l16 41q5 14 19 14q11 0 18 -8t3 -21q-15 -36 -75 -196l-53 -149l-42 -122q151 51 235 249q6 13 19 13q3 0 9 -2zM78 42q28 0 55 23t51.5 66.5t39.5 77t35 84.5l22 57q0 39 -17.5 60
t-45.5 21q-43 -1 -85.5 -60t-66.5 -132t-25 -125q-2 -36 5 -54t32 -18zM-4 -240q83 2 133 155q-42 -9 -55 -11q-69 -12 -100.5 -32.5t-34.5 -55.5q0 -26 15.5 -41.5t41.5 -14.5z" />
    <glyph glyph-name="Hbar" unicode="&#x126;" horiz-adv-x="811" 
d="M884 717q12 0 18 -9t2 -19l-52 -148q-106 -304 -108 -309q-54 -148 -74.5 -211.5t-21.5 -99.5q-2 -40 15 -64t53 -24q8 0 14.5 -6.5t6.5 -15.5q-1 -9 -7 -15t-15 -6q-55 1 -82 37t-27 94q0 42 23 115t75 210l17 47h-258q-5 -14 -13 -40q-12 -38 -19.5 -59t-20.5 -55
t-24 -53t-27.5 -45t-34.5 -40.5t-40.5 -29t-50.5 -20.5t-60 -6q-82 0 -127.5 50.5t-45.5 129.5q0 88 65 149t151 63q9 0 15 -6.5t6 -14.5q0 -9 -6 -15.5t-15 -6.5q-69 0 -121.5 -49.5t-52.5 -120.5q0 -61 34.5 -99t97.5 -38q30 0 56 9t45 21t37.5 36t30 43t25.5 53.5
t21 55.5t20 61q1 3 3 8.5t3.5 10t2.5 8.5h-42q-9 0 -15 6.5t-6 14.5q0 9 6 15.5t15 6.5h56l17 52q4 13 13.5 42.5t14.5 44.5h-57q-9 0 -15 6t-6 15q2 21 22 21h71q25 66 47 105l3 6q-37 9 -119 33q-125 39 -191 39q-50 0 -90.5 -41t-40.5 -91q0 -54 31.5 -80.5t84.5 -26.5
q43 0 91 21q6 2 10 2q10 0 15 -7t5 -14q0 -13 -12 -19q-55 -25 -110 -25q-72 0 -114.5 40t-42.5 106q0 72 53 124.5t120 52.5q74 0 204 -40q85 -27 134 -36q32 30 64 48q4 3 10 3q10 0 15.5 -7t5.5 -14q0 -13 -12 -19q-56 -31 -77 -75q-21 -40 -38 -85h261q10 26 14 38
q50 144 52 149q5 13 19 13zM736 336q27 80 49 139h-263q-13 -37 -33 -100l-12 -39h259z" />
    <glyph glyph-name="hbar" unicode="&#x127;" horiz-adv-x="399" 
d="M444 238q13 -6 13 -20q0 -2 -2 -8q-52 -115 -92.5 -162.5t-90.5 -47.5q-36 0 -54 23t-18 61q0 48 39 154t39 143q0 52 -52 52q-34 0 -79 -55q-12 -15 -21.5 -29.5t-17 -25.5t-17 -31.5t-15 -32.5t-17.5 -44t-19 -50.5t-24.5 -68t-29.5 -81.5q-7 -20 -27 -14q-20 7 -13 27
l174 484h-33q-21 0 -21 21q2 21 22 21h47q3 9 12 35.5t13 37.5q5 13 20 13q11 0 17.5 -9t2.5 -19l-20 -58h71q20 0 22 -22q0 -20 -21 -20h-87q-13 -36 -30 -84q47 47 91 47q94 0 94 -94q0 -39 -39 -150t-39 -147q0 -42 30 -42q35 0 67.5 42.5t76.5 142.5q6 13 19 13
q3 0 9 -2z" />
    <glyph glyph-name="Imacron" unicode="&#x12a;" horiz-adv-x="544" 
d="M754 894q20 0 22 -21q0 -9 -6 -15t-15 -6h-195q-9 0 -15 6t-6 15q2 21 22 21h193zM713 722q0 -33 -42 -60.5t-101 -43.5q-38 -115 -62 -203q-12 -43 -20 -69.5t-22 -70t-25.5 -71.5t-29.5 -66t-35 -62t-40.5 -50.5t-48 -41.5t-55 -25t-63.5 -10q-74 0 -121.5 52
t-47.5 132q0 84 69 146.5t152 60.5q9 0 15 -6.5t6 -15.5q0 -8 -6.5 -14t-15.5 -6q-70 0 -124 -50.5t-54 -115.5q-1 -61 35.5 -101t92.5 -40q40 0 75.5 17.5t63.5 52t49.5 71.5t42 91t33 94t29.5 96l1.5 4.5t1 4.5t1.5 5q6 21 19 63t24 77.5t12 38.5l-29 -6
q-118 -27 -157 -48q-59 -30 -59 -78q-1 -39 22 -64.5t57 -25.5q8 0 14.5 -6.5t5.5 -15.5q0 -8 -6.5 -14t-14.5 -6q-52 0 -87.5 38.5t-33.5 94.5q1 20 5 37t14 30.5t19 24t27 19.5t29.5 14.5t36 12t37 9.5t41.5 9.5t41 9.5l54 12q19 50 50 86.5t66 36.5q26 0 42.5 -15
t16.5 -39zM590 668q30 6 54 23.5t24 30.5q0 14 -14 14q-16 0 -33.5 -20t-30.5 -48z" />
    <glyph glyph-name="imacron" unicode="&#x12b;" horiz-adv-x="184" 
d="M243 588q20 0 22 -21q0 -9 -6 -15t-15 -6h-195q-9 0 -15 6t-6 15q2 21 22 21h193zM229 238q13 -5 13 -19q0 -3 -2 -9q-21 -48 -38 -79.5t-40 -64.5t-49.5 -49.5t-56.5 -16.5q-35 0 -54.5 24t-17.5 60q3 77 118 375q5 14 19 14q11 0 17.5 -7.5t2.5 -19.5
q-102 -287 -110 -324q-5 -21 -5 -38q0 -42 30 -42q22 0 42.5 15.5t40.5 48.5t31.5 55.5t30.5 65.5q7 13 20 13q2 0 8 -2z" />
    <glyph glyph-name="Iogonek" unicode="&#x12e;" horiz-adv-x="544" 
d="M654 776q26 0 42.5 -15t16.5 -39q0 -33 -42 -60.5t-101 -43.5q-38 -115 -62 -203q-21 -74 -35.5 -119.5t-40 -110t-57.5 -111t-70 -77.5q-48 -43 -65.5 -67t-17.5 -45q0 -16 10 -25.5t26 -9.5q31 0 60 16q12 5 21 0t8.5 -16.5t-12.5 -18.5q-41 -23 -74 -23q-37 0 -59 20
t-22 52q0 34 29 73q-17 -4 -40 -4q-74 0 -121.5 52t-47.5 132q0 84 69 146.5t152 60.5q9 0 15 -6.5t6 -15.5q0 -8 -6.5 -14t-15.5 -6q-70 0 -124 -50.5t-54 -115.5q-1 -61 35.5 -101t92.5 -40q40 0 75.5 17.5t63.5 52t49.5 71.5t42 91t33 94t29.5 96l1.5 4.5t1 4.5t1.5 5
q6 21 19 63t24 77.5t12 38.5l-29 -6q-118 -27 -157 -48q-59 -30 -59 -78q-1 -39 22 -64.5t57 -25.5q8 0 14.5 -6.5t5.5 -15.5q0 -8 -6.5 -14t-14.5 -6q-52 0 -87.5 38.5t-33.5 94.5q1 20 5 37t14 30.5t19 24t27 19.5t29.5 14.5t36 12t37 9.5t41.5 9.5t41 9.5l54 12
q19 50 50 86.5t66 36.5zM590 668q30 6 54 23.5t24 30.5q0 14 -14 14q-16 0 -33.5 -20t-30.5 -48z" />
    <glyph glyph-name="iogonek" unicode="&#x12f;" horiz-adv-x="184" 
d="M146 533q-16 0 -27 10.5t-11 26.5q0 15 11 26t27 11t26.5 -11t10.5 -26q0 -16 -10.5 -26.5t-26.5 -10.5zM229 238q13 -5 13 -19q0 -3 -2 -9q-62 -142 -115 -184q-69 -60 -92.5 -88.5t-23.5 -52.5q0 -16 10 -25.5t26 -9.5q31 0 60 16q12 5 21 0t8.5 -16.5t-12.5 -18.5
q-41 -23 -74 -23q-37 0 -59 20t-22 52q0 55 75 121q-29 5 -44.5 28t-13.5 55q3 77 118 375q5 14 19 14q11 0 17.5 -7.5t2.5 -19.5q-102 -287 -110 -324q-5 -21 -5 -38q0 -42 30 -42q22 0 42.5 15.5t40.5 48.5t31.5 55.5t30.5 65.5q7 13 20 13q2 0 8 -2z" />
    <glyph glyph-name="Idotaccent" unicode="&#x130;" horiz-adv-x="544" 
d="M668 834q-16 0 -27 10.5t-11 26.5q0 15 11 26t27 11t26.5 -11t10.5 -26q0 -16 -10.5 -26.5t-26.5 -10.5zM713 722q0 -33 -42 -60.5t-101 -43.5q-38 -115 -62 -203q-12 -43 -20 -69.5t-22 -70t-25.5 -71.5t-29.5 -66t-35 -62t-40.5 -50.5t-48 -41.5t-55 -25t-63.5 -10
q-74 0 -121.5 52t-47.5 132q0 84 69 146.5t152 60.5q9 0 15 -6.5t6 -15.5q0 -8 -6.5 -14t-15.5 -6q-70 0 -124 -50.5t-54 -115.5q-1 -61 35.5 -101t92.5 -40q40 0 75.5 17.5t63.5 52t49.5 71.5t42 91t33 94t29.5 96l1.5 4.5t1 4.5t1.5 5q6 21 19 63t24 77.5t12 38.5l-29 -6
q-118 -27 -157 -48q-59 -30 -59 -78q-1 -39 22 -64.5t57 -25.5q8 0 14.5 -6.5t5.5 -15.5q0 -8 -6.5 -14t-14.5 -6q-52 0 -87.5 38.5t-33.5 94.5q1 20 5 37t14 30.5t19 24t27 19.5t29.5 14.5t36 12t37 9.5t41.5 9.5t41 9.5l54 12q19 50 50 86.5t66 36.5q26 0 42.5 -15
t16.5 -39zM590 668q30 6 54 23.5t24 30.5q0 14 -14 14q-16 0 -33.5 -20t-30.5 -48z" />
    <glyph glyph-name="dotlessi" unicode="&#x131;" horiz-adv-x="184" 
d="M229 238q13 -5 13 -19q0 -3 -2 -9q-21 -48 -38 -79.5t-40 -64.5t-49.5 -49.5t-56.5 -16.5q-35 0 -54.5 24t-17.5 60q3 77 118 375q5 14 19 14q11 0 17.5 -7.5t2.5 -19.5q-102 -287 -110 -324q-5 -21 -5 -38q0 -42 30 -42q22 0 42.5 15.5t40.5 48.5t31.5 55.5t30.5 65.5
q7 13 20 13q2 0 8 -2z" />
    <glyph glyph-name="IJ" unicode="&#x132;" horiz-adv-x="1021" 
d="M713 722q0 -33 -42 -60.5t-101 -43.5q-38 -115 -62 -203q-12 -43 -20 -69.5t-22 -70t-25.5 -71.5t-29.5 -66t-35 -62t-40.5 -50.5t-48 -41.5t-55 -25t-63.5 -10q-74 0 -121.5 52t-47.5 132q0 84 69 146.5t152 60.5q9 0 15 -6.5t6 -15.5q0 -8 -6.5 -14t-15.5 -6
q-70 0 -124 -50.5t-54 -115.5q-1 -61 35.5 -101t92.5 -40q40 0 75.5 17.5t63.5 52t49.5 71.5t42 91t33 94t29.5 96l1.5 4.5t1 4.5t1.5 5q6 21 19 63t24 77.5t12 38.5l-29 -6q-118 -27 -157 -48q-59 -30 -59 -78q-1 -39 22 -64.5t57 -25.5q8 0 14.5 -6.5t5.5 -15.5
q0 -8 -6.5 -14t-14.5 -6q-52 0 -87.5 38.5t-33.5 94.5q1 20 5 37t14 30.5t19 24t27 19.5t29.5 14.5t36 12t37 9.5t41.5 9.5t41 9.5l54 12q19 50 50 86.5t66 36.5q26 0 42.5 -15t16.5 -39zM984 657q19 49 49 84t65 35q26 0 42.5 -15t16.5 -39q0 -33 -42 -60.5t-101 -43.5
q-28 -94 -101 -314t-111 -327q76 22 136 89t100 160q5 13 19 13q11 0 17.5 -9.5t2.5 -20.5q-50 -114 -118.5 -183.5t-173.5 -98.5l-12 -36q-16 -44 -28 -70t-30 -52.5t-41.5 -38.5t-54.5 -13q-54 0 -86 26t-33 72q0 29 10 50t22.5 33.5t40 22.5t45.5 14t56 11q43 7 78 16
q66 188 141 413t75 236q-18 -3 -64 -10q-44 -7 -67 -11t-65 -13.5t-65.5 -21t-49.5 -28t-38 -39.5t-12 -51q-2 -38 18.5 -62t60.5 -28q9 0 14.5 -6.5t5.5 -15.5q0 -8 -6.5 -14t-14.5 -6q-53 0 -87.5 39t-32.5 95q0 31 11.5 57.5t28 44.5t46 33.5t53.5 25t64 18.5t63.5 13
t65.5 11q60 10 87 15zM590 668q30 6 54 23.5t24 30.5q0 14 -14 14q-16 0 -33.5 -20t-30.5 -48zM1034 668q30 6 54 23.5t24 30.5q0 14 -14 14q-16 0 -33.5 -20t-30.5 -48zM733 -95l3 10q-42 -9 -55 -11q-84 -15 -107 -29q-32 -19 -32 -59q0 -57 76 -57q18 1 33.5 9t25.5 19
t21.5 33t17.5 38t17 47z" />
    <glyph glyph-name="ij" unicode="&#x133;" horiz-adv-x="375" 
d="M163 524q-14 0 -24.5 10t-10.5 24t10.5 24t24.5 10t24 -10t10 -24t-10 -24t-24 -10zM347 524q-14 0 -24.5 10t-10.5 24t10.5 24t24.5 10t24 -10t10 -24t-10 -24t-24 -10zM420 237q13 -7 13 -19q0 -3 -2 -9q-48 -114 -116.5 -182.5t-174.5 -99.5q-73 -207 -182 -209
q-45 -1 -72 26t-27 71q0 100 169 131q45 7 79 16l24 69q-34 -31 -75 -31q-35 0 -54.5 24t-17.5 60q3 77 118 375q5 14 19 14q11 0 17.5 -7.5t2.5 -19.5q-102 -287 -110 -324q-5 -21 -5 -38q0 -42 30 -42q21 0 41 14.5t38.5 44t31 53t29.5 61.5q8 21 90 242q6 16 21 16
q10 0 16.5 -9t2.5 -21q-76 -203 -84 -227q0 -1 -1 -3t-1 -3q-2 -4 -2 -5q-76 -214 -81 -228q151 51 235 249q6 13 19 13q3 0 9 -2zM-42 -240q83 2 133 155q-42 -9 -55 -11q-69 -12 -100.5 -32.5t-34.5 -55.5q0 -26 15.5 -41.5t41.5 -14.5z" />
    <glyph glyph-name="Kcommaaccent" unicode="&#x136;" horiz-adv-x="806" 
d="M1036 754q0 -16 -15 -21q-29 -9 -63.5 -39.5t-56 -56.5t-64.5 -80q-36 -45 -54.5 -67.5t-51 -57.5t-63 -57t-62.5 -36q76 -47 76 -202q0 -48 -11 -140q-7 -54 -7 -76q0 -88 68 -88q8 0 14.5 -6.5t6.5 -15.5q0 -8 -6.5 -14.5t-14.5 -6.5q-54 0 -82 34.5t-28 96.5
q0 21 7 81q10 80 11 135q0 93 -30 137.5t-94 45.5q-9 0 -15 6t-6 15q0 8 6 14.5t15 6.5q41 0 79.5 17.5t78 55.5t64 66.5t66.5 81.5q149 191 211 191q9 0 15 -5.5t6 -14.5zM576 602q-34 -63 -87 -227q-12 -35 -21.5 -65.5t-13 -42.5t-4.5 -14q-14 -44 -22.5 -67.5t-24 -61.5
t-29 -59.5t-34.5 -47.5t-44 -39.5t-54.5 -23t-68.5 -9.5q-82 0 -128.5 51t-44.5 129q4 89 67.5 149.5t148.5 62.5q9 0 15 -6.5t6 -14.5q0 -9 -6 -15.5t-15 -6.5q-68 0 -119 -49t-55 -121q0 -62 35 -99.5t97 -37.5q30 0 56 8.5t45 21t37 36t30 43t25.5 53.5t21 56t20.5 61
l40 122q54 168 90 234l3 6q-37 9 -119 33q-125 39 -191 39q-50 0 -90.5 -41.5t-40.5 -94.5q0 -51 31.5 -77t84.5 -26q43 0 91 21q6 2 10 2q10 0 15 -7t5 -14q0 -13 -12 -19q-55 -25 -110 -25q-72 0 -114.5 39.5t-42.5 105.5q0 72 53 125t120 53q74 0 204 -40q85 -27 134 -36
q32 30 64 48q4 3 10 3q13 0 19 -12q2 -6 2 -9q0 -13 -12 -19q-53 -29 -77 -75zM482 -102q-2 -10 -5 -14l-36 -57q-7 -13 -20 -7q-14 5 -5 20l17 31q-22 9 -20 34q2 14 12.5 23t24.5 8q14 -2 23.5 -13t8.5 -25z" />
    <glyph glyph-name="kcommaaccent" unicode="&#x137;" horiz-adv-x="395" 
d="M-15 15q-8 -19 -27 -14q-20 7 -13 27q179 500 214 599q5 13 19 13q12 0 18.5 -9t2.5 -19q-165 -464 -214 -597zM440 238q13 -5 13 -19q0 -3 -2 -9q-45 -100 -86.5 -155t-97.5 -55q-33 0 -53.5 23t-20.5 53q0 21 6 67q6 40 5 59q-2 45 -44 45q-16 0 -35.5 -15t-27.5 -15
q-16 0 -20 13t8 24q5 5 35 32t88 79.5t115 104.5q6 5 14 5q10 0 16 -7t6 -14q0 -8 -7 -15l-167 -152q59 -10 61 -85q0 -12 -5.5 -62t-5.5 -61q0 -15 8.5 -26t23.5 -11q39 0 73.5 50t71.5 135q6 13 19 13q3 0 9 -2zM123 -61q-2 -10 -5 -14l-36 -57q-7 -13 -20 -7q-14 5 -5 20
l17 31q-22 9 -20 34q2 14 12.5 23t24.5 8q14 -2 23.5 -13t8.5 -25z" />
    <glyph glyph-name="Lacute" unicode="&#x139;" horiz-adv-x="508" 
d="M529 859l135 93q8 5 16.5 3t13.5 -10q5 -7 3 -16.5t-10 -14.5l-138 -91q-17 -9 -28 7q-7 18 8 29zM433 655q19 50 50 86.5t66 36.5q26 0 42.5 -15t16.5 -39q0 -33 -42 -60.5t-101 -43.5q-29 -73 -66 -199q-51 -162 -74 -219q-23 -55 -47 -93q2 -2 82 -79l12 -12
q40 -41 62.5 -61.5t58.5 -49t67.5 -41.5t62.5 -13q38 0 69 14.5t43 40.5q5 13 19 13q10 0 15.5 -7.5t5.5 -14.5q0 -2 -2 -8q-18 -40 -60 -60.5t-91 -20.5q-38 0 -75 15t-81 50.5t-65.5 55.5t-70.5 69q-75 72 -76 73q-6 -8 -9 -11q-57 -67 -141 -67q-104 8 -104 96
q3 51 34 80.5t76 29.5q59 0 136 -65q20 33 40 82q26 67 72 216q34 111 58 177q-17 -3 -61 -10q-54 -8 -82.5 -13.5t-73.5 -18t-69.5 -26.5t-45.5 -38.5t-25 -55.5q-1 -4 -1 -12q-2 -34 17 -59q19 -26 52 -30l10 -1q9 0 15 -6.5t5 -15.5q0 -8 -6.5 -14t-15.5 -6q-10 0 -14 1
q-51 7 -80 47q-27 34 -25 86q0 11 1 16q4 29 17.5 53t29.5 40.5t45 31t51 23t61 17t61.5 12t65.5 10.5zM485 670q30 6 54 23.5t24 30.5q0 14 -14 14q-15 0 -33 -20t-31 -48zM213 89q6 8 10 12q-72 58 -114 58q-27 0 -46.5 -18.5t-20.5 -49.5q0 -54 62 -54q64 0 109 52z" />
    <glyph glyph-name="lacute" unicode="&#x13a;" horiz-adv-x="206" 
d="M154 720l135 93q8 5 16.5 3t13.5 -10q5 -7 3 -16.5t-10 -14.5l-138 -91q-17 -9 -28 7q-7 18 8 29zM252 238q12 -7 12 -19q0 -3 -2 -9q-49 -105 -95.5 -157.5t-110.5 -52.5q-35 0 -54.5 23.5t-19.5 60.5q0 33 35 144q12 35 26.5 76t32 91.5t27.5 78.5l52 152q7 19 27 13
q20 -7 13 -27l-52 -152q-5 -15 -37 -105t-49 -140q-33 -102 -33 -131q0 -42 32 -42q49 0 87.5 47.5t79.5 138.5q7 12 20 12q3 0 9 -2z" />
    <glyph glyph-name="Lcommaaccent" unicode="&#x13b;" horiz-adv-x="508" 
d="M433 655q19 50 50 86.5t66 36.5q26 0 42.5 -15t16.5 -39q0 -33 -42 -60.5t-101 -43.5q-29 -73 -66 -199q-51 -162 -74 -219q-23 -55 -47 -93q2 -2 82 -79l12 -12q40 -41 62.5 -61.5t58.5 -49t67.5 -41.5t62.5 -13q38 0 69 14.5t43 40.5q5 13 19 13q10 0 15.5 -7.5
t5.5 -14.5q0 -2 -2 -8q-18 -40 -60 -60.5t-91 -20.5q-38 0 -75 15t-81 50.5t-65.5 55.5t-70.5 69q-75 72 -76 73q-6 -8 -9 -11q-57 -67 -141 -67q-104 8 -104 96q3 51 34 80.5t76 29.5q59 0 136 -65q20 33 40 82q26 67 72 216q34 111 58 177q-17 -3 -61 -10
q-54 -8 -82.5 -13.5t-73.5 -18t-69.5 -26.5t-45.5 -38.5t-25 -55.5q-1 -4 -1 -12q-2 -34 17 -59q19 -26 52 -30l10 -1q9 0 15 -6.5t5 -15.5q0 -8 -6.5 -14t-15.5 -6q-10 0 -14 1q-51 7 -80 47q-27 34 -25 86q0 11 1 16q4 29 17.5 53t29.5 40.5t45 31t51 23t61 17t61.5 12
t65.5 10.5zM485 670q30 6 54 23.5t24 30.5q0 14 -14 14q-15 0 -33 -20t-31 -48zM213 89q6 8 10 12q-72 58 -114 58q-27 0 -46.5 -18.5t-20.5 -49.5q0 -54 62 -54q64 0 109 52zM277 -81q-2 -10 -5 -14l-36 -57q-7 -13 -20 -7q-14 5 -5 20l17 31q-22 9 -20 34q2 14 12.5 23
t24.5 8q14 -2 23.5 -13t8.5 -25z" />
    <glyph glyph-name="lcommaaccent" unicode="&#x13c;" horiz-adv-x="206" 
d="M252 238q12 -7 12 -19q0 -3 -2 -9q-49 -105 -95.5 -157.5t-110.5 -52.5q-35 0 -54.5 23.5t-19.5 60.5q0 33 35 144q12 35 26.5 76t32 91.5t27.5 78.5l52 152q7 19 27 13q20 -7 13 -27l-52 -152q-5 -15 -37 -105t-49 -140q-33 -102 -33 -131q0 -42 32 -42q49 0 87.5 47.5
t79.5 138.5q7 12 20 12q3 0 9 -2zM55 -86q-2 -10 -5 -14l-36 -57q-7 -13 -20 -7q-14 5 -5 20l17 31q-22 9 -20 34q2 14 12.5 23t24.5 8q14 -2 23.5 -13t8.5 -25z" />
    <glyph glyph-name="Lcaron" unicode="&#x13d;" horiz-adv-x="508" 
d="M433 655q19 50 50 86.5t66 36.5q26 0 42.5 -15t16.5 -39q0 -33 -42 -60.5t-101 -43.5q-29 -73 -66 -199q-51 -162 -74 -219q-23 -55 -47 -93q2 -2 82 -79l12 -12q40 -41 62.5 -61.5t58.5 -49t67.5 -41.5t62.5 -13q38 0 69 14.5t43 40.5q5 13 19 13q10 0 15.5 -7.5
t5.5 -14.5q0 -2 -2 -8q-18 -40 -60 -60.5t-91 -20.5q-38 0 -75 15t-81 50.5t-65.5 55.5t-70.5 69q-75 72 -76 73q-6 -8 -9 -11q-57 -67 -141 -67q-104 8 -104 96q3 51 34 80.5t76 29.5q59 0 136 -65q20 33 40 82q26 67 72 216q34 111 58 177q-17 -3 -61 -10
q-54 -8 -82.5 -13.5t-73.5 -18t-69.5 -26.5t-45.5 -38.5t-25 -55.5q-1 -4 -1 -12q-2 -34 17 -59q19 -26 52 -30l10 -1q9 0 15 -6.5t5 -15.5q0 -8 -6.5 -14t-15.5 -6q-10 0 -14 1q-51 7 -80 47q-27 34 -25 86q0 11 1 16q4 29 17.5 53t29.5 40.5t45 31t51 23t61 17t61.5 12
t65.5 10.5zM739 731q-2 -10 -5 -14l-36 -57q-7 -13 -20 -7q-14 5 -5 20l17 31q-22 9 -20 34q2 14 12.5 23t24.5 8q14 -2 23.5 -13t8.5 -25zM485 670q30 6 54 23.5t24 30.5q0 14 -14 14q-15 0 -33 -20t-31 -48zM213 89q6 8 10 12q-72 58 -114 58q-27 0 -46.5 -18.5
t-20.5 -49.5q0 -54 62 -54q64 0 109 52z" />
    <glyph glyph-name="lcaron" unicode="&#x13e;" horiz-adv-x="206" 
d="M308 602q-2 -10 -5 -14l-36 -57q-7 -13 -20 -7q-14 5 -5 20l17 31q-22 9 -20 34q2 14 12.5 23t24.5 8q14 -2 23.5 -13t8.5 -25zM252 238q12 -7 12 -19q0 -3 -2 -9q-49 -105 -95.5 -157.5t-110.5 -52.5q-35 0 -54.5 23.5t-19.5 60.5q0 33 35 144q12 35 26.5 76t32 91.5
t27.5 78.5l52 152q7 19 27 13q20 -7 13 -27l-52 -152q-5 -15 -37 -105t-49 -140q-33 -102 -33 -131q0 -42 32 -42q49 0 87.5 47.5t79.5 138.5q7 12 20 12q3 0 9 -2z" />
    <glyph glyph-name="Lslash" unicode="&#x141;" horiz-adv-x="508" 
d="M754 -79q10 0 15.5 -7.5t5.5 -14.5q0 -2 -2 -8q-18 -40 -60 -60.5t-91 -20.5q-38 0 -75 15t-81 50.5t-65.5 55.5t-70.5 69q-75 72 -76 73q-6 -8 -9 -11q-57 -67 -141 -67q-104 8 -104 96q3 51 34 80.5t76 29.5q59 0 136 -65q20 33 40 82q24 66 32 90l-50 -29
q-20 -10 -29 8q-8 19 8 29l90 52q3 8 6.5 18.5t7.5 24.5t7 23q34 111 58 177q-17 -3 -61 -10q-54 -8 -82.5 -13.5t-73.5 -18t-69.5 -26.5t-45.5 -38.5t-25 -55.5q-1 -4 -1 -12q-2 -34 17 -59q19 -26 52 -30l10 -1q9 0 15 -6.5t5 -15.5q0 -8 -6.5 -14t-15.5 -6q-10 0 -14 1
q-51 7 -80 47q-27 34 -25 86q0 11 1 16q4 29 17.5 53t29.5 40.5t45 31t51 23t61 17t61.5 12t65.5 10.5l85 13q19 50 50 86.5t66 36.5q26 0 42.5 -15t16.5 -39q0 -33 -42 -60.5t-101 -43.5q-29 -73 -66 -199q-1 -3 -3.5 -10t-3.5 -11l79 45q19 10 29 -7q11 -18 -7 -29
l-120 -69q-27 -88 -48 -138q-23 -55 -47 -93q2 -2 82 -79l12 -12q40 -41 62.5 -61.5t58.5 -49t67.5 -41.5t62.5 -13q38 0 69 14.5t43 40.5q5 13 19 13zM549 738q-15 0 -33 -20t-31 -48q30 6 54 23.5t24 30.5q0 14 -14 14zM213 89q6 8 10 12q-72 58 -114 58
q-27 0 -46.5 -18.5t-20.5 -49.5q0 -54 62 -54q64 0 109 52z" />
    <glyph glyph-name="lslash" unicode="&#x142;" horiz-adv-x="206" 
d="M317 758q21 5 26 -14q6 -21 -14 -26l-251 -68q-22 -5 -26 15q-3 20 15 26zM252 238q12 -7 12 -19q0 -3 -2 -9q-49 -105 -95.5 -157.5t-110.5 -52.5q-35 0 -54.5 23.5t-19.5 60.5q0 33 35 144q12 35 26.5 76t32 91.5t27.5 78.5l52 152q7 19 27 13q20 -7 13 -27l-52 -152
q-5 -15 -37 -105t-49 -140q-33 -102 -33 -131q0 -42 32 -42q49 0 87.5 47.5t79.5 138.5q7 12 20 12q3 0 9 -2z" />
    <glyph glyph-name="Nacute" unicode="&#x143;" horiz-adv-x="767" 
d="M690 841l135 93q8 5 16.5 3t13.5 -10q5 -7 3 -16.5t-10 -14.5l-138 -91q-17 -9 -28 7q-7 18 8 29zM1 720q1 19 19 19q8 0 14 -5.5t6 -14.5q0 -116 117 -116q41 0 100.5 28t87.5 47t87 61q24 19 50 36q4 3 11 3q11 0 16 -8q6 -9 3 -18l-58 -177q64 82 115.5 123t112.5 41
q122 0 122 -126q1 -46 -14.5 -107.5t-57.5 -184.5q-10 -31 -48.5 -139t-58 -169.5t-19.5 -82.5q0 -46 16.5 -67.5t51.5 -23.5q8 0 14 -5.5t6 -13.5t-6 -14t-14 -6q-53 0 -80.5 34t-27.5 96q0 15 7 42t20.5 69t27 81.5t35.5 102t38 109.5q71 212 71 279q-2 86 -83 86
q-35 0 -70.5 -21t-72.5 -63t-63.5 -77t-63.5 -91q-17 -51 -44 -137q-63 -198 -92.5 -254t-84.5 -56q-51 0 -51 61q0 21 10 48.5t29.5 60t33 53.5t36.5 52.5t24 33.5l103 156l79 242q-61 -44 -95.5 -66.5t-95.5 -49.5t-107 -27q-73 0 -118 43.5t-38 112.5zM327 315
q-2 -4 -22 -30q-124 -167 -126 -225q0 -20 13 -20q33 0 56.5 48.5t78.5 226.5z" />
    <glyph glyph-name="nacute" unicode="&#x144;" horiz-adv-x="399" 
d="M226 576l135 93q8 5 16.5 3t13.5 -10q5 -7 3 -16.5t-10 -14.5l-138 -91q-17 -9 -28 7q-7 18 8 29zM444 238q13 -6 13 -19q0 -3 -2 -9q-52 -115 -92.5 -162.5t-90.5 -47.5q-35 0 -53.5 23t-18.5 61q0 48 39 151t39 146q0 52 -52 52q-41 0 -90.5 -71.5t-78.5 -148.5
l-70 -198q-7 -20 -27 -14q-20 7 -13 27q25 70 79.5 223.5t74.5 208.5q5 14 20 14q11 0 17.5 -9t2.5 -19l-8 -20q47 49 93 49q94 0 94 -94q0 -46 -39 -153t-39 -144q0 -42 30 -42q34 0 65.5 41.5t78.5 143.5q6 13 19 13q3 0 9 -2z" />
    <glyph glyph-name="Ncommaaccent" unicode="&#x145;" horiz-adv-x="767" 
d="M1 720q1 19 19 19q8 0 14 -5.5t6 -14.5q0 -116 117 -116q41 0 100.5 28t87.5 47t87 61q24 19 50 36q4 3 11 3q11 0 16 -8q6 -9 3 -18l-58 -177q64 82 115.5 123t112.5 41q122 0 122 -126q1 -46 -14.5 -107.5t-57.5 -184.5q-10 -31 -48.5 -139t-58 -169.5t-19.5 -82.5
q0 -46 16.5 -67.5t51.5 -23.5q8 0 14 -5.5t6 -13.5t-6 -14t-14 -6q-53 0 -80.5 34t-27.5 96q0 15 7 42t20.5 69t27 81.5t35.5 102t38 109.5q71 212 71 279q-2 86 -83 86q-35 0 -70.5 -21t-72.5 -63t-63.5 -77t-63.5 -91q-17 -51 -44 -137q-63 -198 -92.5 -254t-84.5 -56
q-51 0 -51 61q0 21 10 48.5t29.5 60t33 53.5t36.5 52.5t24 33.5l103 156l79 242q-61 -44 -95.5 -66.5t-95.5 -49.5t-107 -27q-73 0 -118 43.5t-38 112.5zM327 315q-2 -4 -22 -30q-124 -167 -126 -225q0 -20 13 -20q33 0 56.5 48.5t78.5 226.5zM414 -113q-2 -10 -5 -14
l-36 -57q-7 -13 -20 -7q-14 5 -5 20l17 31q-22 9 -20 34q2 14 12.5 23t24.5 8q14 -2 23.5 -13t8.5 -25z" />
    <glyph glyph-name="ncommaaccent" unicode="&#x146;" horiz-adv-x="399" 
d="M444 238q13 -6 13 -19q0 -3 -2 -9q-52 -115 -92.5 -162.5t-90.5 -47.5q-35 0 -53.5 23t-18.5 61q0 48 39 151t39 146q0 52 -52 52q-41 0 -90.5 -71.5t-78.5 -148.5l-70 -198q-7 -20 -27 -14q-20 7 -13 27q25 70 79.5 223.5t74.5 208.5q5 14 20 14q11 0 17.5 -9t2.5 -19
l-8 -20q47 49 93 49q94 0 94 -94q0 -46 -39 -153t-39 -144q0 -42 30 -42q34 0 65.5 41.5t78.5 143.5q6 13 19 13q3 0 9 -2zM139 -78q-2 -10 -5 -14l-36 -57q-7 -13 -20 -7q-14 5 -5 20l17 31q-22 9 -20 34q2 14 12.5 23t24.5 8q14 -2 23.5 -13t8.5 -25z" />
    <glyph glyph-name="Ncaron" unicode="&#x147;" horiz-adv-x="767" 
d="M669 905q-7 16 8 25q6 4 14 1t12 -10l32 -67l100 74q14 12 26 -2q11 -16 -3 -28l-115 -92q-11 -8 -22 -6t-14 11zM1 720q1 19 19 19q8 0 14 -5.5t6 -14.5q0 -116 117 -116q41 0 100.5 28t87.5 47t87 61q24 19 50 36q4 3 11 3q11 0 16 -8q6 -9 3 -18l-58 -177
q64 82 115.5 123t112.5 41q122 0 122 -126q1 -46 -14.5 -107.5t-57.5 -184.5q-10 -31 -48.5 -139t-58 -169.5t-19.5 -82.5q0 -46 16.5 -67.5t51.5 -23.5q8 0 14 -5.5t6 -13.5t-6 -14t-14 -6q-53 0 -80.5 34t-27.5 96q0 15 7 42t20.5 69t27 81.5t35.5 102t38 109.5
q71 212 71 279q-2 86 -83 86q-35 0 -70.5 -21t-72.5 -63t-63.5 -77t-63.5 -91q-17 -51 -44 -137q-63 -198 -92.5 -254t-84.5 -56q-51 0 -51 61q0 21 10 48.5t29.5 60t33 53.5t36.5 52.5t24 33.5l103 156l79 242q-61 -44 -95.5 -66.5t-95.5 -49.5t-107 -27q-73 0 -118 43.5
t-38 112.5zM327 315q-2 -4 -22 -30q-124 -167 -126 -225q0 -20 13 -20q33 0 56.5 48.5t78.5 226.5z" />
    <glyph glyph-name="ncaron" unicode="&#x148;" horiz-adv-x="399" 
d="M205 640q-7 16 8 25q6 4 14 1t12 -10l32 -67l100 74q14 12 26 -2q11 -16 -3 -28l-115 -92q-11 -8 -22 -6t-14 11zM444 238q13 -6 13 -19q0 -3 -2 -9q-52 -115 -92.5 -162.5t-90.5 -47.5q-35 0 -53.5 23t-18.5 61q0 48 39 151t39 146q0 52 -52 52q-41 0 -90.5 -71.5
t-78.5 -148.5l-70 -198q-7 -20 -27 -14q-20 7 -13 27q25 70 79.5 223.5t74.5 208.5q5 14 20 14q11 0 17.5 -9t2.5 -19l-8 -20q47 49 93 49q94 0 94 -94q0 -46 -39 -153t-39 -144q0 -42 30 -42q34 0 65.5 41.5t78.5 143.5q6 13 19 13q3 0 9 -2z" />
    <glyph glyph-name="Eng" unicode="&#x14a;" horiz-adv-x="832" 
d="M877 237q13 -7 13 -19q0 -3 -2 -9q-48 -114 -116.5 -182.5t-174.5 -99.5q-73 -207 -182 -209q-45 -1 -72 26t-27 71q0 100 169 131q45 7 79 16l25 72q14 41 42.5 120.5t39.5 112t31 90.5t28 86t18 65.5t13.5 61.5t3.5 44q-2 86 -83 86q-35 0 -70.5 -21t-73 -63.5
t-63 -77.5t-63.5 -91q-18 -55 -47 -146q-61 -192 -89 -246.5t-77 -54.5q-59 0 -59 61q0 21 10 48.5t29.5 60t33 53.5t36.5 52.5t24 33.5l103 156l79 242q-61 -44 -95.5 -66.5t-95.5 -49.5t-107 -27q-73 0 -118 43.5t-38 112.5q1 19 19 19q8 0 14 -5.5t6 -14.5
q0 -116 117 -116q41 0 100.5 28t87.5 47t87 61q24 19 50 36q4 3 11 3q11 0 16 -8q6 -9 3 -18l-58 -177q64 82 115.5 123.5t112.5 41.5q122 0 122 -126q2 -101 -175 -593l-15 -44q151 51 235 249q7 13 19 13q3 0 9 -2zM327 315q-2 -4 -22 -30q-124 -167 -126 -225
q0 -20 21 -20q28 0 50 49t77 226zM415 -240q83 2 133 155q-42 -9 -55 -11q-69 -12 -100.5 -32.5t-34.5 -55.5q0 -26 15.5 -41.5t41.5 -14.5z" />
    <glyph glyph-name="eng" unicode="&#x14b;" horiz-adv-x="390" 
d="M435 239q8 -3 11.5 -11t0.5 -16q-52 -120 -112.5 -188t-159.5 -95l-12 -35q-31 -88 -62.5 -130t-91.5 -45q-54 0 -86.5 26.5t-32.5 71.5q0 99 174 131q71 14 78 16q14 39 55.5 152.5t61 175t19.5 89.5q0 52 -52 52q-41 0 -90.5 -71.5t-78.5 -148.5l-70 -198
q-7 -20 -27 -14q-20 7 -13 27q25 70 79.5 223.5t74.5 208.5q5 14 20 14q11 0 17.5 -9t2.5 -19l-8 -20q47 49 93 49q94 0 94 -94q0 -47 -128 -402q85 36 128 90t88 159q5 13 19 13q2 0 8 -2zM123 -93l3 10q-8 -2 -26.5 -5.5t-28.5 -5.5q-139 -23 -139 -88q0 -28 21 -42.5
t55 -14.5q23 1 40.5 11.5t31.5 34.5t22 43.5t21 56.5z" />
    <glyph glyph-name="Omacron" unicode="&#x14c;" horiz-adv-x="735" 
d="M702 855q20 0 22 -21q0 -9 -6 -15t-15 -6h-195q-9 0 -15 6t-6 15q2 21 22 21h193zM791 208q-61 -146 -152 -146q-47 0 -75 28q-50 -63 -102 -96t-116 -33q-83 0 -124 55.5t-41 151.5q0 64 17 143t44 141q-27 -4 -58 -4q-84 0 -134 38.5t-50 105.5q0 64 55 119q6 6 14 6
q9 0 16 -7q6 -6 6 -14q0 -9 -6 -15q-43 -43 -43 -89q0 -49 40 -75.5t102 -26.5q37 0 80 8q100 196 224 196q49 0 49 -43q0 -58 -79 -114t-165 -76q-70 -143 -70 -293q0 -165 123 -165q55 0 105.5 35t87.5 90q-18 48 -1 94q5 16 21 16q10 0 16 -8.5t4 -18.5q-3 -9 -5 -29
q50 86 81 187t31 188q0 157 -106 157q-23 0 -54 -7q-11 -3 -19 3t-8 15q0 18 17 23q29 8 60 8q79 0 115.5 -54t36.5 -146q0 -100 -40 -221t-100 -210q17 -21 48 -21q36 0 63 30t53 91q5 13 19 13q10 0 17 -9.5t3 -20.5zM320 513q65 24 119.5 60t54.5 66q0 13 -13 13
q-75 0 -161 -139z" />
    <glyph glyph-name="omacron" unicode="&#x14d;" horiz-adv-x="391" 
d="M358 588q20 0 22 -21q0 -9 -6 -15t-15 -6h-195q-9 0 -15 6t-6 15q2 21 22 21h193zM447 211q-64 -147 -151 -147q-43 0 -76 27q-30 -40 -66 -65.5t-70 -25.5q-87 0 -87 101q0 128 85 267q63 105 141 105q48 -1 74 -30.5t26 -76.5t-21.5 -113.5t-56.5 -125.5q17 -21 51 -21
q61 0 112 121q5 13 19 13q11 0 17.5 -9.5t2.5 -19.5zM215 240q11 0 17 -8.5t3 -18.5q-1 -3 -4 -23q50 100 50 177q0 31 -16.5 47.5t-42.5 16.5q-54 0 -103 -85q-79 -131 -79 -243q0 -61 44 -61q51 0 112 87q-17 41 -2 95q3 16 21 16z" />
    <glyph glyph-name="Ohungarumlaut" unicode="&#x150;" horiz-adv-x="735" 
d="M534 834l98 93q15 14 31 -2q13 -18 -3 -32l-103 -89q-14 -12 -26 2q-11 16 3 28zM644 834l98 93q15 14 31 -2q13 -18 -3 -32l-103 -89q-14 -12 -26 2q-11 16 3 28zM791 208q-61 -146 -152 -146q-47 0 -75 28q-50 -63 -102 -96t-116 -33q-83 0 -124 55.5t-41 151.5
q0 64 17 143t44 141q-27 -4 -58 -4q-84 0 -134 38.5t-50 105.5q0 64 55 119q6 6 14 6q9 0 16 -7q6 -6 6 -14q0 -9 -6 -15q-43 -43 -43 -89q0 -49 40 -75.5t102 -26.5q37 0 80 8q100 196 224 196q49 0 49 -43q0 -58 -79 -114t-165 -76q-70 -143 -70 -293q0 -165 123 -165
q55 0 105.5 35t87.5 90q-18 48 -1 94q5 16 21 16q10 0 16 -8.5t4 -18.5q-3 -9 -5 -29q50 86 81 187t31 188q0 157 -106 157q-23 0 -54 -7q-11 -3 -19 3t-8 15q0 18 17 23q29 8 60 8q79 0 115.5 -54t36.5 -146q0 -100 -40 -221t-100 -210q17 -21 48 -21q36 0 63 30t53 91
q5 13 19 13q10 0 17 -9.5t3 -20.5zM320 513q65 24 119.5 60t54.5 66q0 13 -13 13q-75 0 -161 -139z" />
    <glyph glyph-name="ohungarumlaut" unicode="&#x151;" horiz-adv-x="391" 
d="M190 567l98 93q15 14 31 -2q13 -18 -3 -32l-103 -89q-14 -12 -26 2q-11 16 3 28zM300 567l98 93q15 14 31 -2q13 -18 -3 -32l-103 -89q-14 -12 -26 2q-11 16 3 28zM447 211q-64 -147 -151 -147q-43 0 -76 27q-30 -40 -66 -65.5t-70 -25.5q-87 0 -87 101q0 128 85 267
q63 105 141 105q48 -1 74 -30.5t26 -76.5t-21.5 -113.5t-56.5 -125.5q17 -21 51 -21q61 0 112 121q5 13 19 13q11 0 17.5 -9.5t2.5 -19.5zM215 240q11 0 17 -8.5t3 -18.5q-1 -3 -4 -23q50 100 50 177q0 31 -16.5 47.5t-42.5 16.5q-54 0 -103 -85q-79 -131 -79 -243
q0 -61 44 -61q51 0 112 87q-17 41 -2 95q3 16 21 16z" />
    <glyph glyph-name="OE" unicode="&#x152;" horiz-adv-x="1047" 
d="M1092 239q13 -7 13 -20q0 -2 -2 -8q-55 -135 -133.5 -203t-190.5 -68q-89 0 -146 49.5t-62 133.5q-106 -162 -225 -162q-83 0 -124 55.5t-41 151.5q0 64 17 143t44 141q-27 -4 -58 -4q-84 0 -134 38.5t-50 105.5q0 64 55 119q6 6 14 6q9 0 16 -7q6 -6 6 -14q0 -9 -6 -15
q-43 -43 -43 -89q0 -49 40 -75.5t102 -26.5q37 0 80 8q100 196 224 196q49 0 49 -43q0 -58 -79 -114t-165 -76q-70 -143 -70 -293q0 -165 123 -165q79 0 155 95t120.5 223.5t44.5 235.5q0 157 -86 157q-23 0 -54 -7q-11 -3 -19 3t-8 15q0 18 17 23q29 8 60 8q132 0 132 -200
q0 -89 -30 -195q32 25 76 44q-43 46 -43 99q0 96 72.5 166.5t172.5 70.5q48 0 78.5 -21.5t30.5 -58.5q-1 -39 -34 -79q-7 -8 -17 -9t-16 6q-13 15 2 32q20 25 23 50q0 18 -19.5 28t-47.5 10q-84 0 -143 -58t-59 -136q0 -45 44 -84q54 14 87 14q24 0 42.5 -12t18.5 -32
q0 -24 -16.5 -37.5t-42.5 -13.5q-46 0 -97 34q-81 -29 -129 -93.5t-48 -142.5q0 -74 46.5 -115t119.5 -41q99 0 166.5 61t118.5 184q3 8 11.5 11.5t16.5 0.5zM481 652q-75 0 -161 -139q65 24 119.5 60t54.5 66q0 13 -13 13zM879 393q-12 0 -36 -4q22 -9 44 -7q3 0 5.5 1
t3.5 2t0 2q0 6 -17 6z" />
    <glyph glyph-name="oe" unicode="&#x153;" horiz-adv-x="520" 
d="M565 238q13 -6 13 -20q0 -2 -2 -8q-51 -113 -100 -161.5t-122 -48.5q-97 0 -120 112q-77 -112 -150 -112q-87 0 -87 101q0 128 85 267q63 105 141 105q44 -1 70 -27t29 -67q67 94 139 94q38 0 61.5 -19.5t23.5 -54.5q0 -119 -256 -181q-13 -43 -15 -82q-3 -91 80 -94
q59 -1 98.5 41t83.5 144q9 18 28 11zM84 42q43 0 90.5 58.5t77 135t29.5 131.5q0 31 -16.5 47.5t-42.5 16.5q-54 0 -103 -85q-79 -131 -79 -243q0 -61 44 -61zM461 431q-40 0 -81.5 -47.5t-70.5 -115.5q39 11 67 21t60.5 26.5t50 37.5t17.5 46q0 32 -43 32z" />
    <glyph glyph-name="Racute" unicode="&#x154;" horiz-adv-x="725" 
d="M576 841l135 93q8 5 16.5 3t13.5 -10q5 -7 3 -16.5t-10 -14.5l-138 -91q-17 -9 -28 7q-7 18 8 29zM759 532q-3 -80 -57.5 -139.5t-140.5 -83.5q67 -48 67 -178q0 -37 -8.5 -119.5t-8.5 -90.5q1 -46 17.5 -67t50.5 -21q23 0 23 -20q0 -10 -6.5 -16.5t-16.5 -6.5
q-54 0 -82 35t-28 96q0 20 8.5 95.5t8.5 113.5q0 163 -125 164q-11 0 -17.5 6.5t-6.5 14.5q0 21 24 21q105 4 178.5 57.5t77.5 138.5q2 78 -52.5 122t-140.5 42q-131 -2 -204 -94.5t-73 -238.5q0 -9 -6 -15t-15 -6q-8 0 -14.5 6t-6.5 15q0 164 86 270t233 106q107 0 173 -58
t62 -149zM530 619q-7 -6 -13.5 -14t-13.5 -20t-12 -22t-11.5 -27t-10.5 -27.5t-11 -31.5l-10 -30t-10 -32.5t-9 -30.5q-11 -37 -17 -55t-17.5 -54t-19.5 -54.5t-21.5 -49.5t-25 -48t-27 -40.5t-32 -36t-35.5 -25t-41.5 -18t-46.5 -5.5q-63 0 -104.5 37.5t-41.5 98.5
q0 65 43.5 115t100.5 50q44 0 44 -24q0 -11 -7.5 -17.5t-18.5 -3.5q-10 2 -17 2q-41 0 -72 -38t-31 -84q0 -43 30 -68.5t73 -25.5q39 0 73 23t55.5 50.5t46 83.5t34.5 87t30 96q2 5 3 8.5t2 7.5q23 77 33 108.5t32.5 78t47.5 69.5q29 26 54 26q23 0 23 -18q0 -20 -18 -24
q-16 -3 -31 -17z" />
    <glyph glyph-name="racute" unicode="&#x155;" horiz-adv-x="368" 
d="M243 514l135 93q8 5 16.5 3t13.5 -10q5 -7 3 -16.5t-10 -14.5l-138 -91q-17 -9 -28 7q-7 18 8 29zM413 238q13 -6 13 -19q0 -3 -2 -9q-49 -113 -91 -161.5t-92 -48.5h-1q-34 0 -52.5 23t-18.5 61q0 29 10 65q6 23 30 96t31 91q-85 28 -109 40q-2 -7 -91 -201
q-6 -12 -18 -12q-4 0 -10 2q-12 7 -12 19q0 3 2 9l80 174l12 30q-51 36 -51 84q0 30 18 47.5t43 17.5q27 0 42.5 -18t15.5 -48q0 -12 -16 -64q23 -12 91 -35q23 -7 38 -12q19 -7 12 -29q-10 -26 -36.5 -104.5t-30.5 -96.5q-7 -25 -9 -55q0 -42 30 -42q36 0 68 42.5t76 142.5
q7 13 19 13q3 0 9 -2zM120 481q0 23 -16 23q-19 0 -19 -19q0 -27 24 -46q11 31 11 42z" />
    <glyph glyph-name="Rcommaaccent" unicode="&#x156;" horiz-adv-x="725" 
d="M759 532q-3 -80 -57.5 -139.5t-140.5 -83.5q67 -48 67 -178q0 -37 -8.5 -119.5t-8.5 -90.5q1 -46 17.5 -67t50.5 -21q23 0 23 -20q0 -10 -6.5 -16.5t-16.5 -6.5q-54 0 -82 35t-28 96q0 20 8.5 95.5t8.5 113.5q0 163 -125 164q-11 0 -17.5 6.5t-6.5 14.5q0 21 24 21
q105 4 178.5 57.5t77.5 138.5q2 78 -52.5 122t-140.5 42q-131 -2 -204 -94.5t-73 -238.5q0 -9 -6 -15t-15 -6q-8 0 -14.5 6t-6.5 15q0 164 86 270t233 106q107 0 173 -58t62 -149zM530 619q-7 -6 -13.5 -14t-13.5 -20t-12 -22t-11.5 -27t-10.5 -27.5t-11 -31.5l-10 -30
t-10 -32.5t-9 -30.5q-11 -37 -17 -55t-17.5 -54t-19.5 -54.5t-21.5 -49.5t-25 -48t-27 -40.5t-32 -36t-35.5 -25t-41.5 -18t-46.5 -5.5q-63 0 -104.5 37.5t-41.5 98.5q0 65 43.5 115t100.5 50q44 0 44 -24q0 -11 -7.5 -17.5t-18.5 -3.5q-10 2 -17 2q-41 0 -72 -38t-31 -84
q0 -43 30 -68.5t73 -25.5q39 0 73 23t55.5 50.5t46 83.5t34.5 87t30 96q2 5 3 8.5t2 7.5q23 77 33 108.5t32.5 78t47.5 69.5q29 26 54 26q23 0 23 -18q0 -20 -18 -24q-16 -3 -31 -17zM408 -75q-2 -10 -5 -14l-36 -57q-7 -13 -20 -7q-14 5 -5 20l17 31q-22 9 -20 34
q2 14 12.5 23t24.5 8q14 -2 23.5 -13t8.5 -25z" />
    <glyph glyph-name="rcommaaccent" unicode="&#x157;" horiz-adv-x="368" 
d="M413 238q13 -6 13 -19q0 -3 -2 -9q-49 -113 -91 -161.5t-92 -48.5h-1q-34 0 -52.5 23t-18.5 61q0 29 10 65q6 23 30 96t31 91q-85 28 -109 40q-2 -7 -91 -201q-6 -12 -18 -12q-4 0 -10 2q-12 7 -12 19q0 3 2 9l80 174l12 30q-51 36 -51 84q0 30 18 47.5t43 17.5
q27 0 42.5 -18t15.5 -48q0 -12 -16 -64q23 -12 91 -35q23 -7 38 -12q19 -7 12 -29q-10 -26 -36.5 -104.5t-30.5 -96.5q-7 -25 -9 -55q0 -42 30 -42q36 0 68 42.5t76 142.5q7 13 19 13q3 0 9 -2zM120 481q0 23 -16 23q-19 0 -19 -19q0 -27 24 -46q11 31 11 42zM213 -74
q-2 -10 -5 -14l-36 -57q-7 -13 -20 -7q-14 5 -5 20l17 31q-22 9 -20 34q2 14 12.5 23t24.5 8q14 -2 23.5 -13t8.5 -25z" />
    <glyph glyph-name="Rcaron" unicode="&#x158;" horiz-adv-x="725" 
d="M555 905q-7 16 8 25q6 4 14 1t12 -10l32 -67l100 74q14 12 26 -2q11 -16 -3 -28l-115 -92q-11 -8 -22 -6t-14 11zM759 532q-3 -80 -57.5 -139.5t-140.5 -83.5q67 -48 67 -178q0 -37 -8.5 -119.5t-8.5 -90.5q1 -46 17.5 -67t50.5 -21q23 0 23 -20q0 -10 -6.5 -16.5
t-16.5 -6.5q-54 0 -82 35t-28 96q0 20 8.5 95.5t8.5 113.5q0 163 -125 164q-11 0 -17.5 6.5t-6.5 14.5q0 21 24 21q105 4 178.5 57.5t77.5 138.5q2 78 -52.5 122t-140.5 42q-131 -2 -204 -94.5t-73 -238.5q0 -9 -6 -15t-15 -6q-8 0 -14.5 6t-6.5 15q0 164 86 270t233 106
q107 0 173 -58t62 -149zM530 619q-7 -6 -13.5 -14t-13.5 -20t-12 -22t-11.5 -27t-10.5 -27.5t-11 -31.5l-10 -30t-10 -32.5t-9 -30.5q-11 -37 -17 -55t-17.5 -54t-19.5 -54.5t-21.5 -49.5t-25 -48t-27 -40.5t-32 -36t-35.5 -25t-41.5 -18t-46.5 -5.5q-63 0 -104.5 37.5
t-41.5 98.5q0 65 43.5 115t100.5 50q44 0 44 -24q0 -11 -7.5 -17.5t-18.5 -3.5q-10 2 -17 2q-41 0 -72 -38t-31 -84q0 -43 30 -68.5t73 -25.5q39 0 73 23t55.5 50.5t46 83.5t34.5 87t30 96q2 5 3 8.5t2 7.5q23 77 33 108.5t32.5 78t47.5 69.5q29 26 54 26q23 0 23 -18
q0 -20 -18 -24q-16 -3 -31 -17z" />
    <glyph glyph-name="rcaron" unicode="&#x159;" horiz-adv-x="368" 
d="M222 578q-7 16 8 25q6 4 14 1t12 -10l32 -67l100 74q14 12 26 -2q11 -16 -3 -28l-115 -92q-11 -8 -22 -6t-14 11zM413 238q13 -6 13 -19q0 -3 -2 -9q-49 -113 -91 -161.5t-92 -48.5h-1q-34 0 -52.5 23t-18.5 61q0 29 10 65q6 23 30 96t31 91q-85 28 -109 40
q-2 -7 -91 -201q-6 -12 -18 -12q-4 0 -10 2q-12 7 -12 19q0 3 2 9l80 174l12 30q-51 36 -51 84q0 30 18 47.5t43 17.5q27 0 42.5 -18t15.5 -48q0 -12 -16 -64q23 -12 91 -35q23 -7 38 -12q19 -7 12 -29q-10 -26 -36.5 -104.5t-30.5 -96.5q-7 -25 -9 -55q0 -42 30 -42
q36 0 68 42.5t76 142.5q7 13 19 13q3 0 9 -2zM120 481q0 23 -16 23q-19 0 -19 -19q0 -27 24 -46q11 31 11 42z" />
    <glyph glyph-name="Sacute" unicode="&#x15a;" horiz-adv-x="552" 
d="M426 849l135 93q8 5 16.5 3t13.5 -10q5 -7 3 -16.5t-10 -14.5l-138 -91q-17 -9 -28 7q-7 18 8 29zM508 674q-2 -45 -33.5 -79.5t-86.5 -51.5q11 -40 45 -114q20 -45 31 -71t21.5 -67.5t10.5 -77.5q0 -116 -76.5 -189.5t-191.5 -73.5q-99 0 -163.5 61.5t-64.5 153.5
q0 89 60.5 153.5t141.5 64.5q61 0 100.5 -42.5t39.5 -101.5q0 -10 -2 -18q-4 -15 -19 -15q-10 0 -16.5 6.5t-5.5 16.5q5 45 -23 78.5t-74 33.5q-65 0 -112.5 -53.5t-47.5 -125.5q0 -74 54 -122t135 -48q98 0 160.5 63t62.5 158q0 32 -10 70t-19.5 62t-29.5 67
q-36 80 -48 123q-30 -2 -49 -2q-201 0 -286 175q-2 6 -2 10q0 10 7 15t14 5q13 0 19 -12q73 -151 246 -151q17 0 43 2q-2 18 -2 26q0 56 30.5 100.5t78.5 44.5q31 0 47.5 -21t14.5 -53zM466 674q0 32 -24 32q-29 0 -45.5 -32t-16.5 -70q0 -13 1 -19q85 32 85 89z" />
    <glyph glyph-name="sacute" unicode="&#x15b;" horiz-adv-x="385" 
d="M238 648l135 93q8 5 16.5 3t13.5 -10q5 -7 3 -16.5t-10 -14.5l-138 -91q-17 -9 -28 7q-7 18 8 29zM330 177q-1 -80 -53.5 -128.5t-129.5 -48.5q-62 0 -106.5 42.5t-44.5 103.5q5 68 41 108.5t95 40.5q39 0 66.5 -29.5t29.5 -71.5q0 -9 -6 -15t-15 -6t-15 6t-6 15
q-1 25 -17 42t-36 17q-40 0 -66 -30t-29 -77q0 -45 32 -74.5t77 -29.5q61 0 100.5 37t40.5 99q-1 31 -14 61.5t-55 104.5q-11 -11 -20 -23q-6 -8 -16 -8t-15 5q-7 6 -7 17q0 6 5 13q18 21 34 37q-15 35 -15 66q0 39 21.5 67.5t51.5 28.5q21 0 33.5 -14.5t14.5 -37.5
q0 -56 -56 -119q9 -16 23.5 -42.5t20.5 -37.5t15 -29.5t12 -30t6 -27t3 -32.5zM232 420q31 43 31 75q-1 10 -7 9.5t-14 -8.5q-15 -15 -15 -44q0 -14 5 -32z" />
    <glyph glyph-name="Scedilla" unicode="&#x15e;" horiz-adv-x="552" 
d="M508 674q-2 -45 -33.5 -79.5t-86.5 -51.5q11 -40 45 -114q20 -45 31 -71t21.5 -67.5t10.5 -77.5q0 -116 -76.5 -189.5t-191.5 -73.5h-1l-23 -51q34 3 52.5 -15.5t13.5 -52.5q-11 -78 -104 -78q-37 0 -65 22q-10 8 -8 19.5t12 15.5t21 -2q19 -13 46 -13q52 0 56 36
q3 21 -7.5 29t-35.5 3q-13 -3 -21 3.5t-4 15.5l32 70q-85 11 -138.5 70.5t-53.5 142.5q0 89 60.5 153.5t141.5 64.5q61 0 100.5 -42.5t39.5 -101.5q0 -10 -2 -18q-4 -15 -19 -15q-10 0 -16.5 6.5t-5.5 16.5q5 45 -23 78.5t-74 33.5q-65 0 -112.5 -53.5t-47.5 -125.5
q0 -74 54 -122t135 -48q98 0 160.5 63t62.5 158q0 32 -10 70t-19.5 62t-29.5 67q-36 80 -48 123q-30 -2 -49 -2q-201 0 -286 175q-2 6 -2 10q0 10 7 15t14 5q13 0 19 -12q73 -151 246 -151q17 0 43 2q-2 18 -2 26q0 56 30.5 100.5t78.5 44.5q31 0 47.5 -21t14.5 -53z
M381 585q85 32 85 89q0 32 -24 32q-29 0 -45.5 -32t-16.5 -70q0 -13 1 -19z" />
    <glyph glyph-name="scedilla" unicode="&#x15f;" horiz-adv-x="385" 
d="M330 177q-1 -80 -53.5 -128.5t-129.5 -48.5l-20 -45q34 3 52.5 -15.5t13.5 -52.5q-11 -78 -104 -78q-37 0 -65 22q-10 8 -8 19.5t12 15.5t21 -2q19 -13 46 -13q51 0 56 36q3 21 -7.5 29t-35.5 3q-13 -3 -21 3.5t-4 15.5l30 66q-51 11 -84 50.5t-33 91.5q5 68 41 108.5
t95 40.5q39 0 66.5 -29.5t29.5 -71.5q0 -9 -6 -15t-15 -6t-15 6t-6 15q-1 25 -17 42t-36 17q-40 0 -66 -30t-29 -77q0 -45 32 -74.5t77 -29.5q61 0 100.5 37t40.5 99q-1 31 -14 61.5t-55 104.5q-11 -11 -20 -23q-6 -8 -16 -8t-15 5q-7 6 -7 17q0 6 5 13q18 21 34 37
q-15 35 -15 66q0 39 21.5 67.5t51.5 28.5q21 0 33.5 -14.5t14.5 -37.5q0 -56 -56 -119q9 -16 23.5 -42.5t20.5 -37.5t15 -29.5t12 -30t6 -27t3 -32.5zM227 452q0 -14 5 -32q31 43 31 75q-1 10 -7 9.5t-14 -8.5q-15 -15 -15 -44z" />
    <glyph glyph-name="Scaron" unicode="&#x160;" horiz-adv-x="552" 
d="M405 913q-7 16 8 25q6 4 14 1t12 -10l32 -67l100 74q14 12 26 -2q11 -16 -3 -28l-115 -92q-11 -8 -22 -6t-14 11zM508 674q-2 -45 -33.5 -79.5t-86.5 -51.5q11 -40 45 -114q20 -45 31 -71t21.5 -67.5t10.5 -77.5q0 -116 -76.5 -189.5t-191.5 -73.5q-99 0 -163.5 61.5
t-64.5 153.5q0 89 60.5 153.5t141.5 64.5q61 0 100.5 -42.5t39.5 -101.5q0 -10 -2 -18q-4 -15 -19 -15q-10 0 -16.5 6.5t-5.5 16.5q5 45 -23 78.5t-74 33.5q-65 0 -112.5 -53.5t-47.5 -125.5q0 -74 54 -122t135 -48q98 0 160.5 63t62.5 158q0 32 -10 70t-19.5 62t-29.5 67
q-36 80 -48 123q-30 -2 -49 -2q-201 0 -286 175q-2 6 -2 10q0 10 7 15t14 5q13 0 19 -12q73 -151 246 -151q17 0 43 2q-2 18 -2 26q0 56 30.5 100.5t78.5 44.5q31 0 47.5 -21t14.5 -53zM466 674q0 32 -24 32q-29 0 -45.5 -32t-16.5 -70q0 -13 1 -19q85 32 85 89z" />
    <glyph glyph-name="scaron" unicode="&#x161;" horiz-adv-x="385" 
d="M217 712q-7 16 8 25q6 4 14 1t12 -10l32 -67l100 74q14 12 26 -2q11 -16 -3 -28l-115 -92q-11 -8 -22 -6t-14 11zM330 177q-1 -80 -53.5 -128.5t-129.5 -48.5q-62 0 -106.5 42.5t-44.5 103.5q5 68 41 108.5t95 40.5q39 0 66.5 -29.5t29.5 -71.5q0 -9 -6 -15t-15 -6t-15 6
t-6 15q-1 25 -17 42t-36 17q-40 0 -66 -30t-29 -77q0 -45 32 -74.5t77 -29.5q61 0 100.5 37t40.5 99q-1 31 -14 61.5t-55 104.5q-11 -11 -20 -23q-6 -8 -16 -8t-15 5q-7 6 -7 17q0 6 5 13q18 21 34 37q-15 35 -15 66q0 39 21.5 67.5t51.5 28.5q21 0 33.5 -14.5t14.5 -37.5
q0 -56 -56 -119q9 -16 23.5 -42.5t20.5 -37.5t15 -29.5t12 -30t6 -27t3 -32.5zM232 420q31 43 31 75q-1 10 -7 9.5t-14 -8.5q-15 -15 -15 -44q0 -14 5 -32z" />
    <glyph glyph-name="uni0162" unicode="&#x162;" horiz-adv-x="619" 
d="M911 703q-3 -60 -119 -60q-69 0 -174 20q-17 -17 -31 -39q-38 -65 -98 -255q-22 -73 -36 -116.5t-33.5 -95.5t-36 -81t-39 -59.5t-47 -45t-55.5 -24t-69 -8.5q-76 0 -124.5 51t-48.5 129q0 87 66 149.5t150 62.5q9 0 15 -6t6 -15t-6 -15t-15 -6q-67 0 -120.5 -51.5
t-53.5 -118.5q0 -62 37.5 -100t93.5 -38q31 0 58 9t47 22.5t39 40.5t31.5 48.5t27.5 62t24 66.5t24.5 75.5t24.5 76.5q58 187 102 263l18 27q-26 6 -94 25.5t-128 32t-110 12.5q-77 0 -120.5 -35.5t-43.5 -99.5q1 -51 32 -77.5t84 -26.5q44 0 91 21q6 2 10 2q10 0 15 -7
t5 -14q0 -13 -12 -19q-55 -25 -110 -25q-71 0 -114 39.5t-43 106.5q0 84 55 131t153 47q63 0 202 -36t164 -41q36 30 86.5 47t98.5 17t84.5 -18.5t36.5 -50.5zM792 685q76 0 76 19q0 10 -27 18t-52 8q-67 0 -124 -32q78 -13 127 -13zM172 -154q-2 -10 -5 -14l-36 -57
q-7 -13 -20 -7q-14 5 -5 20l17 31q-22 9 -20 34q2 14 12.5 23t24.5 8q14 -2 23.5 -13t8.5 -25z" />
    <glyph glyph-name="uni0163" unicode="&#x163;" horiz-adv-x="208" 
d="M254 238q12 -7 12 -19q0 -3 -2 -9q-49 -105 -95.5 -157.5t-110.5 -52.5q-35 0 -54.5 23.5t-19.5 60.5q0 60 57 206l51 143h-63q-9 0 -15 6t-6 15q0 8 6 14.5t15 6.5h77q1 3 26 74.5t26 74.5q5 14 20 14q11 0 17.5 -9t2.5 -19l-47 -135h67q9 0 15 -6.5t6 -14.5
q0 -9 -6 -15t-15 -6h-82q-1 -2 -56 -158q-54 -153 -54 -191q0 -42 32 -42q49 0 87.5 47.5t79.5 138.5q7 12 20 12q3 0 9 -2zM51 -80q-2 -10 -5 -14l-36 -57q-7 -13 -20 -7q-14 5 -5 20l17 31q-22 9 -20 34q2 14 12.5 23t24.5 8q14 -2 23.5 -13t8.5 -25z" />
    <glyph glyph-name="Tcaron" unicode="&#x164;" horiz-adv-x="619" 
d="M567 927q-7 16 8 25q6 4 14 1t12 -10l32 -67l100 74q14 12 26 -2q11 -16 -3 -28l-115 -92q-11 -8 -22 -6t-14 11zM911 703q-3 -60 -119 -60q-69 0 -174 20q-17 -17 -31 -39q-38 -65 -98 -255q-22 -73 -36 -116.5t-33.5 -95.5t-36 -81t-39 -59.5t-47 -45t-55.5 -24
t-69 -8.5q-76 0 -124.5 51t-48.5 129q0 87 66 149.5t150 62.5q9 0 15 -6t6 -15t-6 -15t-15 -6q-67 0 -120.5 -51.5t-53.5 -118.5q0 -62 37.5 -100t93.5 -38q31 0 58 9t47 22.5t39 40.5t31.5 48.5t27.5 62t24 66.5t24.5 75.5t24.5 76.5q58 187 102 263l18 27q-26 6 -94 25.5
t-128 32t-110 12.5q-77 0 -120.5 -35.5t-43.5 -99.5q1 -51 32 -77.5t84 -26.5q44 0 91 21q6 2 10 2q10 0 15 -7t5 -14q0 -13 -12 -19q-55 -25 -110 -25q-71 0 -114 39.5t-43 106.5q0 84 55 131t153 47q63 0 202 -36t164 -41q36 30 86.5 47t98.5 17t84.5 -18.5t36.5 -50.5z
M792 685q76 0 76 19q0 10 -27 18t-52 8q-67 0 -124 -32q78 -13 127 -13z" />
    <glyph glyph-name="tcaron" unicode="&#x165;" horiz-adv-x="208" 
d="M313 602q-2 -10 -5 -14l-36 -57q-7 -13 -20 -7q-14 5 -5 20l17 31q-22 9 -20 34q2 14 12.5 23t24.5 8q14 -2 23.5 -13t8.5 -25zM254 238q12 -7 12 -19q0 -3 -2 -9q-49 -105 -95.5 -157.5t-110.5 -52.5q-35 0 -54.5 23.5t-19.5 60.5q0 60 57 206l51 143h-63q-9 0 -15 6
t-6 15q0 8 6 14.5t15 6.5h77q1 3 26 74.5t26 74.5q5 14 20 14q11 0 17.5 -9t2.5 -19l-47 -135h67q9 0 15 -6.5t6 -14.5q0 -9 -6 -15t-15 -6h-82q-1 -2 -56 -158q-54 -153 -54 -191q0 -42 32 -42q49 0 87.5 47.5t79.5 138.5q7 12 20 12q3 0 9 -2z" />
    <glyph glyph-name="Tbar" unicode="&#x166;" horiz-adv-x="619" 
d="M790 772q48 0 84.5 -18.5t36.5 -50.5q-3 -60 -119 -60q-69 0 -174 20q-17 -17 -31 -39q-39 -66 -93 -240h61q20 0 22 -21q0 -9 -6 -15t-15 -6h-75q-28 -93 -48 -148.5t-47 -111t-55 -83t-67.5 -44.5t-90.5 -16q-76 0 -124.5 51t-48.5 129q0 87 66 149.5t150 62.5
q9 0 15 -6t6 -15t-6 -15t-15 -6q-67 0 -120.5 -51.5t-53.5 -118.5q0 -62 37.5 -100t93.5 -38q43 -1 78.5 18.5t57 40t46.5 76t34.5 83t33.5 103.5q9 27 13 40h-65q-9 0 -15 6t-6 15q2 21 22 21h78q58 189 101 261l18 27q-26 6 -94 25.5t-128 32t-110 12.5
q-77 0 -120.5 -35.5t-43.5 -99.5q1 -51 32 -77.5t84 -26.5q44 0 91 21q6 2 10 2q10 0 15 -7t5 -14q0 -13 -12 -19q-55 -25 -110 -25q-71 0 -114 39.5t-43 106.5q0 84 55 131t153 47q63 0 202 -36t164 -41q36 30 86.5 47t98.5 17zM792 685q76 0 76 19q0 10 -27 18t-52 8
q-67 0 -124 -32q78 -13 127 -13z" />
    <glyph glyph-name="tbar" unicode="&#x167;" horiz-adv-x="208" 
d="M254 238q12 -7 12 -19q0 -3 -2 -9q-49 -105 -95.5 -157.5t-110.5 -52.5q-35 0 -54.5 23.5t-19.5 60.5q0 60 57 206v1q4 10 8 22h-54q-9 0 -15 6t-6 15q2 21 22 21h68q5 15 12.5 34.5t11.5 30.5t4 13h-63q-9 0 -15 6t-6 15q0 8 6 14.5t15 6.5h77q1 3 26 74.5t26 74.5
q5 14 20 14q11 0 17.5 -9t2.5 -19l-47 -135h67q9 0 15 -6.5t6 -14.5q0 -9 -6 -15t-15 -6h-82l-27 -78h80q20 0 22 -21q0 -9 -6 -15t-15 -6h-96q-3 -7 -14 -38q-54 -153 -54 -191q0 -42 32 -42q49 0 87.5 47.5t79.5 138.5q7 12 20 12q3 0 9 -2z" />
    <glyph glyph-name="Umacron" unicode="&#x16a;" horiz-adv-x="776" 
d="M780 875q20 0 22 -21q0 -9 -6 -15t-15 -6h-195q-9 0 -15 6t-6 15q2 21 22 21h193zM418 657q19 50 49.5 85.5t65.5 35.5q26 0 42.5 -15t16.5 -39q0 -33 -42 -60.5t-101 -43.5q-43 -105 -96 -288t-53 -227q0 -90 68 -90h1q33 0 63 14t57 45t49 66t47.5 91.5t45 106
t46.5 125.5q9 25 44 120t55 149q5 14 20 14q20 0 20 -20q0 -5 -1 -8l-98 -269l-54 -151q-45 -135 -45 -204q0 -52 27 -52q17 0 34 10t29.5 23.5t27 37t22.5 39.5t20 42q3 6 8 17t7 15q6 12 19 12q10 0 15.5 -7t5.5 -14q0 -4 -2 -10q-8 -19 -15 -31q-15 -31 -24 -48.5
t-26.5 -45.5t-33.5 -43t-39 -27t-48 -12q-69 0 -69 94q0 20 1 31q-45 -73 -95 -113t-113 -40h-2q-54 1 -81.5 37t-27.5 96q0 46 43 197.5t99 308.5q-23 -5 -61 -10q-40 -6 -57 -9t-55.5 -11t-58 -15.5t-48 -20.5t-42.5 -27t-25 -35t-11 -46q-1 -39 22 -64.5t57 -25.5
q9 0 15 -6.5t6 -15.5q-1 -8 -7.5 -14.5t-14.5 -5.5q-52 0 -86 38.5t-34 93.5q0 32 11.5 58.5t28.5 45t46.5 34t54 25t63.5 18.5t63.5 13.5t64.5 10.5zM469 670q30 6 54 23.5t24 30.5q0 14 -14 14q-15 0 -33 -20t-31 -48z" />
    <glyph glyph-name="umacron" unicode="&#x16b;" horiz-adv-x="401" 
d="M347 588q20 0 22 -21q0 -9 -6 -15t-15 -6h-195q-9 0 -15 6t-6 15q2 21 22 21h193zM447 238q12 -7 12 -19q0 -3 -2 -9q-49 -113 -90.5 -161.5t-91.5 -48.5q-62 0 -72 71q-22 -32 -54.5 -51.5t-65.5 -19.5h-1q-96 0 -96 104q0 33 19.5 91.5t83.5 223.5q11 28 17 43
q5 13 19 13q12 0 18 -9t2 -19q-18 -47 -46 -122q-49 -131 -60 -164t-11 -57q0 -62 55 -62q65 0 115 102q28 56 124 318q5 13 19 13q12 0 18.5 -9t2.5 -19q-12 -33 -31 -85t-25 -67q-61 -165 -61 -211q0 -42 30 -42q35 0 67.5 43t76.5 142q5 13 19 13q3 0 9 -2z" />
    <glyph glyph-name="Uring" unicode="&#x16e;" horiz-adv-x="776" 
d="M689 820q-40 0 -64.5 28.5t-18.5 68.5q6 36 34 60t64 24q39 0 64 -28.5t19 -67.5q-6 -36 -34 -60.5t-64 -24.5zM689 862q20 0 36.5 14.5t19.5 34.5t-9 34t-32 14t-36.5 -14t-19.5 -34q-3 -21 8.5 -35t32.5 -14zM418 657q19 50 49.5 85.5t65.5 35.5q26 0 42.5 -15
t16.5 -39q0 -33 -42 -60.5t-101 -43.5q-43 -105 -96 -288t-53 -227q0 -90 68 -90h1q33 0 63 14t57 45t49 66t47.5 91.5t45 106t46.5 125.5q9 25 44 120t55 149q5 14 20 14q20 0 20 -20q0 -5 -1 -8l-98 -269l-54 -151q-45 -135 -45 -204q0 -52 27 -52q17 0 34 10t29.5 23.5
t27 37t22.5 39.5t20 42q3 6 8 17t7 15q6 12 19 12q10 0 15.5 -7t5.5 -14q0 -4 -2 -10q-8 -19 -15 -31q-15 -31 -24 -48.5t-26.5 -45.5t-33.5 -43t-39 -27t-48 -12q-69 0 -69 94q0 20 1 31q-45 -73 -95 -113t-113 -40h-2q-54 1 -81.5 37t-27.5 96q0 46 43 197.5t99 308.5
q-23 -5 -61 -10q-40 -6 -57 -9t-55.5 -11t-58 -15.5t-48 -20.5t-42.5 -27t-25 -35t-11 -46q-1 -39 22 -64.5t57 -25.5q9 0 15 -6.5t6 -15.5q-1 -8 -7.5 -14.5t-14.5 -5.5q-52 0 -86 38.5t-34 93.5q0 32 11.5 58.5t28.5 45t46.5 34t54 25t63.5 18.5t63.5 13.5t64.5 10.5z
M469 670q30 6 54 23.5t24 30.5q0 14 -14 14q-15 0 -33 -20t-31 -48z" />
    <glyph glyph-name="uring" unicode="&#x16f;" horiz-adv-x="401" 
d="M256 533q-40 0 -64.5 28.5t-18.5 68.5q6 36 34 60t64 24q39 0 64 -28.5t19 -67.5q-6 -36 -34 -60.5t-64 -24.5zM256 575q20 0 36.5 14.5t19.5 34.5t-9 34t-32 14t-36.5 -14t-19.5 -34q-3 -21 8.5 -35t32.5 -14zM447 238q12 -7 12 -19q0 -3 -2 -9q-49 -113 -90.5 -161.5
t-91.5 -48.5q-62 0 -72 71q-22 -32 -54.5 -51.5t-65.5 -19.5h-1q-96 0 -96 104q0 33 19.5 91.5t83.5 223.5q11 28 17 43q5 13 19 13q12 0 18 -9t2 -19q-18 -47 -46 -122q-49 -131 -60 -164t-11 -57q0 -62 55 -62q65 0 115 102q28 56 124 318q5 13 19 13q12 0 18.5 -9
t2.5 -19q-12 -33 -31 -85t-25 -67q-61 -165 -61 -211q0 -42 30 -42q35 0 67.5 43t76.5 142q5 13 19 13q3 0 9 -2z" />
    <glyph glyph-name="Uhungarumlaut" unicode="&#x170;" horiz-adv-x="776" 
d="M612 854l98 93q15 14 31 -2q13 -18 -3 -32l-103 -89q-14 -12 -26 2q-11 16 3 28zM722 854l98 93q15 14 31 -2q13 -18 -3 -32l-103 -89q-14 -12 -26 2q-11 16 3 28zM418 657q19 50 49.5 85.5t65.5 35.5q26 0 42.5 -15t16.5 -39q0 -33 -42 -60.5t-101 -43.5
q-43 -105 -96 -288t-53 -227q0 -90 68 -90h1q33 0 63 14t57 45t49 66t47.5 91.5t45 106t46.5 125.5q9 25 44 120t55 149q5 14 20 14q20 0 20 -20q0 -5 -1 -8l-98 -269l-54 -151q-45 -135 -45 -204q0 -52 27 -52q17 0 34 10t29.5 23.5t27 37t22.5 39.5t20 42q3 6 8 17t7 15
q6 12 19 12q10 0 15.5 -7t5.5 -14q0 -4 -2 -10q-8 -19 -15 -31q-15 -31 -24 -48.5t-26.5 -45.5t-33.5 -43t-39 -27t-48 -12q-69 0 -69 94q0 20 1 31q-45 -73 -95 -113t-113 -40h-2q-54 1 -81.5 37t-27.5 96q0 46 43 197.5t99 308.5q-23 -5 -61 -10q-40 -6 -57 -9t-55.5 -11
t-58 -15.5t-48 -20.5t-42.5 -27t-25 -35t-11 -46q-1 -39 22 -64.5t57 -25.5q9 0 15 -6.5t6 -15.5q-1 -8 -7.5 -14.5t-14.5 -5.5q-52 0 -86 38.5t-34 93.5q0 32 11.5 58.5t28.5 45t46.5 34t54 25t63.5 18.5t63.5 13.5t64.5 10.5zM469 670q30 6 54 23.5t24 30.5q0 14 -14 14
q-15 0 -33 -20t-31 -48z" />
    <glyph glyph-name="uhungarumlaut" unicode="&#x171;" horiz-adv-x="401" 
d="M179 567l98 93q15 14 31 -2q13 -18 -3 -32l-103 -89q-14 -12 -26 2q-11 16 3 28zM289 567l98 93q15 14 31 -2q13 -18 -3 -32l-103 -89q-14 -12 -26 2q-11 16 3 28zM447 238q12 -7 12 -19q0 -3 -2 -9q-49 -113 -90.5 -161.5t-91.5 -48.5q-62 0 -72 71q-22 -32 -54.5 -51.5
t-65.5 -19.5h-1q-96 0 -96 104q0 33 19.5 91.5t83.5 223.5q11 28 17 43q5 13 19 13q12 0 18 -9t2 -19q-18 -47 -46 -122q-49 -131 -60 -164t-11 -57q0 -62 55 -62q65 0 115 102q28 56 124 318q5 13 19 13q12 0 18.5 -9t2.5 -19q-12 -33 -31 -85t-25 -67q-61 -165 -61 -211
q0 -42 30 -42q35 0 67.5 43t76.5 142q5 13 19 13q3 0 9 -2z" />
    <glyph glyph-name="Uogonek" unicode="&#x172;" horiz-adv-x="776" 
d="M812 238q10 0 15.5 -7t5.5 -14q0 -4 -2 -10q-8 -19 -15 -31q-51 -107 -90 -142l-2 -2q-73 -63 -98 -92.5t-25 -54.5q0 -16 10 -25.5t26 -9.5q31 0 60 16q12 5 21 0t8.5 -16.5t-12.5 -18.5q-41 -23 -74 -23q-37 0 -59 20t-22 52q0 52 74 121q-57 7 -57 93q0 20 1 31
q-45 -73 -95 -113t-113 -40h-2q-54 1 -81.5 37t-27.5 96q0 46 43 197.5t99 308.5q-23 -5 -61 -10q-40 -6 -57 -9t-55.5 -11t-58 -15.5t-48 -20.5t-42.5 -27t-25 -35t-11 -46q-1 -39 22 -64.5t57 -25.5q9 0 15 -6.5t6 -15.5q-1 -8 -7.5 -14.5t-14.5 -5.5q-52 0 -86 38.5
t-34 93.5q0 32 11.5 58.5t28.5 45t46.5 34t54 25t63.5 18.5t63.5 13.5t64.5 10.5l86 15q19 50 49.5 85.5t65.5 35.5q26 0 42.5 -15t16.5 -39q0 -33 -42 -60.5t-101 -43.5q-43 -105 -96 -288t-53 -227q0 -90 68 -90h1q33 0 63 14t57 45t49 66t47.5 91.5t45 106t46.5 125.5
q9 25 44 120t55 149q5 14 20 14q20 0 20 -20q0 -5 -1 -8l-98 -269l-54 -151q-45 -135 -45 -204q0 -52 27 -52q17 0 34 10t29.5 23.5t27 37t22.5 39.5t20 42q3 6 8 17t7 15q6 12 19 12zM533 738q-15 0 -33 -20t-31 -48q30 6 54 23.5t24 30.5q0 14 -14 14z" />
    <glyph glyph-name="uogonek" unicode="&#x173;" horiz-adv-x="401" 
d="M447 238q12 -7 12 -19q0 -3 -2 -9q-56 -128 -103 -174q-1 -2 -3 -4q-73 -63 -98 -92.5t-25 -54.5q0 -16 10 -25.5t26 -9.5q31 0 60 16q12 5 21 0t8.5 -16.5t-12.5 -18.5q-41 -23 -74 -23q-37 0 -59 20t-22 52q0 53 75 121q-50 9 -58 70q-22 -32 -54.5 -51.5t-65.5 -19.5
h-1q-96 0 -96 104q0 33 19.5 91.5t83.5 223.5q11 28 17 43q5 13 19 13q12 0 18 -9t2 -19q-18 -47 -46 -122q-49 -131 -60 -164t-11 -57q0 -62 55 -62q65 0 115 102q28 56 124 318q5 13 19 13q12 0 18.5 -9t2.5 -19q-12 -33 -31 -85t-25 -67q-61 -165 -61 -211q0 -42 30 -42
q35 0 67.5 43t76.5 142q5 13 19 13q3 0 9 -2z" />
    <glyph glyph-name="Wcircumflex" unicode="&#x174;" horiz-adv-x="950" 
d="M893 818q4 -8 1.5 -15.5t-9.5 -9.5q-15 -5 -25 9l-50 75l-103 -73q-15 -11 -26 2q-11 17 3 28l117 91q11 8 21 6t15 -11zM417 655q19 50 50 86.5t66 36.5q26 0 42.5 -15t16.5 -39q0 -33 -42 -60.5t-101 -43.5q-43 -108 -97.5 -296t-54.5 -230q0 -88 69 -91q75 0 172 209
q22 47 85.5 222.5t71.5 210.5q4 16 21 16q11 0 17.5 -9t2.5 -19q-110 -329 -132 -427q-15 -67 -15 -107q0 -94 62 -94q19 0 37 8t34.5 26t30 36t28.5 50.5t25.5 56.5t25 66.5t22.5 67.5t23 72q14 43 19.5 60.5t19 57t20.5 57.5t20.5 51t23.5 49t24.5 40.5t27.5 36t29 24.5
t33.5 18t36.5 5q9 0 15.5 -6t6.5 -15t-6 -15t-15 -6q-18 0 -34.5 -7t-32 -25t-28 -34.5t-27.5 -49t-24 -54t-24 -65t-22 -65t-23 -70.5q-14 -43 -20 -62t-19.5 -59t-21.5 -59.5t-21.5 -53t-24 -50.5t-25.5 -42t-29 -37.5t-31 -25.5t-35.5 -18.5t-38.5 -5.5q-51 0 -77.5 38
t-26.5 99q0 13 2 41q-93 -179 -183 -179q-111 3 -111 133q0 47 46.5 211t98.5 306q-23 -5 -61 -10q-149 -24 -206 -49q-91 -40 -91 -115q0 -39 23 -64.5t56 -25.5q21 0 21 -20q0 -9 -6 -15.5t-16 -6.5q-52 0 -87 39t-33 95q0 36 13.5 65t41.5 49.5t55.5 34.5t72.5 25
t73.5 16.5t75.5 12.5q12 2 41.5 6t43.5 7zM469 670q30 6 54 23.5t24 30.5q0 14 -14 14q-15 0 -33 -20t-31 -48z" />
    <glyph glyph-name="wcircumflex" unicode="&#x175;" horiz-adv-x="526" 
d="M438 553q4 -8 1.5 -15.5t-9.5 -9.5q-15 -5 -25 9l-50 75l-103 -73q-15 -11 -26 2q-11 17 3 28l117 91q11 8 21 6t15 -11zM584 219q0 -2 -2 -8q-23 -63 -64 -105t-91 -42q-43 0 -70 27q-32 -45 -60 -68t-61 -23q-62 0 -72 71q-50 -71 -110 -71q-35 0 -53.5 23t-18.5 61
q0 36 26 117.5t94 260.5q5 13 19 13q12 0 18 -9t2 -19q-77 -212 -97 -273.5t-20 -89.5q0 -42 30 -42q36 0 70 43t74 143q17 44 85 234q5 13 19 13q12 0 18.5 -9t2.5 -19q-117 -310 -117 -363q0 -42 30 -42q23 0 40.5 17.5t54.5 69.5q-16 43 -1 95q5 16 20 16q11 0 17.5 -8.5
t3.5 -18.5q-3 -7 -5 -24q84 159 139 275q7 12 20 12q8 0 14 -6.5t6 -14.5q0 -4 -2 -10q-112 -229 -163 -318q16 -21 47 -21q37 0 63.5 30t52.5 91q7 13 19 13q9 0 15.5 -6t6.5 -15z" />
    <glyph glyph-name="Ycircumflex" unicode="&#x176;" horiz-adv-x="765" 
d="M780 818q4 -8 1.5 -15.5t-9.5 -9.5q-15 -5 -25 9l-50 75l-103 -73q-15 -11 -26 2q-11 17 3 28l117 91q11 8 21 6t15 -11zM418 656q19 50 50 86.5t66 36.5q26 0 42.5 -15t16.5 -39q0 -33 -42 -60.5t-101 -43.5q-44 -107 -87 -259t-43 -200q0 -90 69 -90q79 0 148 96
q8 11 15 21.5t12.5 18.5t12 20.5t10.5 19.5t11.5 24t11 25t13.5 32t14.5 36t18.5 46t21 52q9 25 44 120t55 149q5 14 20 14q20 0 20 -20q0 -5 -1 -8l-98 -269q-1 -3 -35.5 -99t-73 -202.5t-45.5 -126.5l-16 -44q151 51 235 249q6 13 19 13q3 0 9 -2q13 -7 13 -19q0 -3 -2 -9
q-48 -114 -116.5 -182.5t-174.5 -99.5q-73 -207 -182 -209q-45 -1 -72 26t-27 71q0 100 169 131q45 7 79 16q2 7 55 157q-73 -89 -163 -89q-54 0 -83 35.5t-29 96.5q1 47 38 180.5t86 268.5q-20 -4 -62 -10q-149 -24 -206 -49q-91 -40 -91 -115q0 -39 23 -64.5t56 -25.5
q9 0 15 -6t6 -15q0 -21 -22 -21q-52 0 -86 38.5t-34 95.5q0 36 13.5 65.5t42 50t55.5 34.5t72 24.5t73 16t76 12.5zM470 671q30 6 54 23.5t24 30.5q0 14 -14 14q-16 0 -33.5 -20t-30.5 -48zM481 -85q-42 -9 -55 -11q-69 -12 -100.5 -32.5t-34.5 -55.5q0 -26 15.5 -41.5
t41.5 -14.5q83 2 133 155z" />
    <glyph glyph-name="ycircumflex" unicode="&#x177;" horiz-adv-x="412" 
d="M359 551q4 -8 1.5 -15.5t-9.5 -9.5q-15 -5 -25 9l-50 75l-103 -73q-15 -11 -26 2q-11 17 3 28l117 91q11 8 21 6t15 -11zM457 237q13 -7 13 -19q0 -3 -2 -9q-48 -114 -116.5 -182.5t-174.5 -99.5q-73 -207 -182 -209q-45 -1 -72 26t-27 71q0 100 169 131q45 7 79 16
l25 72q-36 -34 -76 -34q-58 0 -83.5 31.5t-25.5 75.5q0 8 1 15.5t3.5 17.5t4 17t6 20t7 21t9 24.5t10 25.5t11.5 30t12 32l56 152q5 13 19 13q12 0 18 -9t2 -19l-55 -152q-11 -29 -23 -61.5t-17.5 -47.5t-11 -31.5t-7.5 -26.5t-2 -21q0 -65 66 -65q38 0 81.5 64.5
t75.5 156.5q7 21 74 198q5 14 19 14q10 0 17.5 -9t3.5 -20q-44 -113 -75 -197l-80 -228l-15 -44q151 51 235 249q7 13 19 13q3 0 9 -2zM-5 -240q83 2 133 155q-42 -9 -55 -11q-69 -12 -100.5 -32.5t-34.5 -55.5q0 -26 15.5 -41.5t41.5 -14.5z" />
    <glyph glyph-name="Ydieresis" unicode="&#x178;" horiz-adv-x="765" 
d="M614 869q14 0 24.5 -10.5t10.5 -24.5t-10.5 -24t-24.5 -10t-24 10t-10 24t10 24.5t24 10.5zM724 869q14 0 24.5 -10.5t10.5 -24.5t-10.5 -24t-24.5 -10t-24 10t-10 24t10 24.5t24 10.5zM418 656q19 50 50 86.5t66 36.5q26 0 42.5 -15t16.5 -39q0 -33 -42 -60.5
t-101 -43.5q-44 -107 -87 -259t-43 -200q0 -90 69 -90q79 0 148 96q8 11 15 21.5t12.5 18.5t12 20.5t10.5 19.5t11.5 24t11 25t13.5 32t14.5 36t18.5 46t21 52q9 25 44 120t55 149q5 14 20 14q20 0 20 -20q0 -5 -1 -8l-98 -269q-1 -3 -35.5 -99t-73 -202.5t-45.5 -126.5
l-16 -44q151 51 235 249q6 13 19 13q3 0 9 -2q13 -7 13 -19q0 -3 -2 -9q-48 -114 -116.5 -182.5t-174.5 -99.5q-73 -207 -182 -209q-45 -1 -72 26t-27 71q0 100 169 131q45 7 79 16q2 7 55 157q-73 -89 -163 -89q-54 0 -83 35.5t-29 96.5q1 47 38 180.5t86 268.5
q-20 -4 -62 -10q-149 -24 -206 -49q-91 -40 -91 -115q0 -39 23 -64.5t56 -25.5q9 0 15 -6t6 -15q0 -21 -22 -21q-52 0 -86 38.5t-34 95.5q0 36 13.5 65.5t42 50t55.5 34.5t72 24.5t73 16t76 12.5zM470 671q30 6 54 23.5t24 30.5q0 14 -14 14q-16 0 -33.5 -20t-30.5 -48z
M481 -85q-42 -9 -55 -11q-69 -12 -100.5 -32.5t-34.5 -55.5q0 -26 15.5 -41.5t41.5 -14.5q83 2 133 155z" />
    <glyph glyph-name="Zacute" unicode="&#x179;" horiz-adv-x="627" 
d="M590 841l135 93q8 5 16.5 3t13.5 -10q5 -7 3 -16.5t-10 -14.5l-138 -91q-17 -9 -28 7q-7 18 8 29zM876 717q0 -32 -26.5 -47.5t-67.5 -15.5q-29 0 -112 17q-84 -107 -293 -416q-72 -108 -101 -144q28 -25 84 -81l12 -12q40 -41 62.5 -61.5t58.5 -49t67.5 -41.5t62.5 -13
q38 0 69 14.5t43 40.5q5 13 19 13q3 0 9 -2q12 -7 12 -20q0 -2 -2 -8q-18 -40 -60 -60.5t-91 -20.5q-38 0 -75 15t-81 50.5t-65.5 55.5t-70.5 69q-42 42 -81 78q-75 -83 -145 -83q-51 0 -77.5 25.5t-26.5 70.5q0 48 33 79t77 31q58 0 134 -63q24 30 98 141q82 121 287 403
q-163 50 -245 50q-61 0 -102 -36.5t-41 -90.5q0 -44 29 -74q6 -6 6 -14q0 -9 -7 -16q-6 -6 -14 -6q-9 0 -16 7q-40 43 -40 106q0 71 54.5 119t132.5 48q56 0 105.5 -10.5t161.5 -44.5q64 62 141 62q35 0 58.5 -17t23.5 -48zM833 719q0 21 -39 21q-47 0 -91 -33
q42 -11 78 -11q52 0 52 23zM217 106q-67 53 -109 53q-26 0 -45.5 -18.5t-20.5 -49.5q0 -54 62 -54q51 0 113 69z" />
    <glyph glyph-name="zacute" unicode="&#x17a;" horiz-adv-x="399" 
d="M214 574l135 93q8 5 16.5 3t13.5 -10q5 -7 3 -16.5t-10 -14.5l-138 -91q-17 -9 -28 7q-7 18 8 29zM445 239q13 -5 13 -19q0 -2 -2 -8q-77 -181 -217 -246q-82 -226 -221 -226q-48 0 -76.5 25t-28.5 71q0 51 37 82t118 45q92 15 138 35q27 97 4 138q-46 -23 -85 -15.5
t-39 46.5q0 46 46 52t86 -28q64 46 64 153q0 87 -68 87q-11 0 -22 -4.5t-22 -15t-20 -20t-20 -28.5t-18 -31t-18.5 -36.5t-17 -36t-17 -38.5t-15.5 -36l-4 -9q-6 -13 -18 -13q-9 0 -15.5 6t-6.5 15q0 3 2 9q24 57 35.5 83.5t35.5 72t42 67t44.5 39.5t54.5 18q53 0 81.5 -35
t28.5 -94q0 -52 -19.5 -102.5t-58.5 -83.5q29 -47 11 -134q101 64 160 204q7 13 19 13q3 0 9 -2zM182 167q-15 9 -27 12.5t-19 0t-7 -12.5q1 -8 18 -7.5t35 7.5zM185 -55q-35 -11 -110 -24q-120 -18 -120 -84q0 -22 17.5 -39t44.5 -17q92 0 168 164z" />
    <glyph glyph-name="Zdotaccent" unicode="&#x17b;" horiz-adv-x="627" 
d="M628 800q-16 0 -27 10.5t-11 26.5q0 15 11 26t27 11t26.5 -11t10.5 -26q0 -16 -10.5 -26.5t-26.5 -10.5zM876 717q0 -32 -26.5 -47.5t-67.5 -15.5q-29 0 -112 17q-84 -107 -293 -416q-72 -108 -101 -144q28 -25 84 -81l12 -12q40 -41 62.5 -61.5t58.5 -49t67.5 -41.5
t62.5 -13q38 0 69 14.5t43 40.5q5 13 19 13q3 0 9 -2q12 -7 12 -20q0 -2 -2 -8q-18 -40 -60 -60.5t-91 -20.5q-38 0 -75 15t-81 50.5t-65.5 55.5t-70.5 69q-42 42 -81 78q-75 -83 -145 -83q-51 0 -77.5 25.5t-26.5 70.5q0 48 33 79t77 31q58 0 134 -63q24 30 98 141
q82 121 287 403q-163 50 -245 50q-61 0 -102 -36.5t-41 -90.5q0 -44 29 -74q6 -6 6 -14q0 -9 -7 -16q-6 -6 -14 -6q-9 0 -16 7q-40 43 -40 106q0 71 54.5 119t132.5 48q56 0 105.5 -10.5t161.5 -44.5q64 62 141 62q35 0 58.5 -17t23.5 -48zM833 719q0 21 -39 21
q-47 0 -91 -33q42 -11 78 -11q52 0 52 23zM217 106q-67 53 -109 53q-26 0 -45.5 -18.5t-20.5 -49.5q0 -54 62 -54q51 0 113 69z" />
    <glyph glyph-name="zdotaccent" unicode="&#x17c;" horiz-adv-x="399" 
d="M252 533q-16 0 -27 10.5t-11 26.5q0 15 11 26t27 11t26.5 -11t10.5 -26q0 -16 -10.5 -26.5t-26.5 -10.5zM445 239q13 -5 13 -19q0 -2 -2 -8q-77 -181 -217 -246q-82 -226 -221 -226q-48 0 -76.5 25t-28.5 71q0 51 37 82t118 45q92 15 138 35q27 97 4 138
q-46 -23 -85 -15.5t-39 46.5q0 46 46 52t86 -28q64 46 64 153q0 87 -68 87q-11 0 -22 -4.5t-22 -15t-20 -20t-20 -28.5t-18 -31t-18.5 -36.5t-17 -36t-17 -38.5t-15.5 -36l-4 -9q-6 -13 -18 -13q-9 0 -15.5 6t-6.5 15q0 3 2 9q24 57 35.5 83.5t35.5 72t42 67t44.5 39.5
t54.5 18q53 0 81.5 -35t28.5 -94q0 -52 -19.5 -102.5t-58.5 -83.5q29 -47 11 -134q101 64 160 204q7 13 19 13q3 0 9 -2zM182 167q-15 9 -27 12.5t-19 0t-7 -12.5q1 -8 18 -7.5t35 7.5zM185 -55q-35 -11 -110 -24q-120 -18 -120 -84q0 -22 17.5 -39t44.5 -17q92 0 168 164z
" />
    <glyph glyph-name="Zcaron" unicode="&#x17d;" horiz-adv-x="627" 
d="M569 905q-7 16 8 25q6 4 14 1t12 -10l32 -67l100 74q14 12 26 -2q11 -16 -3 -28l-115 -92q-11 -8 -22 -6t-14 11zM876 717q0 -32 -26.5 -47.5t-67.5 -15.5q-29 0 -112 17q-84 -107 -293 -416q-72 -108 -101 -144q28 -25 84 -81l12 -12q40 -41 62.5 -61.5t58.5 -49
t67.5 -41.5t62.5 -13q38 0 69 14.5t43 40.5q5 13 19 13q3 0 9 -2q12 -7 12 -20q0 -2 -2 -8q-18 -40 -60 -60.5t-91 -20.5q-38 0 -75 15t-81 50.5t-65.5 55.5t-70.5 69q-42 42 -81 78q-75 -83 -145 -83q-51 0 -77.5 25.5t-26.5 70.5q0 48 33 79t77 31q58 0 134 -63
q24 30 98 141q82 121 287 403q-163 50 -245 50q-61 0 -102 -36.5t-41 -90.5q0 -44 29 -74q6 -6 6 -14q0 -9 -7 -16q-6 -6 -14 -6q-9 0 -16 7q-40 43 -40 106q0 71 54.5 119t132.5 48q56 0 105.5 -10.5t161.5 -44.5q64 62 141 62q35 0 58.5 -17t23.5 -48zM833 719
q0 21 -39 21q-47 0 -91 -33q42 -11 78 -11q52 0 52 23zM217 106q-67 53 -109 53q-26 0 -45.5 -18.5t-20.5 -49.5q0 -54 62 -54q51 0 113 69z" />
    <glyph glyph-name="zcaron" unicode="&#x17e;" horiz-adv-x="399" 
d="M193 638q-7 16 8 25q6 4 14 1t12 -10l32 -67l100 74q14 12 26 -2q11 -16 -3 -28l-115 -92q-11 -8 -22 -6t-14 11zM445 239q13 -5 13 -19q0 -2 -2 -8q-77 -181 -217 -246q-82 -226 -221 -226q-48 0 -76.5 25t-28.5 71q0 51 37 82t118 45q92 15 138 35q27 97 4 138
q-46 -23 -85 -15.5t-39 46.5q0 46 46 52t86 -28q64 46 64 153q0 87 -68 87q-11 0 -22 -4.5t-22 -15t-20 -20t-20 -28.5t-18 -31t-18.5 -36.5t-17 -36t-17 -38.5t-15.5 -36l-4 -9q-6 -13 -18 -13q-9 0 -15.5 6t-6.5 15q0 3 2 9q24 57 35.5 83.5t35.5 72t42 67t44.5 39.5
t54.5 18q53 0 81.5 -35t28.5 -94q0 -52 -19.5 -102.5t-58.5 -83.5q29 -47 11 -134q101 64 160 204q7 13 19 13q3 0 9 -2zM182 167q-15 9 -27 12.5t-19 0t-7 -12.5q1 -8 18 -7.5t35 7.5zM185 -55q-35 -11 -110 -24q-120 -18 -120 -84q0 -22 17.5 -39t44.5 -17q92 0 168 164z
" />
    <glyph glyph-name="Scommaaccent" unicode="&#x218;" horiz-adv-x="552" 
d="M508 674q-2 -45 -33.5 -79.5t-86.5 -51.5q11 -40 45 -114q20 -45 31 -71t21.5 -67.5t10.5 -77.5q0 -116 -76.5 -189.5t-191.5 -73.5q-99 0 -163.5 61.5t-64.5 153.5q0 89 60.5 153.5t141.5 64.5q61 0 100.5 -42.5t39.5 -101.5q0 -10 -2 -18q-4 -15 -19 -15
q-10 0 -16.5 6.5t-5.5 16.5q5 45 -23 78.5t-74 33.5q-65 0 -112.5 -53.5t-47.5 -125.5q0 -74 54 -122t135 -48q98 0 160.5 63t62.5 158q0 32 -10 70t-19.5 62t-29.5 67q-36 80 -48 123q-30 -2 -49 -2q-201 0 -286 175q-2 6 -2 10q0 10 7 15t14 5q13 0 19 -12
q73 -151 246 -151q17 0 43 2q-2 18 -2 26q0 56 30.5 100.5t78.5 44.5q31 0 47.5 -21t14.5 -53zM466 674q0 32 -24 32q-29 0 -45.5 -32t-16.5 -70q0 -13 1 -19q85 32 85 89zM228 -134q-2 -10 -5 -14l-36 -57q-7 -13 -20 -7q-14 5 -5 20l17 31q-22 9 -20 34q2 14 12.5 23
t24.5 8q14 -2 23.5 -13t8.5 -25z" />
    <glyph glyph-name="scommaaccent" unicode="&#x219;" horiz-adv-x="385" 
d="M330 177q-1 -80 -53.5 -128.5t-129.5 -48.5q-62 0 -106.5 42.5t-44.5 103.5q5 68 41 108.5t95 40.5q39 0 66.5 -29.5t29.5 -71.5q0 -9 -6 -15t-15 -6t-15 6t-6 15q-1 25 -17 42t-36 17q-40 0 -66 -30t-29 -77q0 -45 32 -74.5t77 -29.5q61 0 100.5 37t40.5 99
q-1 31 -14 61.5t-55 104.5q-11 -11 -20 -23q-6 -8 -16 -8t-15 5q-7 6 -7 17q0 6 5 13q18 21 34 37q-15 35 -15 66q0 39 21.5 67.5t51.5 28.5q21 0 33.5 -14.5t14.5 -37.5q0 -56 -56 -119q9 -16 23.5 -42.5t20.5 -37.5t15 -29.5t12 -30t6 -27t3 -32.5zM232 420q31 43 31 75
q-1 10 -7 9.5t-14 -8.5q-15 -15 -15 -44q0 -14 5 -32zM138 -84q-2 -10 -5 -14l-36 -57q-7 -13 -20 -7q-14 5 -5 20l17 31q-22 9 -20 34q2 14 12.5 23t24.5 8q14 -2 23.5 -13t8.5 -25z" />
    <glyph glyph-name="uni021A" unicode="&#x21a;" horiz-adv-x="619" 
d="M911 703q-3 -60 -119 -60q-69 0 -174 20q-17 -17 -31 -39q-38 -65 -98 -255q-22 -73 -36 -116.5t-33.5 -95.5t-36 -81t-39 -59.5t-47 -45t-55.5 -24t-69 -8.5q-76 0 -124.5 51t-48.5 129q0 87 66 149.5t150 62.5q9 0 15 -6t6 -15t-6 -15t-15 -6q-67 0 -120.5 -51.5
t-53.5 -118.5q0 -62 37.5 -100t93.5 -38q31 0 58 9t47 22.5t39 40.5t31.5 48.5t27.5 62t24 66.5t24.5 75.5t24.5 76.5q58 187 102 263l18 27q-26 6 -94 25.5t-128 32t-110 12.5q-77 0 -120.5 -35.5t-43.5 -99.5q1 -51 32 -77.5t84 -26.5q44 0 91 21q6 2 10 2q10 0 15 -7
t5 -14q0 -13 -12 -19q-55 -25 -110 -25q-71 0 -114 39.5t-43 106.5q0 84 55 131t153 47q63 0 202 -36t164 -41q36 30 86.5 47t98.5 17t84.5 -18.5t36.5 -50.5zM792 685q76 0 76 19q0 10 -27 18t-52 8q-67 0 -124 -32q78 -13 127 -13zM172 -154q-2 -10 -5 -14l-36 -57
q-7 -13 -20 -7q-14 5 -5 20l17 31q-22 9 -20 34q2 14 12.5 23t24.5 8q14 -2 23.5 -13t8.5 -25z" />
    <glyph glyph-name="uni021B" unicode="&#x21b;" horiz-adv-x="208" 
d="M254 238q12 -7 12 -19q0 -3 -2 -9q-49 -105 -95.5 -157.5t-110.5 -52.5q-35 0 -54.5 23.5t-19.5 60.5q0 60 57 206l51 143h-63q-9 0 -15 6t-6 15q0 8 6 14.5t15 6.5h77q1 3 26 74.5t26 74.5q5 14 20 14q11 0 17.5 -9t2.5 -19l-47 -135h67q9 0 15 -6.5t6 -14.5
q0 -9 -6 -15t-15 -6h-82q-1 -2 -56 -158q-54 -153 -54 -191q0 -42 32 -42q49 0 87.5 47.5t79.5 138.5q7 12 20 12q3 0 9 -2zM51 -80q-2 -10 -5 -14l-36 -57q-7 -13 -20 -7q-14 5 -5 20l17 31q-22 9 -20 34q2 14 12.5 23t24.5 8q14 -2 23.5 -13t8.5 -25z" />
    <glyph glyph-name="gravecomb" unicode="&#x300;" 
d="M-57 834q14 -12 3 -28q-12 -14 -26 -2l-110 97q-16 14 -3 32q16 16 31 2z" />
    <glyph glyph-name="acutecomb" unicode="&#x301;" 
d="M-218 841l135 93q8 5 16.5 3t13.5 -10q5 -7 3 -16.5t-10 -14.5l-138 -91q-17 -9 -28 7q-7 18 8 29z" />
    <glyph glyph-name="uni0302" unicode="&#x302;" 
d="M-53 818q4 -8 1.5 -15.5t-9.5 -9.5q-15 -5 -25 9l-50 75l-103 -73q-15 -11 -26 2q-11 17 3 28l117 91q11 8 21 6t15 -11z" />
    <glyph glyph-name="tildecomb" unicode="&#x303;" 
d="M-50 881q0 -7 -4 -13q-11 -17 -32 -29t-41 -12q-37 0 -62 30q-13 16 -30 16q-22 0 -36 -19q-11 -14 -20 -14q-21 0 -21 21q0 6 6 15q10 17 30.5 28t40.5 11q37 0 62 -30q13 -16 30 -16q24 0 37 22q6 11 19 11q9 0 15 -6t6 -15z" />
    <glyph glyph-name="uni0304" unicode="&#x304;" 
d="M-52 855q20 0 22 -21q0 -9 -6 -15t-15 -6h-195q-9 0 -15 6t-6 15q2 21 22 21h193z" />
    <glyph glyph-name="uni0306" unicode="&#x306;" 
d="M-52 910q-46 -110 -134 -110q-55 0 -85.5 36t-15.5 88q5 16 21 16q10 0 16 -8.5t4 -18.5q-9 -33 8 -52t49 -19q62 0 98 85q5 13 19 13q10 0 17 -9.5t3 -20.5z" />
    <glyph glyph-name="uni0307" unicode="&#x307;" 
d="M-87 800q-16 0 -27 10.5t-11 26.5q0 15 11 26t27 11t26.5 -11t10.5 -26q0 -16 -10.5 -26.5t-26.5 -10.5z" />
    <glyph glyph-name="uni0308" unicode="&#x308;" 
d="M-195 869q14 0 24.5 -10.5t10.5 -24.5t-10.5 -24t-24.5 -10t-24 10t-10 24t10 24.5t24 10.5zM-85 869q14 0 24.5 -10.5t10.5 -24.5t-10.5 -24t-24.5 -10t-24 10t-10 24t10 24.5t24 10.5z" />
    <glyph glyph-name="uni030A" unicode="&#x30a;" 
d="M-149 800q-40 0 -64.5 28.5t-18.5 68.5q6 36 34 60t64 24q39 0 64 -28.5t19 -67.5q-6 -36 -34 -60.5t-64 -24.5zM-149 842q20 0 36.5 14.5t19.5 34.5t-9 34t-32 14t-36.5 -14t-19.5 -34q-3 -21 8.5 -35t32.5 -14z" />
    <glyph glyph-name="uni030B" unicode="&#x30b;" 
d="M-301 834l98 93q15 14 31 -2q13 -18 -3 -32l-103 -89q-14 -12 -26 2q-11 16 3 28zM-191 834l98 93q15 14 31 -2q13 -18 -3 -32l-103 -89q-14 -12 -26 2q-11 16 3 28z" />
    <glyph glyph-name="uni030C" unicode="&#x30c;" 
d="M-255 905q-7 16 8 25q6 4 14 1t12 -10l32 -67l100 74q14 12 26 -2q11 -16 -3 -28l-115 -92q-11 -8 -22 -6t-14 11z" />
    <glyph glyph-name="uni0312" unicode="&#x312;" 
 />
    <glyph glyph-name="uni0326" unicode="&#x326;" 
d="M-177 -113q-2 -10 -5 -14l-36 -57q-7 -13 -20 -7q-14 5 -5 20l17 31q-22 9 -20 34q2 14 12.5 23t24.5 8q14 -2 23.5 -13t8.5 -25z" />
    <glyph glyph-name="uni0327" unicode="&#x327;" 
d="M-261 -45q34 3 52.5 -15.5t13.5 -52.5q-11 -78 -104 -78q-37 0 -65 22q-10 8 -8 19.5t12 15.5t21 -2q19 -13 46 -13q51 0 56 36q3 21 -7.5 29t-35.5 3q-13 -3 -21 3.5t-4 15.5l38 83h36z" />
    <glyph glyph-name="uni0328" unicode="&#x328;" 
d="M-196 -169q-41 -23 -74 -23q-37 0 -59 20t-22 52q0 42 37 83t106 94q8 6 16.5 2t10 -12t-4.5 -15q-73 -63 -98 -92.5t-25 -54.5q0 -16 10 -25.5t26 -9.5q31 0 60 16q12 5 21 0t8.5 -16.5t-12.5 -18.5z" />
    <glyph glyph-name="uni0335" unicode="&#x335;" 
 />
    <glyph glyph-name="uni0336" unicode="&#x336;" 
 />
    <glyph glyph-name="uni0337" unicode="&#x337;" 
 />
    <glyph glyph-name="uni0338" unicode="&#x338;" 
 />
    <glyph glyph-name="uni0401" unicode="&#x401;" horiz-adv-x="476" 
d="M346 870q14 0 24.5 -10.5t10.5 -24.5t-10.5 -24t-24.5 -10t-24 10t-10 24t10 24.5t24 10.5zM456 870q14 0 24.5 -10.5t10.5 -24.5t-10.5 -24t-24.5 -10t-24 10t-10 24t10 24.5t24 10.5zM521 239q13 -7 13 -20q0 -2 -2 -8q-55 -135 -133.5 -203t-190.5 -68q-92 0 -150 54
t-58 144q0 94 49.5 162.5t133.5 104.5q-43 46 -43 99q0 23 9 59q-91 41 -140 145q-2 6 -2 10q0 12 12 18q6 2 9 2q13 0 19 -12q22 -46 46.5 -71t69.5 -53q30 64 90 101.5t132 37.5q48 0 78.5 -21.5t30.5 -58.5q-1 -37 -33.5 -67.5t-80.5 -46t-97 -15.5q-44 0 -95 15
q-5 -18 -5 -42q0 -45 44 -84q54 14 87 14q24 0 42.5 -12t18.5 -32q0 -24 -16.5 -37.5t-42.5 -13.5q-46 0 -97 34q-81 -29 -129 -93.5t-48 -142.5q0 -74 46.5 -115t119.5 -41q99 0 166.5 61t118.5 184q3 8 11.5 11.5t16.5 0.5zM202 587q39 -12 81 -12q58 0 112.5 25t56.5 61
q0 18 -19.5 28t-47.5 10q-59 0 -109 -31.5t-74 -80.5zM280 389q22 -9 44 -7q3 0 5.5 1t3.5 2t0 2q0 6 -17 6q-12 0 -36 -4z" />
    <glyph glyph-name="uni0410" unicode="&#x410;" horiz-adv-x="765" 
d="M747 388q-34 -97 -44 -120q-108 -294 -108 -344q0 -47 16 -69t51 -22q8 0 14.5 -6.5t6.5 -15.5q0 -8 -6.5 -14.5t-14.5 -6.5q-110 3 -110 134q0 58 112 358l4 11h-212q-28 -49 -51 -84.5t-55 -77.5t-61 -68.5t-65.5 -44.5t-71.5 -18q-64 0 -108 38t-44 99q0 66 47 115.5
t107 49.5q25 0 46 -10q12 -6 12 -19q0 -8 -6 -14.5t-15 -6.5q-1 0 -14.5 4t-22.5 4q-43 0 -77.5 -38t-34.5 -85q0 -42 32 -68t78 -26q36 0 71.5 21t70 63t58 77t55.5 89h-49q-9 0 -15.5 6.5t-6.5 14.5q0 9 6.5 15.5t15.5 6.5h74q14 25 39 70.5t34 61.5q91 169 125 213
q49 59 103 59q80 0 80 -93q0 -73 -66 -259zM707 403q65 181 65 239q0 55 -39 55q-17 0 -36.5 -12.5t-32.5 -29.5q-33 -43 -122 -207q-5 -8 -27.5 -49t-34.5 -63h203z" />
    <glyph glyph-name="uni0411" unicode="&#x411;" horiz-adv-x="848" 
d="M901 710q0 -7 -5 -14q-51 -56 -136 -56q-30 0 -98 29t-127 29q-139 0 -210.5 -88t-76.5 -247q0 -10 -7 -15.5t-15 -5.5t-14.5 6t-6.5 15q0 169 86.5 273t244.5 104q50 0 93.5 -14.5t75.5 -29t55 -14.5q68 0 104 42q7 7 16 7t15 -6t6 -15zM491 582q-26 -50 -72 -198
q-16 -54 -25 -81.5t-26.5 -76t-31.5 -74t-36.5 -59.5t-45 -51t-53 -29.5t-65.5 -12.5q-63 0 -104.5 37t-41.5 97q0 65 44 115t100 50q19 0 29 -4q15 -7 15 -20q0 -11 -8.5 -17.5t-18.5 -3.5q-5 2 -16 2q-40 0 -71.5 -37.5t-31.5 -82.5t29.5 -69.5t73.5 -24.5q40 0 74 22
t56.5 52.5t44.5 80.5t35 89t30 96q3 9 4 14q44 147 74 206q16 30 44 53t51 23q18 0 21 -18q0 -20 -17 -24q-17 -3 -34.5 -19t-26.5 -35zM581 441q87 0 140.5 -58.5t53.5 -155.5q0 -120 -67.5 -190t-178.5 -70q-81 0 -130.5 35t-49.5 93q0 45 30.5 76t70.5 31q36 0 64 -21.5
t42 -57.5q4 -9 -2 -18t-17 -9q-15 0 -20 14q-19 51 -66 51q-24 0 -42.5 -20t-18.5 -46q0 -39 38 -62.5t101 -23.5q92 0 148.5 58.5t56.5 159.5q0 78 -42 125.5t-111 47.5q-49 0 -75 -23q-7 -5 -14 -5q-8 0 -14 6t-6 15t7 16q38 32 102 32z" />
    <glyph glyph-name="uni0412" unicode="&#x412;" horiz-adv-x="794" 
d="M758 530q0 -53 -30 -104t-78 -83l18 -21q50 -63 50 -154q0 -98 -62 -164t-158 -66q-77 0 -125 35t-48 95q0 46 31 77.5t72 31.5q67 0 98 -80q4 -10 -2 -19t-18 -9q-15 0 -20 14q-8 24 -24 38t-33 14q-25 0 -43.5 -20t-18.5 -47q0 -44 38 -66t93 -22q81 0 129 54.5
t48 135.5q0 45 -17.5 86.5t-48.5 66.5q-42 -17 -88 -17q-39 0 -60 10.5t-21 40.5q0 49 52 49q71 0 122 -35q46 24 74 69.5t28 91.5q2 73 -50.5 119t-130.5 46q-139 0 -210.5 -87.5t-76.5 -246.5q0 -10 -7 -15.5t-15 -5.5t-14.5 6t-6.5 15q0 169 86.5 272.5t244.5 103.5
q96 0 160 -58t62 -151zM491 582q-26 -50 -72 -198q-16 -54 -25 -81.5t-26.5 -76t-31.5 -74t-36.5 -59.5t-45 -51t-53 -29.5t-65.5 -12.5q-63 0 -104.5 37t-41.5 97q0 65 44 115t100 50q19 0 29 -4q15 -7 15 -20q0 -11 -8.5 -17.5t-18.5 -3.5q-5 2 -16 2q-40 0 -71.5 -37.5
t-31.5 -82.5t29.5 -69.5t73.5 -24.5q40 0 74 22t56.5 52.5t44.5 80.5t35 89t30 96q3 9 4 14q44 147 74 206q16 30 44 53t51 23q18 0 21 -18q0 -20 -17 -24q-17 -3 -34.5 -19t-26.5 -35zM526 348q11 0 31 4q-7 3 -30.5 7.5t-30.5 4.5q-14 0 -14 -8t44 -8z" />
    <glyph glyph-name="uni0413" unicode="&#x413;" horiz-adv-x="600" 
d="M901 710q0 -7 -5 -14q-51 -56 -136 -56q-30 0 -98 29t-127 29q-139 0 -210.5 -88t-76.5 -247q0 -10 -7 -15.5t-15 -5.5t-14.5 6t-6.5 15q0 169 86.5 273t244.5 104q50 0 93.5 -14.5t75.5 -29t55 -14.5q68 0 104 42q7 7 16 7t15 -6t6 -15zM491 582q-26 -50 -72 -198
q-16 -54 -25 -81.5t-26.5 -76t-31.5 -74t-36.5 -59.5t-45 -51t-53 -29.5t-65.5 -12.5q-63 0 -104.5 37t-41.5 97q0 65 44 115t100 50q19 0 29 -4q15 -7 15 -20q0 -11 -8.5 -17.5t-18.5 -3.5q-5 2 -16 2q-40 0 -71.5 -37.5t-31.5 -82.5t29.5 -69.5t73.5 -24.5q40 0 74 22
t56.5 52.5t44.5 80.5t35 89t30 96q3 9 4 14q44 147 74 206q16 30 44 53t51 23q18 0 21 -18q0 -20 -17 -24q-17 -3 -34.5 -19t-26.5 -35z" />
    <glyph glyph-name="uni0414" unicode="&#x414;" horiz-adv-x="833" 
d="M799 406q0 -81 -20.5 -163.5t-58 -152.5t-98 -114t-131.5 -44q-73 0 -119.5 35.5t-46.5 95.5q0 48 30.5 79t72.5 31q34 0 59.5 -21.5t37.5 -58.5q3 -10 -3 -19t-16 -9q-15 0 -20 14q-20 52 -58 52q-25 0 -43 -20t-18 -48q0 -43 36.5 -66t87.5 -23q62 0 114.5 41.5
t84.5 107t49.5 139.5t17.5 144q0 131 -54 208t-168 83q-133 0 -209.5 -93t-78.5 -241q0 -9 -6 -15t-15 -6q-8 0 -14.5 6t-6.5 15q2 167 91 271.5t239 104.5q134 -6 199 -95.5t65 -237.5zM501 582q-26 -50 -72 -198q-16 -53 -24.5 -79.5t-26.5 -74.5t-31.5 -74t-36.5 -61
t-45.5 -52.5t-53 -30.5t-65.5 -13q-63 0 -104.5 37.5t-41.5 97.5q0 65 43.5 115t100.5 50q16 0 29 -4q15 -5 15 -20q0 -10 -8 -16.5t-19 -4.5q-10 2 -16 2q-40 0 -71.5 -37.5t-31.5 -82.5t29.5 -70t73.5 -25q48 0 86 27t69 91t44.5 100t39.5 122q3 10 5 15q44 147 74 206
q32 61 91 76q22 5 25 -18q0 -20 -17 -24q-17 -3 -34.5 -19t-26.5 -35z" />
    </font>
</defs>
</svg>
